<svg width="120" height="78" viewBox="0 0 120 78" fill="none" xmlns="http://www.w3.org/2000/svg">
<g id="Group">
<g id="Group_2">
<path id="Vector" d="M29.3177 53.4968L30.8628 56.5046C31.2436 56.3972 31.6272 56.2962 32.023 56.2032L30.0876 52.0526L33.5721 55.886C34.0876 55.7956 34.618 55.7143 35.177 55.6423L34.0114 52.8625L36.7697 55.4706C37.9638 55.367 39.2831 55.2936 40.7819 55.2556L40.4093 53.7393L41.685 55.2347C42.0332 55.2294 42.3964 55.2242 42.765 55.2202C42.5609 53.5034 42.4413 52.5532 42.1652 50.8088C27.2164 45.9518 21.1858 53.4981 20.4023 60.8021C24.4173 58.9987 27.0736 57.7182 29.7489 56.8454L29.3177 53.4968Z" fill="#A2CF64"/>
<path id="Vector_2" d="M21.4631 49.9631L26.018 51.912C26.3091 51.5725 28.3601 49.7875 28.6702 49.4507L25.2659 45.5779L29.8222 48.6905C30.2506 48.2777 30.2248 48.3904 30.7076 47.9671L27.8487 45.03L32.012 47.1519C33.0837 46.2856 34.6614 45.5792 36.0637 44.5805L32.7491 41.076L38.8315 43.266C39.162 43.0366 39.502 42.7994 39.8502 42.5583C38.0902 41.3001 34.0997 39.6396 32.0909 38.7051C16.5586 42.1887 18.4614 54.1924 20.1425 60.9773C22.7701 56.7624 23.0109 55.5934 24.9776 53.0823L21.4631 49.9631Z" fill="#53B94A"/>
<path id="Vector_3" d="M18.2783 50.657L14.5271 53.3267C14.2592 53.0056 13.8403 52.1786 13.5506 51.8628L16.7278 48.2429L12.4734 51.1511C12.0722 50.7658 12.0953 50.8733 11.6437 50.4762L14.2973 47.1014L10.4224 49.7173C9.42407 48.9035 8.99836 48.6675 7.69267 47.7292L10.5516 42.5445L5.59133 46.5457C5.28259 46.3268 4.96705 46.1067 4.64062 45.8812C5.41996 43.6545 6.45771 41.9272 7.55258 40.3754C18.164 39.6533 21.1644 51.1013 19.9348 61.548C17.4799 57.6084 17.2541 56.514 15.4153 54.1615L18.2783 50.657Z" fill="#A2CF64"/>
<path id="Vector_4" d="M14.6104 55.1976L13.7168 58.0062C13.3972 57.9262 12.7403 57.5907 12.4071 57.5213L12.5961 55.2238L11.5556 57.0783C11.1259 57.0128 8.82594 56.1517 8.21254 56.0036L8.58249 52.2095L5.59573 55.1557C4.71575 54.8359 3.56103 54.52 2.36959 54.3012L3.02108 52.1898L1.44609 54.0023C1.15095 54.0023 0.337618 53.8149 0.0234375 53.8175C1.21624 52.5201 1.79292 52.0024 2.64977 51.1597C6.83069 47.7076 18.6322 50.7809 19.1409 60.5212C17.8624 60.014 16.6968 59.495 14.6349 58.558L14.6104 55.1976Z" fill="#53B94A"/>
<path id="Vector_5" d="M18.2472 60.02C14.7871 67.0578 13.48 74.0931 15.9391 76.1704C17.4801 76.1704 18.6307 76.1704 21.015 76.1704C23.7052 69.9451 19.8602 67.7249 21.015 60.4629C19.9405 60.2899 19.4753 60.2401 18.2472 60.02Z" fill="#397C41"/>
</g>
<path id="Vector_6" d="M89.7964 30.5471H34.9766V62.9986H89.7964V30.5471Z" fill="#FFE27D"/>
<g id="Group_3">
<path id="Vector_7" d="M97.4336 33.0232V74.8533" stroke="#543B35" stroke-width="0.877142" stroke-miterlimit="10"/>
<path id="Vector_8" d="M90.375 31.3123L97.4312 43.0893" stroke="#543B35" stroke-width="0.877142" stroke-miterlimit="10"/>
<path id="Vector_9" d="M104.49 31.3123L97.4336 43.0893" stroke="#543B35" stroke-width="0.877142" stroke-miterlimit="10"/>
</g>
<g id="Group_4">
<path id="Vector_10" d="M28.2891 33.0231V74.8532" stroke="#543B35" stroke-width="0.877142" stroke-miterlimit="10"/>
<path id="Vector_11" d="M21.2305 31.3123L28.288 43.0892" stroke="#543B35" stroke-width="0.877142" stroke-miterlimit="10"/>
<path id="Vector_12" d="M35.3479 31.3123L28.2891 43.0892" stroke="#543B35" stroke-width="0.877142" stroke-miterlimit="10"/>
</g>
<path id="Vector_13" d="M62.0756 0.0535889C59.3922 1.43495 18.1896 4.88705 9.53125 33.0254H114.627C105.97 4.88705 64.7673 1.43495 62.0756 0.0535889Z" fill="#644339"/>
<g id="Group_5">
<path id="Vector_14" d="M69.4845 60.6527C69.4845 61.0354 69.1594 61.3486 68.7622 61.3486H55.398C55.0008 61.3486 54.6758 61.0354 54.6758 60.6527V36.6584C54.6758 36.2757 55.0008 35.9625 55.398 35.9625H68.7622C69.1594 35.9625 69.4845 36.2757 69.4845 36.6584V60.6527Z" fill="#FF8A3E"/>
</g>
<path id="Vector_15" d="M57.0652 52.8163H56.1172V56.2697H57.0652V52.8163Z" fill="#644339"/>
<g id="Group_6">
<path id="Vector_16" d="M85.1869 49.998C85.1869 50.1881 85.0264 50.3427 84.8278 50.3427H72.7692C72.5706 50.3427 72.4102 50.1868 72.4102 49.998V36.3024C72.4102 36.1124 72.5706 35.9577 72.7692 35.9577H84.8278C85.0264 35.9577 85.1869 36.1137 85.1869 36.3024V49.998Z" fill="#E6E7E8"/>
</g>
<g id="Group_7">
<path id="Vector_17" d="M51.7495 49.9979C51.7495 50.188 51.589 50.3426 51.3905 50.3426H39.3278C39.1292 50.3426 38.9688 50.1867 38.9688 49.9979V36.3023C38.9688 36.1122 39.1292 35.9576 39.3278 35.9576H51.3905C51.589 35.9576 51.7495 36.1135 51.7495 36.3023V49.9979Z" fill="#E6E7E8"/>
</g>
<g id="Group_8">
<path id="Vector_18" d="M70.8568 63.578H53.3008V65.8781H70.8568V63.578Z" fill="#FFDBAB"/>
</g>
<g id="Group_9">
<path id="Vector_19" d="M70.8568 65.8777H53.3008V68.183H70.8568V65.8777Z" fill="#F8972D"/>
</g>
<g id="Group_10">
<path id="Vector_20" d="M70.8568 70.4842H53.3008V72.7882H70.8568V70.4842Z" fill="#F8972D"/>
</g>
<g id="Group_11">
<path id="Vector_21" d="M70.8568 68.182H53.3008V70.4808H70.8568V68.182Z" fill="#FFDBAB"/>
</g>
<g id="Group_12">
<g id="Group_13">
<g id="Group_14">
<path id="Vector_22" d="M72.7812 53.1232L81.3784 61.41" stroke="#836860" stroke-width="0.35083" stroke-miterlimit="10"/>
<path id="Vector_23" d="M81.3784 53.1232L72.7812 61.41" stroke="#836860" stroke-width="0.35083" stroke-miterlimit="10"/>
</g>
<g id="Group_15">
<path id="Vector_24" d="M81.8477 53.1232L90.4475 61.41" stroke="#836860" stroke-width="0.35083" stroke-miterlimit="10"/>
<path id="Vector_25" d="M90.4475 53.1232L81.8477 61.41" stroke="#836860" stroke-width="0.35083" stroke-miterlimit="10"/>
</g>
<g id="Group_16">
<path id="Vector_26" d="M90.4414 53.1232L99.0399 61.41" stroke="#836860" stroke-width="0.35083" stroke-miterlimit="10"/>
<path id="Vector_27" d="M99.0399 53.1232L90.4414 61.41" stroke="#836860" stroke-width="0.35083" stroke-miterlimit="10"/>
</g>
<g id="Group_17">
<path id="Vector_28" d="M99.043 53.1232L107.641 61.41" stroke="#836860" stroke-width="0.35083" stroke-miterlimit="10"/>
<path id="Vector_29" d="M107.641 53.1232L99.043 61.41" stroke="#836860" stroke-width="0.35083" stroke-miterlimit="10"/>
</g>
</g>
<path id="Vector_30" d="M108.062 53.1794H72.3516V61.3496H108.062V53.1794Z" stroke="#836860" stroke-width="0.35083" stroke-miterlimit="10"/>
</g>
<g id="Group_18">
<g id="Group_19">
<g id="Group_20">
<path id="Vector_31" d="M16.875 53.1232L25.3035 61.41" stroke="#836860" stroke-width="0.347367" stroke-miterlimit="10"/>
<path id="Vector_32" d="M25.3035 53.1232L16.875 61.41" stroke="#836860" stroke-width="0.347367" stroke-miterlimit="10"/>
</g>
<g id="Group_21">
<path id="Vector_33" d="M25.7578 53.1232L34.1849 61.41" stroke="#836860" stroke-width="0.347367" stroke-miterlimit="10"/>
<path id="Vector_34" d="M34.1849 53.1232L25.7578 61.41" stroke="#836860" stroke-width="0.347367" stroke-miterlimit="10"/>
</g>
<g id="Group_22">
<path id="Vector_35" d="M34.1836 53.1232L42.6134 61.41" stroke="#836860" stroke-width="0.347367" stroke-miterlimit="10"/>
<path id="Vector_36" d="M42.6134 53.1232L34.1836 61.41" stroke="#836860" stroke-width="0.347367" stroke-miterlimit="10"/>
</g>
<g id="Group_23">
<path id="Vector_37" d="M42.6172 53.1232L51.0429 61.41" stroke="#836860" stroke-width="0.347367" stroke-miterlimit="10"/>
<path id="Vector_38" d="M51.0429 53.1232L42.6172 61.41" stroke="#836860" stroke-width="0.347367" stroke-miterlimit="10"/>
</g>
</g>
<path id="Vector_39" d="M51.4561 53.1794H16.4609V61.3496H51.4561V53.1794Z" stroke="#836860" stroke-width="0.347367" stroke-miterlimit="10"/>
</g>
<path id="Vector_40" d="M108.06 60.9323H16.1016V63.5783H108.06V60.9323Z" fill="#543B35"/>
<g id="Group_24">
<path id="Vector_41" d="M83.8133 48.0975C83.8133 48.2875 83.6528 48.4422 83.4542 48.4422H74.1403C73.9417 48.4422 73.7812 48.2862 73.7812 48.0975V38.2025C73.7812 38.0125 73.9417 37.8578 74.1403 37.8578H83.4542C83.6528 37.8578 83.8133 38.0138 83.8133 38.2025V48.0975Z" fill="#2F7E86"/>
</g>
<g id="Group_25">
<path id="Vector_42" d="M50.381 48.0975C50.381 48.2875 50.2206 48.4422 50.022 48.4422H40.7067C40.5081 48.4422 40.3477 48.2862 40.3477 48.0975V38.2025C40.3477 38.0125 40.5081 37.8578 40.7067 37.8578H50.022C50.2206 37.8578 50.381 38.0138 50.381 38.2025V48.0975Z" fill="#2F7E86"/>
</g>
<g id="Group_26">
<path id="Vector_43" d="M105.141 76.8492C100.981 77.5609 90.3556 45.627 99.1187 44.1303C107.878 42.631 109.306 76.1376 105.141 76.8492Z" fill="#2F7E86"/>
<path id="Vector_44" d="M99.1211 44.1309L105.142 76.8484" stroke="white" stroke-width="0.4426" stroke-miterlimit="10"/>
</g>
<g id="Group_27">
<path id="Vector_45" d="M106.756 77.3382C103.024 76.0394 109.891 45.2641 117.749 47.998C125.607 50.7306 110.489 78.633 106.756 77.3382Z" fill="#2DBAA4"/>
<path id="Vector_46" d="M117.75 47.998L106.758 77.3395" stroke="white" stroke-width="0.415495" stroke-miterlimit="10"/>
</g>
</g>
</svg>
