<svg width="127" height="75" viewBox="0 0 127 75" fill="none" xmlns="http://www.w3.org/2000/svg">
<g id="Group 744">
<g id="Group">
<path id="Vector" d="M92.4141 46.4253C92.9883 46.4253 93.3593 45.9778 93.2394 45.4328L90.8962 34.7738C90.7763 34.2288 90.2092 33.7812 89.6351 33.7812L56.3411 33.7812C55.7669 33.7812 55.2986 34.2384 55.2986 34.7958L55.2986 35.5619C55.2986 36.1192 55.7669 36.5764 56.3411 36.5764L66.1116 36.5764C66.6858 36.5764 67.1541 37.0336 67.1541 37.5909L67.1541 41.5887C67.1541 42.1461 66.6858 42.6019 66.1116 42.6019L54.1206 42.6019C53.5465 42.6019 53.0781 43.0591 53.0781 43.6165L53.0781 45.4108C53.0781 45.9682 53.5465 46.4253 54.1206 46.4253L92.4141 46.4253Z" fill="#FF8A3E"/>
</g>
<g id="Group_2">
<path id="Vector_2" d="M102.122 55.011C103.839 54.9135 104.722 53.5612 104.083 52.0071L102.456 48.0451C101.817 46.4896 99.8871 45.2183 98.1675 45.2183C98.1675 45.2183 65.4844 45.2183 51.407 45.2183C37.3296 45.2183 20.5352 50.0261 20.5352 54.8325C20.5337 59.643 102.122 55.011 102.122 55.011Z" fill="#79CFDC"/>
</g>
<g id="Group_3">
<path id="Vector_3" d="M42.5598 51.9923C41.3607 56.3155 3.76835 51.6011 6.28928 42.4907C8.80738 33.3804 43.7561 47.6651 42.5598 51.9923Z" fill="#53B94A"/>
<path id="Vector_4" d="M6.29297 42.4913L42.5635 51.9929" stroke="white" stroke-width="0.464777" stroke-miterlimit="10"/>
</g>
<g id="Group_4">
<path id="Vector_5" d="M51.9163 54.7349C49.9484 58.2 18.7098 46.4236 22.8502 39.124C26.9878 31.8259 53.88 51.267 51.9163 54.7349Z" fill="#A2CF64"/>
<path id="Vector_6" d="M22.8477 39.1233L51.9152 54.7341" stroke="white" stroke-width="0.410767" stroke-miterlimit="10"/>
</g>
<g id="Group_5">
<path id="Vector_7" d="M67.9609 50.2689C67.9609 51.1956 68.8991 51.9534 70.046 51.9534L88.165 51.9534C89.3105 51.9534 90.25 51.1956 90.25 50.2689C90.25 49.3436 89.3119 48.5872 88.165 48.5872L70.0445 48.5872C68.8991 48.5872 67.9609 49.3436 67.9609 50.2689Z" fill="#E5E9EA"/>
</g>
<g id="Group_6">
<path id="Vector_8" d="M120.181 51.4231C121.884 51.1828 122.711 52.2413 122.019 53.7734L114.589 70.2355C113.898 71.7662 111.923 73.021 110.205 73.021L13.2329 73.021C11.5133 73.021 9.56653 71.7552 8.91055 70.208L0.4943 50.4332C-0.164498 48.8874 0.67487 47.8989 2.35925 48.2367C2.35925 48.2367 37.5154 55.3124 67.6141 54.9513C97.7143 54.5917 120.181 51.4231 120.181 51.4231Z" fill="#13858F"/>
</g>
<path id="Vector_9" d="M92.1944 25.0626L89.5154 34.7201L81.1133 34.7201L88.3389 25.0626L92.1944 25.0626Z" fill="#FFE27D"/>
<path id="Vector_10" d="M12.5488 62.313C14.4613 62.313 16.0117 60.7688 16.0117 58.8639C16.0117 56.959 14.4613 55.4148 12.5488 55.4148C10.6363 55.4148 9.08594 56.959 9.08594 58.8639C9.08594 60.7688 10.6363 62.313 12.5488 62.313Z" fill="white"/>
<path id="Vector_11" d="M21.5515 62.313C23.0815 62.313 24.3218 60.7688 24.3218 58.8639C24.3218 56.959 23.0815 55.4148 21.5515 55.4148C20.0216 55.4148 18.7812 56.959 18.7812 58.8639C18.7812 60.7688 20.0216 62.313 21.5515 62.313Z" fill="white"/>
<path id="Vector_12" d="M122.619 63.6926C116.206 63.6926 112.337 72.5288 105.717 73.0672L104.498 73.0672C103.571 72.9728 102.378 72.6615 101.414 71.7042C99.9221 70.2202 100.335 68.4795 101.569 67.2875C102.559 66.3287 104.077 66.2903 105.031 67.2875C105.796 68.0827 105.614 70.0018 104.849 70.7999C108.246 69.546 107.615 63.6926 102.779 63.6926C96.2888 63.6926 92.3508 72.725 85.5829 73.0672L84.4903 73.0672C83.548 72.9772 82.3265 72.6689 81.3558 71.7042C79.8622 70.2202 80.2746 68.4795 81.5103 67.2875C82.4994 66.3287 84.017 66.2903 84.9707 67.2875C85.7359 68.0827 85.556 70.0018 84.7893 70.7999C88.1875 69.546 87.5569 63.6926 82.7176 63.6926C76.2303 63.6926 72.3234 72.725 65.5598 73.0672L64.4191 73.0672C63.4923 72.9728 62.2991 72.6615 61.3355 71.7042C59.8448 70.2202 60.2557 68.4795 61.49 67.2875C62.4805 66.3287 63.9982 66.2903 64.9533 67.2875C65.7171 68.0827 65.5357 70.0018 64.7719 70.7999C68.1672 69.546 67.5366 63.6926 62.7016 63.6926C56.2114 63.6926 52.272 72.725 45.5041 73.0672L44.4115 73.0672C43.4692 72.9772 42.2491 72.6689 41.2756 71.7042C39.7848 70.2202 40.1958 68.4795 41.4315 67.2875C42.422 66.3287 43.9383 66.2903 44.8934 67.2875C45.6572 68.0827 45.4772 70.0018 44.712 70.7999C48.1087 69.546 47.4767 63.6926 42.6402 63.6926C36.1529 63.6926 32.2446 72.725 25.4796 73.0672L24.3729 73.0672C23.4291 72.9772 22.209 72.6689 21.2369 71.7042C19.7462 70.2202 20.1571 68.4795 21.3914 67.2875C22.3805 66.3287 23.8981 66.2903 24.8532 67.2875C25.617 68.0827 25.4385 70.0018 24.6719 70.7999C28.0686 69.546 27.438 63.6926 22.6001 63.6926C16.1114 63.6926 12.206 72.725 5.4409 73.0672L5.24818 73.0672C5.07672 73.0672 5.14048 73.0672 4.93359 73.0672L4.93359 74.4008C4.93359 74.5793 5.07672 74.7297 5.24818 74.7297L125.519 74.7297C125.691 74.7297 125.833 74.5793 125.833 74.4008L125.833 73.3947C125.833 73.256 125.751 73.141 125.638 73.0923C125.672 73.0893 125.701 73.0894 125.728 73.0894L125.631 73.0894C125.595 73.0746 125.557 73.0657 125.519 73.0657L124.395 73.0657C123.451 72.9758 122.228 72.6704 121.253 71.7027C119.762 70.2187 120.173 68.478 121.408 67.2861C122.4 66.3272 123.916 66.2889 124.871 67.2861C125.635 68.0812 125.453 70.0004 124.688 70.7984C128.088 69.5475 127.459 63.6926 122.619 63.6926Z" fill="#79CFDC"/>
<path id="Vector_13" d="M41.1591 9.99163C40.9644 9.99163 40.7754 10.0076 40.5891 10.0351C40.4112 6.87433 37.882 4.36774 34.7856 4.36774C32.2718 4.36774 30.1305 6.02285 29.321 8.33797C29.237 8.33362 29.1558 8.33072 29.0718 8.33072C26.4487 8.33072 24.3242 10.5327 24.3242 13.2482C24.3242 15.9303 26.3969 18.1091 28.9737 18.1613L28.9737 18.1642L41.1213 18.1642C41.1339 18.1642 41.1465 18.1642 41.1577 18.1642C43.3368 18.1642 45.1014 16.335 45.1014 14.0794C45.1028 11.8208 43.3382 9.99163 41.1591 9.99163Z" fill="#A7DDE5"/>
<path id="Vector_14" d="M60.2119 4.16786C60.0685 4.16786 59.9294 4.17898 59.793 4.19706C59.6622 1.98498 57.8079 0.228943 55.5389 0.228943C53.6944 0.228943 52.1255 1.38712 51.5308 3.00829C51.4704 3.00551 51.4099 3.00273 51.3481 3.00273C49.4249 3.00273 47.8672 4.54326 47.8672 6.44529C47.8672 8.32229 49.3869 9.84752 51.2764 9.88506L51.2764 9.88645L60.1838 9.88645C60.1922 9.88645 60.2021 9.88645 60.2119 9.88645C61.809 9.88645 63.1038 8.60592 63.1038 7.02646C63.1038 5.447 61.809 4.16786 60.2119 4.16786Z" fill="#A7DDE5"/>
<path id="Vector_15" d="M114.233 17.9644C114.089 17.9644 113.95 17.9755 113.814 17.9935C113.683 15.7813 111.828 14.0254 109.559 14.0254C107.717 14.0254 106.146 15.1835 105.553 16.8049C105.493 16.8021 105.431 16.7993 105.37 16.7993C103.447 16.7993 101.891 18.3403 101.891 20.2418C101.891 22.1198 103.411 23.6454 105.299 23.6815L114.208 23.6829C114.216 23.6829 114.226 23.6829 114.236 23.6829C115.833 23.6829 117.127 22.4027 117.127 20.823C117.127 19.2432 115.829 17.9644 114.233 17.9644Z" fill="#A7DDE5"/>
</g>
</svg>
