<svg width="93" height="88" viewBox="0 0 93 88" fill="none" xmlns="http://www.w3.org/2000/svg">
<g id="Group 617">
<g id="Group">
<g id="Group_2">
<path id="Vector" d="M92.3118 57.575C88.7973 53.6816 84.8878 61.7094 81.1523 57.575" stroke="#2F7E86" stroke-width="0.998947" stroke-miterlimit="10" stroke-linecap="round"/>
<path id="Vector_2" d="M92.3118 51.9195C88.7973 48.0273 84.8878 56.0577 81.1523 51.9195" stroke="#2F7E86" stroke-width="0.998947" stroke-miterlimit="10" stroke-linecap="round"/>
<path id="Vector_3" d="M92.3118 46.2624C88.7973 42.3703 84.8878 50.4006 81.1523 46.2624" stroke="#2F7E86" stroke-width="0.998947" stroke-miterlimit="10" stroke-linecap="round"/>
</g>
<g id="Group_3">
<path id="Vector_4" d="M80.8587 57.575C77.3442 53.6816 73.4347 61.7094 69.6992 57.575" stroke="#2F7E86" stroke-width="0.998947" stroke-miterlimit="10" stroke-linecap="round"/>
<path id="Vector_5" d="M80.8587 51.9195C77.3442 48.0274 73.4347 56.0577 69.6992 51.9195" stroke="#2F7E86" stroke-width="0.998947" stroke-miterlimit="10" stroke-linecap="round"/>
<path id="Vector_6" d="M80.8587 46.2624C77.3442 42.3703 73.4347 50.4006 69.6992 46.2624" stroke="#2F7E86" stroke-width="0.998947" stroke-miterlimit="10" stroke-linecap="round"/>
</g>
<g id="Group_4">
<path id="Vector_7" d="M69.4095 57.575C65.8949 53.6816 61.9855 61.7094 58.25 57.575" stroke="#2F7E86" stroke-width="0.998947" stroke-miterlimit="10" stroke-linecap="round"/>
<path id="Vector_8" d="M69.4095 51.9195C65.8949 48.0273 61.9855 56.0577 58.25 51.9195" stroke="#2F7E86" stroke-width="0.998947" stroke-miterlimit="10" stroke-linecap="round"/>
<path id="Vector_9" d="M69.4095 46.2624C65.8949 42.3703 61.9855 50.4006 58.25 46.2624" stroke="#2F7E86" stroke-width="0.998947" stroke-miterlimit="10" stroke-linecap="round"/>
</g>
<g id="Group_5">
<path id="Vector_10" d="M57.9642 57.575C54.4496 53.6816 50.5402 61.7094 46.8047 57.575" stroke="#2F7E86" stroke-width="0.998947" stroke-miterlimit="10" stroke-linecap="round"/>
<path id="Vector_11" d="M57.9642 51.9195C54.4496 48.0273 50.5402 56.0577 46.8047 51.9195" stroke="#2F7E86" stroke-width="0.998947" stroke-miterlimit="10" stroke-linecap="round"/>
<path id="Vector_12" d="M57.9642 46.2624C54.4496 42.3703 50.5402 50.4006 46.8047 46.2624" stroke="#2F7E86" stroke-width="0.998947" stroke-miterlimit="10" stroke-linecap="round"/>
</g>
<g id="Group_6">
<path id="Vector_13" d="M46.5149 57.575C43.0004 53.6816 39.0909 61.7094 35.3555 57.575" stroke="#2F7E86" stroke-width="0.998947" stroke-miterlimit="10" stroke-linecap="round"/>
<path id="Vector_14" d="M46.5149 51.9195C43.0004 48.0274 39.0909 56.0577 35.3555 51.9195" stroke="#2F7E86" stroke-width="0.998947" stroke-miterlimit="10" stroke-linecap="round"/>
<path id="Vector_15" d="M46.5149 46.2624C43.0004 42.3703 39.0909 50.4006 35.3555 46.2624" stroke="#2F7E86" stroke-width="0.998947" stroke-miterlimit="10" stroke-linecap="round"/>
</g>
<g id="Group_7">
<path id="Vector_16" d="M35.0657 57.575C31.5512 53.6816 27.6417 61.7094 23.9062 57.575" stroke="#2F7E86" stroke-width="0.998947" stroke-miterlimit="10" stroke-linecap="round"/>
<path id="Vector_17" d="M35.0657 51.9195C31.5512 48.0273 27.6417 56.0577 23.9062 51.9195" stroke="#2F7E86" stroke-width="0.998947" stroke-miterlimit="10" stroke-linecap="round"/>
<path id="Vector_18" d="M35.0657 46.2624C31.5512 42.3703 27.6417 50.4006 23.9062 46.2624" stroke="#2F7E86" stroke-width="0.998947" stroke-miterlimit="10" stroke-linecap="round"/>
</g>
<g id="Group_8">
<path id="Vector_19" d="M23.6165 57.575C20.102 53.6816 16.1925 61.7094 12.457 57.575" stroke="#2F7E86" stroke-width="0.998947" stroke-miterlimit="10" stroke-linecap="round"/>
<path id="Vector_20" d="M23.6165 51.9195C20.102 48.0273 16.1925 56.0577 12.457 51.9195" stroke="#2F7E86" stroke-width="0.998947" stroke-miterlimit="10" stroke-linecap="round"/>
<path id="Vector_21" d="M23.6165 46.2624C20.102 42.3703 16.1925 50.4006 12.457 46.2624" stroke="#2F7E86" stroke-width="0.998947" stroke-miterlimit="10" stroke-linecap="round"/>
</g>
<g id="Group_9">
<path id="Vector_22" d="M12.1673 57.575C8.65276 53.6816 4.74328 61.7094 1.00781 57.575" stroke="#2F7E86" stroke-width="0.998947" stroke-miterlimit="10" stroke-linecap="round"/>
<path id="Vector_23" d="M12.1673 51.9195C8.65276 48.0273 4.74328 56.0577 1.00781 51.9195" stroke="#2F7E86" stroke-width="0.998947" stroke-miterlimit="10" stroke-linecap="round"/>
<path id="Vector_24" d="M12.1673 46.2624C8.65276 42.3703 4.74328 50.4006 1.00781 46.2624" stroke="#2F7E86" stroke-width="0.998947" stroke-miterlimit="10" stroke-linecap="round"/>
</g>
</g>
<g id="Group_10">
<path id="Vector_25" d="M53.3943 83.5976C53.3943 85.0028 52.5289 86.1429 51.4615 86.1429C50.3941 86.1429 49.5273 85.004 49.5273 83.5976V62.1571C49.5273 60.7532 50.3941 59.613 51.4615 59.613C52.5289 59.613 53.3943 60.7519 53.3943 62.1571V83.5976Z" fill="#FFDBAB"/>
<path id="Vector_26" d="M63.5649 83.5976C63.5649 85.0028 62.6995 86.1429 61.6334 86.1429C60.5633 86.1429 59.6992 85.004 59.6992 83.5976V62.1571C59.6992 60.7532 60.5633 59.613 61.6334 59.613C62.6995 59.613 63.5649 60.7519 63.5649 62.1571V83.5976Z" fill="#FFDBAB"/>
<path id="Vector_27" d="M68.8793 57.2423C68.8793 58.1085 68.1859 58.8086 67.3322 58.8086C66.4785 58.8086 65.7852 58.1072 65.7852 57.2423V44.6337C65.7852 43.7688 66.4772 43.0687 67.3322 43.0687C68.1846 43.0687 68.8793 43.7688 68.8793 44.6337V57.2423Z" fill="#FFDBAB"/>
<path id="Vector_28" d="M59.3179 42.5588C59.3179 43.4238 58.055 44.1238 56.4988 44.1238C54.9426 44.1238 53.6797 43.4225 53.6797 42.5588V29.9489C53.6797 29.084 54.9426 28.3827 56.4988 28.3827C58.055 28.3827 59.3179 29.084 59.3179 29.9489V42.5588Z" fill="#FFDBAB"/>
<path id="Vector_29" d="M60.1287 58.0606H57.7566H55.3324H52.9603H48.1641V72.4802H55.3324V70.1949H57.7566V72.4802H64.9249V58.0606H60.1287Z" fill="#397C41"/>
<path id="Vector_30" d="M65.101 25.6784C65.101 31.672 61.0425 36.7576 56.3244 36.7576C51.6076 36.7576 48.0156 31.6707 48.0156 25.6784C48.0156 19.6835 51.8396 15.9867 56.559 15.9867C61.2744 15.9867 65.101 19.6848 65.101 25.6784Z" fill="#FFDBAB"/>
<path id="Vector_31" d="M59.3208 21.7089C59.3208 21.7089 61.8245 23.979 64.985 23.979C64.3334 18.9936 60.8053 15.9867 56.5499 15.9867C51.8318 15.9867 48.0078 19.6848 48.0078 25.6784C48.0078 26.3962 48.0599 27.1014 48.159 27.7875C52.6907 27.7849 56.5056 24.7475 59.3208 21.7089Z" fill="#364549"/>
<path id="Vector_32" d="M69.7974 43.0645L69.7961 43.0632L69.7974 43.0645C69.7974 43.0328 69.7961 43.0011 69.7961 42.9693V42.9148V42.9135C69.6996 37.9612 64.9229 37.4995 64.9229 37.4995V37.5008C64.5136 37.5008 62.1494 37.4995 59.2091 37.4983C59.2091 37.5021 59.2091 37.5046 59.2091 37.5097C59.2091 38.9681 57.9931 40.1501 56.4968 40.1501C55.0006 40.1501 53.7846 38.9681 53.7846 37.5097C53.7846 37.5046 53.7846 37.4995 53.7846 37.4957C49.511 37.4919 45.6466 37.4894 45.6466 37.4894L44.8789 41.7442L48.205 41.9332H48.1724V58.8068H64.932V46.4265H69.7961L69.7974 43.0645Z" fill="#00262C"/>
<g id="Group_11">
<path id="Vector_33" d="M36.2282 86.8382C25.3401 86.8306 13.309 0.344503 36.2503 0.352112C59.1838 0.355917 47.1253 86.8382 36.2282 86.8382Z" fill="#FF8A3E"/>
<path id="Vector_34" d="M36.2417 0.352112L36.2227 86.8382" stroke="white" stroke-width="1.19041" stroke-miterlimit="10"/>
</g>
<path id="Vector_35" d="M81.6171 86.5608C81.6171 87.3375 80.3415 87.9662 78.7657 87.9662H14.9235C13.3477 87.9662 12.0703 87.3375 12.0703 86.5608V86.2011C12.0703 85.4252 13.3477 84.7957 14.9235 84.7957H78.7657C80.3415 84.7957 81.6171 85.4252 81.6171 86.2011V86.5608Z" fill="#F8972D"/>
<path id="Vector_36" d="M25.1118 41.4549C25.1118 42.4974 24.2464 43.3433 23.1737 43.3433C22.1037 43.3433 21.2344 42.4974 21.2344 41.4549V40.1601C21.2344 39.1164 22.1037 38.2704 23.1737 38.2704C24.2464 38.2704 25.1118 39.1164 25.1118 40.1601V41.4549Z" fill="#FFDBAB"/>
</g>
<g id="Group_12">
<g id="Group_13">
<path id="Vector_37" d="M61.3321 48.2335C61.3321 50.7953 59.1021 51.6158 56.4706 51.6158C53.8366 51.6158 51.7969 50.7953 51.7969 48.2335C51.7969 45.6704 53.9317 43.5944 56.5645 43.5944C59.1972 43.5944 61.3321 45.6704 61.3321 48.2335Z" fill="white" stroke="white" stroke-width="0.0520118" stroke-miterlimit="10"/>
<g id="Vector_38">
<path d="M53.5391 50.5808V52.8636C53.5391 52.8674 53.5391 52.8699 53.5391 52.8738C53.5391 53.4115 53.9874 53.8503 54.5413 53.8503C55.0965 53.8503 55.5449 53.4115 55.5449 52.8738C55.5449 52.8699 55.5449 52.8674 55.5449 52.8636H55.5462C55.5462 52.8674 55.5449 52.8699 55.5449 52.8738C55.5449 53.4115 55.9958 53.8503 56.5498 53.8503C57.105 53.8503 57.5533 53.4115 57.5533 52.8738C57.5533 52.8699 57.5533 52.8674 57.5533 52.8636H57.5546C57.5546 52.8674 57.5533 52.8699 57.5533 52.8738C57.5533 53.4115 58.0043 53.8503 58.5582 53.8503C59.1121 53.8503 59.5631 53.4115 59.5631 52.8738C59.5631 52.823 59.5566 52.7748 59.55 52.7266V50.5821" fill="white"/>
<path d="M53.5391 50.5808V52.8636C53.5391 52.8674 53.5391 52.8699 53.5391 52.8738C53.5391 53.4115 53.9874 53.8503 54.5413 53.8503C55.0965 53.8503 55.5449 53.4115 55.5449 52.8738C55.5449 52.8699 55.5449 52.8674 55.5449 52.8636H55.5462C55.5462 52.8674 55.5449 52.8699 55.5449 52.8738C55.5449 53.4115 55.9958 53.8503 56.5498 53.8503C57.105 53.8503 57.5533 53.4115 57.5533 52.8738C57.5533 52.8699 57.5533 52.8674 57.5533 52.8636H57.5546C57.5546 52.8674 57.5533 52.8699 57.5533 52.8738C57.5533 53.4115 58.0043 53.8503 58.5582 53.8503C59.1121 53.8503 59.5631 53.4115 59.5631 52.8738C59.5631 52.823 59.5566 52.7748 59.55 52.7266V50.5821" stroke="white" stroke-width="0.0520118" stroke-miterlimit="10"/>
</g>
</g>
<path id="Vector_39" d="M54.715 49.239C55.5478 49.239 56.223 48.5821 56.223 47.7717C56.223 46.9613 55.5478 46.3044 54.715 46.3044C53.8822 46.3044 53.207 46.9613 53.207 47.7717C53.207 48.5821 53.8822 49.239 54.715 49.239Z" fill="#397C41"/>
<path id="Vector_40" d="M58.4962 49.2391C59.3291 49.2391 60.0042 48.5822 60.0042 47.7718C60.0042 46.9614 59.3291 46.3044 58.4962 46.3044C57.6634 46.3044 56.9883 46.9614 56.9883 47.7718C56.9883 48.5822 57.6634 49.2391 58.4962 49.2391Z" fill="#397C41"/>
<path id="Vector_41" d="M56.5514 50.8163C56.8817 50.8163 57.1496 50.5557 57.1496 50.2342C57.1496 49.9127 56.8817 49.6521 56.5514 49.6521C56.221 49.6521 55.9531 49.9127 55.9531 50.2342C55.9531 50.5557 56.221 50.8163 56.5514 50.8163Z" fill="#397C41"/>
</g>
</g>
</svg>
