<svg width="80" height="90" viewBox="0 0 80 90" fill="none" xmlns="http://www.w3.org/2000/svg">
<g id="Group 647">
<path id="Vector" d="M74.5906 63.6157H5.40234V75.3755H74.5906V63.6157Z" fill="#364549"/>
<path id="Vector_2" d="M74.107 50.0855C74.137 50.1033 74.154 50.1148 74.154 50.1148L72.6475 44.401C72.6475 44.401 65.731 38.9886 39.9959 38.9886C14.2582 38.9886 6.4148 44.401 6.4148 44.401L3.13672 57.1763H75.9243L74.107 50.0855Z" fill="#C5D1D4"/>
<g id="Group">
<path id="Vector_3" d="M11.793 44.3511V31.0367C11.793 30.2102 12.4836 29.5332 13.3295 29.5332H66.6561C67.5008 29.5332 68.1927 30.2102 68.1927 31.0367V44.1327" fill="#364549"/>
</g>
<g id="Group_2">
<path id="Vector_4" d="M35.6768 39.7426C35.6768 41.4761 34.4718 42.8825 32.9914 42.8825H21.5174C20.0344 42.8825 18.832 41.4761 18.832 39.7426C18.832 38.0079 20.0344 36.6028 21.5174 36.6028H32.9914C34.4731 36.6015 35.6768 38.0079 35.6768 39.7426Z" fill="#E5E9EA"/>
<path id="Vector_5" d="M61.165 39.7426C61.165 41.4761 59.9601 42.8825 58.4796 42.8825H47.0057C45.5227 42.8825 44.3203 41.4761 44.3203 39.7426C44.3203 38.0079 45.5227 36.6028 47.0057 36.6028H58.4796C59.9601 36.6015 61.165 38.0079 61.165 39.7426Z" fill="#E5E9EA"/>
</g>
<path id="Vector_6" d="M74.1556 50.1148C74.1556 50.1148 65.7326 44.7012 39.9975 44.7012C14.2597 44.7012 5.03516 50.1148 5.03516 50.1148L6.41767 44.401C6.41767 44.401 14.261 38.9886 39.9988 38.9886C65.7339 38.9886 72.6504 44.401 72.6504 44.401L74.1556 50.1148Z" fill="#677D84"/>
<g id="Group_3">
<path id="Vector_7" d="M79.642 57.1743C79.5963 57.1743 78.8665 57.1743 78.0232 57.1743H75.8326C74.9892 57.1743 73.6041 57.1743 72.7594 57.1743H7.23562C6.39227 57.1743 5.00715 57.1743 4.1625 57.1743H1.80609C0.962746 57.1743 0.269531 57.8501 0.269531 58.6778V62.1102C0.269531 62.9367 0.269531 64.2895 0.269531 65.1172V80.4601C0.269531 81.2866 0.961441 81.9636 1.80609 81.9636H4.1625C5.00584 81.9636 5.69906 81.2879 5.69906 80.4601V65.1159C5.69906 64.2895 6.39097 63.6124 7.23562 63.6124H72.7594C73.6028 63.6124 74.296 64.2882 74.296 65.1159V80.4601C74.296 81.2866 74.9879 81.9636 75.8326 81.9636H78.189C79.0323 81.9636 79.7255 81.2879 79.7255 80.4601V58.6778C79.7255 57.8513 79.6877 57.1743 79.642 57.1743Z" fill="#677D84"/>
</g>
<g id="Group_4">
<path id="Vector_8" d="M68.1392 19.4923L68.1196 18.9367L64.9525 18.9252C64.4564 18.8805 63.818 18.731 63.3075 18.2545C62.5282 17.5251 62.7436 16.6693 63.3885 16.0829C63.9068 15.6116 64.7018 15.5924 65.2005 16.0829C65.6013 16.4738 65.506 17.4178 65.1078 17.8113C66.8833 17.1968 66.553 14.3163 64.0243 14.3163C60.6678 14.3163 58.6417 18.662 55.1796 18.9264H54.5412C54.0555 18.8805 53.4315 18.7272 52.9289 18.2558C52.1469 17.5264 52.3623 16.6705 53.0098 16.0842C53.5307 15.6128 54.3232 15.5937 54.8245 16.0842C55.2227 16.4751 55.126 17.4191 54.7292 17.8125C56.5046 17.1981 56.1757 14.3176 53.6443 14.3176C50.2474 14.3176 48.1887 18.7591 44.6469 18.9277H44.0751C43.5816 18.883 42.9432 18.7335 42.4354 18.2571C41.656 17.5277 41.8714 16.6718 42.5163 16.0855C43.0333 15.6141 43.827 15.595 44.3283 16.0855C44.7265 16.4764 44.6325 17.4204 44.233 17.8138C46.0111 17.1994 45.6782 14.3188 43.1482 14.3188C39.7539 14.3188 37.7082 18.7604 34.169 18.929H25.2773L33.5711 23.755H68.147V19.4949H68.1392V19.4923Z" fill="#79CFDC"/>
<path id="Vector_9" d="M11.793 18.6683C11.793 18.6683 13.0332 18.5674 19.092 18.5674C25.1546 18.5674 35.9484 20.3455 35.9484 23.9529H11.793V18.6683Z" fill="#FFE27D"/>
<g id="Group_5">
<path id="Vector_10" d="M25.5093 19.2482H24.4375L24.6346 6.55078H25.3109L25.5093 19.2482Z" fill="#644339"/>
<path id="Vector_11" d="M24.9761 6.53675C24.9917 6.6926 21.8573 10.171 21.4656 10.9604C20.5674 10.314 20.1797 6.24167 24.9761 6.53675Z" fill="#A2CF64"/>
<path id="Vector_12" d="M25.1756 6.58454C22.7735 6.24475 18.985 8.35375 17.4967 9.46892C17.0255 6.70589 21.8806 2.84558 25.1756 6.58454Z" fill="#53B94A"/>
<path id="Vector_13" d="M24.9141 6.5182C24.8985 6.67404 28.0329 10.1524 28.4246 10.9431C29.3201 10.2955 29.7105 6.22312 24.9141 6.5182Z" fill="#53B94A"/>
<path id="Vector_14" d="M24.7812 6.62389C27.1834 6.2841 30.9706 8.3931 32.4588 9.50827C32.9288 6.74525 28.0737 2.88621 24.7812 6.62389Z" fill="#A2CF64"/>
<path id="Vector_15" d="M25.186 7.67737C25.4095 7.67737 25.5907 7.50007 25.5907 7.28137C25.5907 7.06267 25.4095 6.88538 25.186 6.88538C24.9624 6.88538 24.7812 7.06267 24.7812 7.28137C24.7812 7.50007 24.9624 7.67737 25.186 7.67737Z" fill="#B1A09C"/>
<path id="Vector_16" d="M24.7773 7.37012C25.0513 7.37012 25.2734 7.15279 25.2734 6.88471C25.2734 6.61662 25.0513 6.39929 24.7773 6.39929C24.5034 6.39929 24.2812 6.61662 24.2812 6.88471C24.2812 7.15279 24.5034 7.37012 24.7773 7.37012Z" fill="#836860"/>
</g>
<g id="Group_6">
<path id="Vector_17" d="M18.869 20.9489H18.168L18.2998 12.656H18.7398L18.869 20.9489Z" fill="#644339"/>
<path id="Vector_18" d="M18.5247 12.6473C18.5326 12.7495 16.4842 15.022 16.2284 15.5381C15.6448 15.1153 15.3889 12.4557 18.5247 12.6473Z" fill="#A2CF64"/>
<path id="Vector_19" d="M18.6497 12.6784C17.0818 12.4574 14.6066 13.8345 13.634 14.5626C13.3272 12.7576 16.4982 10.2373 18.6497 12.6784Z" fill="#53B94A"/>
<path id="Vector_20" d="M18.4805 12.6341C18.4727 12.7363 20.5197 15.0076 20.7755 15.5236C21.3604 15.0995 21.6137 12.4413 18.4805 12.6341Z" fill="#53B94A"/>
<path id="Vector_21" d="M18.3906 12.7086C19.9585 12.4876 22.4363 13.8633 23.405 14.5915C23.7105 12.7865 20.5434 10.2662 18.3906 12.7086Z" fill="#A2CF64"/>
<path id="Vector_22" d="M18.66 13.3943C18.8066 13.3943 18.9255 13.2778 18.9255 13.1341C18.9255 12.9904 18.8066 12.8739 18.66 12.8739C18.5134 12.8739 18.3945 12.9904 18.3945 13.1341C18.3945 13.2778 18.5134 13.3943 18.66 13.3943Z" fill="#B1A09C"/>
<path id="Vector_23" d="M18.3904 13.1957C18.5694 13.1957 18.7145 13.0535 18.7145 12.878C18.7145 12.7026 18.5694 12.5604 18.3904 12.5604C18.2115 12.5604 18.0664 12.7026 18.0664 12.878C18.0664 13.0535 18.2115 13.1957 18.3904 13.1957Z" fill="#836860"/>
</g>
<g id="Group_7">
<path id="Vector_24" d="M31.87 21.6796H31.2734L31.3844 14.6002H31.7591L31.87 21.6796Z" fill="#644339"/>
<path id="Vector_25" d="M31.5716 14.5926C31.5794 14.6795 29.8314 16.6199 29.6134 17.0606C29.1147 16.6991 28.8967 14.4291 31.5716 14.5926Z" fill="#A2CF64"/>
<path id="Vector_26" d="M31.6801 14.6185C30.3407 14.4307 28.2284 15.6047 27.4007 16.2268C27.137 14.6862 29.8446 12.5338 31.6801 14.6185Z" fill="#53B94A"/>
<path id="Vector_27" d="M31.5352 14.5766C31.5248 14.6635 33.2728 16.6039 33.4908 17.0446C33.9921 16.6844 34.2075 14.4131 31.5352 14.5766Z" fill="#53B94A"/>
<path id="Vector_28" d="M31.457 14.6398C32.7965 14.4507 34.9087 15.6259 35.7364 16.2468C35.9988 14.7075 33.2925 12.5551 31.457 14.6398Z" fill="#A2CF64"/>
<path id="Vector_29" d="M31.6859 15.2298C31.8101 15.2298 31.9108 15.131 31.9108 15.0093C31.9108 14.8875 31.8101 14.7888 31.6859 14.7888C31.5616 14.7888 31.4609 14.8875 31.4609 15.0093C31.4609 15.131 31.5616 15.2298 31.6859 15.2298Z" fill="#B1A09C"/>
<path id="Vector_30" d="M31.4593 15.0556C31.6115 15.0556 31.735 14.9346 31.735 14.7854C31.735 14.6361 31.6115 14.5151 31.4593 14.5151C31.307 14.5151 31.1836 14.6361 31.1836 14.7854C31.1836 14.9346 31.307 15.0556 31.4593 15.0556Z" fill="#836860"/>
</g>
<path id="Vector_31" d="M68.1914 0.521484H11.793V23.9504H68.1914V0.521484Z" stroke="#677D84" stroke-width="0.470371" stroke-miterlimit="10"/>
<path id="Vector_32" d="M59.4696 9.10147C61.0212 9.10147 62.279 7.87071 62.279 6.35249C62.279 4.83427 61.0212 3.60352 59.4696 3.60352C57.918 3.60352 56.6602 4.83427 56.6602 6.35249C56.6602 7.87071 57.918 9.10147 59.4696 9.10147Z" fill="#FCEC31"/>
</g>
<g id="Group_8">
<path id="Vector_33" d="M2.7774 83.891C-1.02158 75.7897 62.3155 36.4636 70.3247 53.5246C78.3352 70.5779 6.5842 91.9923 2.7774 83.891Z" fill="#FFE27D"/>
<path id="Vector_34" d="M70.3247 53.5243L2.77734 83.892" stroke="white" stroke-width="0.993952" stroke-miterlimit="10"/>
</g>
<g id="Group_9">
<path id="Vector_35" d="M8.13592 85.8339C6.46881 77.541 73.7863 55.0063 77.3073 72.4748C80.8308 89.9395 9.81348 94.1307 8.13592 85.8339Z" fill="#FF8A3E"/>
<path id="Vector_36" d="M77.3081 72.4723L8.13672 85.8314" stroke="white" stroke-width="0.942739" stroke-miterlimit="10"/>
</g>
</g>
</svg>
