<svg width="146" height="78" viewBox="0 0 146 78" fill="none" xmlns="http://www.w3.org/2000/svg">
<g id="Group 743">
<g id="Group 684">
<path id="Vector" d="M116.443 3.06531H32.4453V67.991H116.443V3.06531Z" fill="#E4F6FC"/>
<g id="Group">
<g id="Group_2">
<g id="Group_3">
<path id="Vector_2" d="M28.1033 33.6179C27.9738 34.6666 28.7917 35.5257 29.9235 35.5257H53.0341C54.1658 35.5257 55.0883 34.6623 55.0883 33.6063V23.8673C55.0883 22.8113 55.7065 21.3046 56.4636 20.5213L72.506 3.86729C73.2615 3.08257 72.9571 2.4408 71.8254 2.4408H33.9836C32.8519 2.4408 31.8232 3.29844 31.6936 4.34862L28.1033 33.6179Z" fill="#0A4D53"/>
</g>
<g id="Group_4">
<path id="Vector_3" d="M119.047 35.5272C120.179 35.5272 120.997 34.6696 120.867 33.6194L117.275 4.34862C117.146 3.2999 116.117 2.4408 114.985 2.4408H75.9434C74.8116 2.4408 74.5072 3.08257 75.2628 3.86729L91.3083 20.5213C92.0638 21.3061 92.6835 22.8113 92.6835 23.8673V33.6063C92.6835 34.6623 93.6076 35.5257 94.7378 35.5257H119.047V35.5272Z" fill="#0A4D53"/>
</g>
</g>
</g>
<path id="Vector_4" d="M54.0703 22.9159L73.5754 1.6521L93.0819 22.9159" stroke="#2F7E86" stroke-width="1.09524" stroke-miterlimit="10" stroke-linecap="round" stroke-linejoin="round"/>
<path id="Vector_5" d="M63.9219 67.9811C63.9219 59.6978 64.8678 45.9507 74.4274 45.9507C83.987 45.9507 84.9345 59.6978 84.9345 67.9811H63.9219Z" fill="#13858F"/>
<g id="Group_5">
<path id="Vector_6" d="M93.7204 60.3296C93.7204 56.1026 92.8104 45.576 99.5929 45.576C106.382 45.576 105.467 56.1012 105.467 60.3296H93.7204Z" fill="white" stroke="#13858F" stroke-width="0.042683" stroke-miterlimit="10"/>
<g id="Group_6">
<g id="Group_7">
<path id="Vector_7" d="M99.5781 45.569V60.2437" stroke="#13858F" stroke-width="0.213455" stroke-miterlimit="10" stroke-linecap="round"/>
<path id="Vector_8" d="M92.9688 52.9836H106.039" stroke="#13858F" stroke-width="0.213455" stroke-miterlimit="10" stroke-linecap="round"/>
<path id="Vector_9" d="M92.9688 56.9982H106.039" stroke="#13858F" stroke-width="0.213455" stroke-miterlimit="10" stroke-linecap="round"/>
<path id="Vector_10" d="M94.1367 48.9562H104.88" stroke="#13858F" stroke-width="0.213455" stroke-miterlimit="10" stroke-linecap="round"/>
</g>
<path id="Vector_11" d="M93.7165 60.3233C93.7165 56.0964 92.8065 45.5698 99.589 45.5698C106.378 45.5698 105.463 56.0949 105.463 60.3233H93.7165Z" stroke="#13858F" stroke-width="0.128089" stroke-miterlimit="10"/>
</g>
</g>
<g id="Group_8">
<path id="Vector_12" d="M43.404 60.3237C43.404 56.0968 42.494 45.5702 49.2765 45.5702C56.0653 45.5702 55.149 56.0953 55.149 60.3237H43.404Z" fill="white" stroke="#13858F" stroke-width="0.042683" stroke-miterlimit="10"/>
<g id="Group_9">
<path id="Vector_13" d="M49.2695 45.5713V60.2461" stroke="#13858F" stroke-width="0.213455" stroke-miterlimit="10" stroke-linecap="round"/>
<path id="Vector_14" d="M42.6641 52.986H55.7327" stroke="#13858F" stroke-width="0.213455" stroke-miterlimit="10" stroke-linecap="round"/>
<path id="Vector_15" d="M42.6641 57.0005H55.7327" stroke="#13858F" stroke-width="0.213455" stroke-miterlimit="10" stroke-linecap="round"/>
<path id="Vector_16" d="M43.8281 48.9585H54.5709" stroke="#13858F" stroke-width="0.213455" stroke-miterlimit="10" stroke-linecap="round"/>
<path id="Vector_17" d="M43.4079 60.3248C43.4079 56.0978 42.4979 45.5713 49.2804 45.5713C56.0692 45.5713 55.1529 56.0964 55.1529 60.3248H43.4079Z" stroke="#13858F" stroke-width="0.128089" stroke-miterlimit="10"/>
</g>
</g>
<path id="Vector_18" d="M74.3928 33.7278C78.4326 33.7278 81.7075 30.6678 81.7075 26.893C81.7075 23.1183 78.4326 20.0582 74.3928 20.0582C70.353 20.0582 67.0781 23.1183 67.0781 26.893C67.0781 30.6678 70.353 33.7278 74.3928 33.7278Z" fill="#B3EBF1" stroke="white" stroke-width="0.462412" stroke-miterlimit="10" stroke-linecap="round"/>
<path id="Vector_19" d="M80.5499 62.9009C81.4922 62.9009 82.2561 62.1871 82.2561 61.3066C82.2561 60.4262 81.4922 59.7124 80.5499 59.7124C79.6076 59.7124 78.8438 60.4262 78.8438 61.3066C78.8438 62.1871 79.6076 62.9009 80.5499 62.9009Z" fill="white"/>
</g>
<g id="Group 687">
<g id="Group 686">
<path id="Vector_20" d="M23.5294 21.8389C28.8918 32.4896 36.3028 56.7449 33.288 73.0026L40.3884 72.6116C41.6208 51.9692 31.0387 31.8438 25.6795 21.1929" fill="#644339"/>
<path id="Vector_21" d="M25.6879 23.4839C26.7387 23.537 27.6142 22.7607 27.6433 21.7501C27.6724 20.7395 26.8441 19.8773 25.7933 19.8242C24.7425 19.7712 23.867 20.5474 23.8379 21.558C23.8088 22.5686 24.6371 23.4309 25.6879 23.4839Z" fill="#808285"/>
<path id="Vector_22" d="M21.5478 23.5826C22.5122 23.6313 23.3156 22.9189 23.3423 21.9915C23.369 21.064 22.6089 20.2727 21.6446 20.224C20.6802 20.1753 19.8768 20.8877 19.8501 21.8151C19.8234 22.7426 20.5835 23.5339 21.5478 23.5826Z" fill="#58595B"/>
<path id="Vector_23" d="M23.1179 22.183C24.306 22.243 25.2958 21.3654 25.3287 20.2228C25.3616 19.0802 24.4252 18.1054 23.2371 18.0454C22.049 17.9854 21.0593 18.863 21.0263 20.0056C20.9934 21.1482 21.9299 22.123 23.1179 22.183Z" fill="#D1D3D4"/>
<path id="Vector_24" d="M23.632 17.6594C23.632 17.6594 18.3849 12.849 13.3288 13.311C7.65109 13.8281 3.84959 17.9315 2.28686 20.0674C4.36246 19.4047 6.31662 18.8905 6.31662 18.8905L5.77941 20.5582C5.77941 20.5582 8.85087 19.0224 9.62413 18.7082C10.397 18.3888 9.00736 21.0654 9.00736 21.0654C9.00736 21.0654 12.0577 19.2573 13.4521 18.3588C14.8433 17.4622 14.1982 19.411 14.1982 19.411C14.1982 19.411 15.9636 18.2187 16.984 17.6193C17.9991 17.0167 18.2895 19.0505 18.2895 19.0505C18.2895 19.0505 20.1818 17.7146 20.7007 17.5493C21.2214 17.3857 23.632 17.6594 23.632 17.6594Z" fill="#39B54A"/>
<path id="Vector_25" d="M22.335 17.7027C22.335 17.7027 15.4412 20.3004 14.1863 25.1604C12.778 30.6131 15.7316 36.9752 17.1267 39.2156C17.2203 37.0476 17.7184 34.2162 17.7184 34.2162L18.7971 36.3485C18.7971 36.3485 17.9141 32.2719 17.888 31.4379C17.8604 30.6058 19.9205 33.1781 19.9205 33.1781C19.9205 33.1781 19.4959 29.2254 19.1508 27.6004C18.8107 25.9767 20.6086 28.6438 20.6086 28.6438C20.6086 28.6438 19.4564 25.0574 19.252 23.8934C19.0489 22.726 21.0711 24.5872 21.0711 24.5872C21.0711 24.5872 20.1872 21.6725 20.2106 21.1305C20.232 20.5836 22.335 17.7027 22.335 17.7027Z" fill="#39B54A"/>
<path id="Vector_26" d="M23.1265 17.6192C23.1265 17.6192 16.0854 15.4955 12.216 18.6863C8.34326 21.8773 5.48623 29.1676 6.57483 32.5153C7.22213 31.4665 7.44361 29.5647 8.3102 27.7731L9.10593 31.0387C9.10593 31.0387 10.726 27.0201 11.253 26.3772C11.7751 25.7362 11.9958 29.1432 11.9958 29.1432C11.9958 29.1432 12.8503 24.6556 13.6473 23.2129C14.4428 21.772 14.7742 23.7823 14.7742 23.7823C14.7742 23.7823 16.2683 20.6064 17.344 20.4004C18.4968 20.1749 19.1316 21.3616 19.1316 21.3616C19.1316 21.3616 20.161 19.2989 20.5356 18.9113C20.9099 18.5187 23.1265 17.6192 23.1265 17.6192Z" fill="#00A651"/>
<path id="Vector_27" d="M22.3003 17.5265C22.3003 17.5265 25.0486 11.0726 29.8543 9.49106C35.2468 7.71344 40.4491 9.93715 42.7807 11.2604C40.6077 11.48 38.6078 11.7848 38.6078 11.7848L39.8026 13.0896C39.8026 13.0896 36.3488 12.9107 35.511 12.931C34.6729 12.9478 37.0747 14.8274 37.0747 14.8274C37.0747 14.8274 33.5236 14.3919 31.8732 14.1293C30.2261 13.8648 31.6424 15.3798 31.6424 15.3798C31.6424 15.3798 29.5236 14.9982 28.3432 14.8528C27.1613 14.7093 27.753 16.673 27.753 16.673C27.753 16.673 25.4645 16.2077 24.9237 16.2616C24.3848 16.3188 22.3003 17.5265 22.3003 17.5265Z" fill="#00A651"/>
<path id="Vector_28" d="M21.8879 17.5033C21.8879 17.5033 28.9668 15.9831 32.7183 19.4821C36.4696 22.9777 39.6293 29.3325 37.5172 34.5377C37.1012 32.7841 35.5944 31.2149 35.0471 29.9534C35.0471 29.9534 35.0115 31.1491 34.4455 32.729C33.894 31.0149 33.93 27.8863 33.4284 27.2032C32.9271 26.5235 32.7687 28.6334 31.8222 29.1835C31.7261 26.7475 31.8916 25.3595 31.1449 23.8581C30.3982 22.3567 29.5544 24.9199 29.5544 24.9199C29.5544 24.9199 28.6183 21.0481 27.5563 20.7509C26.4141 20.4329 25.742 21.5589 25.742 21.5589C25.742 21.5589 24.7832 19.4243 24.4262 19.0061C24.0671 18.5829 21.8879 17.5033 21.8879 17.5033Z" fill="#00A651"/>
<path id="Vector_29" d="M22.3362 17.1696C22.3362 17.1696 27.7692 12.9904 32.7182 14.3391C37.6655 15.6879 42.554 21.3228 42.736 23.6439C40.1972 22.1391 39.2655 21.7407 39.2655 21.7407C39.2655 21.7407 40.2438 23.5687 39.4766 23.1476C38.4076 22.562 37.1214 21.455 36.0571 20.5649C34.9915 19.6799 36.1571 22.7196 36.1571 22.7196C36.1571 22.7196 33.58 20.2974 32.5954 19.6097C31.6156 18.9183 31.513 20.139 31.8163 20.6642C32.121 21.1875 30.4562 19.3869 29.6601 18.5538C28.8657 17.7207 27.8157 17.0348 28.087 17.9668C28.3598 18.8969 27.0474 18.2272 26.2174 17.7976C25.3876 17.3697 23.947 17.4231 22.9954 17.3915" fill="#39B54A"/>
</g>
<g id="Group_10">
<path id="Vector_30" d="M40.2036 74.5736C36.8171 76.0595 20.7492 50.4723 27.8859 47.3406C35.0211 44.2103 43.5931 73.0877 40.2036 74.5736Z" fill="#FF8A3E"/>
<path id="Vector_31" d="M27.8906 47.3379L40.2084 74.5695" stroke="white" stroke-width="0.219048" stroke-miterlimit="10"/>
</g>
<g id="Group_11">
<path id="Vector_32" d="M39.9423 74.783C36.0903 73.8742 37.1763 45.9716 45.2897 47.8802C53.3984 49.7878 43.7966 75.688 39.9423 74.783Z" fill="#EA7000"/>
<path id="Vector_33" d="M45.502 48.2307L39.8319 74.7741" stroke="white" stroke-width="0.2056" stroke-miterlimit="10"/>
</g>
</g>
<g id="Group 685">
<g id="Group 688">
<path id="Vector_34" d="M121.472 14.9308C122.833 14.9128 123.942 13.8211 123.948 12.4926C123.954 11.164 122.856 10.1016 121.495 10.1197C120.134 10.1377 119.026 11.2294 119.02 12.5579C119.013 13.8865 120.111 14.9489 121.472 14.9308Z" fill="#D1D3D4"/>
<path id="Vector_35" d="M121.308 15.0984C115.88 27.8393 111.527 56.3553 116.901 74.7556L108.203 74.9693C104.545 51.3601 113.196 27.2962 118.617 14.5555" fill="#644339"/>
<path id="Vector_36" d="M118.469 16.0524C119.682 16.0223 120.659 15.046 120.65 13.8718C120.641 12.6975 119.649 11.77 118.436 11.8C117.222 11.8301 116.246 12.8064 116.255 13.9806C116.264 15.1549 117.255 16.0824 118.469 16.0524Z" fill="#808285"/>
<path id="Vector_37" d="M124.577 15.7739C125.693 15.7463 126.59 14.849 126.582 13.7697C126.574 12.6905 125.663 11.838 124.547 11.8656C123.432 11.8932 122.534 12.7906 122.542 13.8698C122.551 14.9491 123.462 15.8016 124.577 15.7739Z" fill="#58595B"/>
<path id="Vector_38" d="M119.936 10.7456C119.936 10.7456 125.576 5.12124 131.512 5.17712C138.176 5.23972 143.011 9.31455 145.041 11.4717C142.559 10.9445 140.23 10.5578 140.23 10.5578L141.02 12.3024C141.02 12.3024 137.292 10.9192 136.356 10.6499C135.424 10.3774 137.309 13.1257 137.309 13.1257C137.309 13.1257 133.575 11.4512 131.862 10.6094C130.153 9.76914 131.098 11.8031 131.098 11.8031C131.098 11.8031 128.921 10.6793 127.676 10.1227C126.434 9.56126 126.294 11.7716 126.294 11.7716C126.294 11.7716 123.958 10.5042 123.338 10.3716C122.715 10.239 119.936 10.7456 119.936 10.7456Z" fill="#39B54A"/>
<path id="Vector_39" d="M121.293 10.9354C121.293 10.9354 129.798 13.2701 131.802 18.7053C134.048 24.8077 131.177 32.3508 129.74 35.04C129.403 32.5682 128.516 29.3775 128.516 29.3775L127.448 31.9155C127.448 31.9155 128.084 27.1771 128.029 26.2197C127.977 25.2656 125.779 28.3977 125.779 28.3977C125.779 28.3977 125.88 23.8409 126.123 21.9537C126.362 20.0633 124.49 23.2797 124.49 23.2797C124.49 23.2797 125.496 19.0749 125.62 17.7237C125.74 16.3726 123.517 18.6836 123.517 18.6836C123.517 18.6836 124.271 15.2705 124.188 14.6538C124.105 14.037 121.293 10.9354 121.293 10.9354Z" fill="#39B54A"/>
<path id="Vector_40" d="M120.427 11.0147C120.427 11.0147 128.471 7.99722 133.337 11.2222C138.201 14.4472 142.294 22.3519 141.358 26.2005C140.489 25.0813 140.037 22.9697 138.841 21.0448L138.237 24.7725C138.237 24.7725 135.927 20.4173 135.245 19.7462C134.568 19.0749 134.652 22.9098 134.652 22.9098C134.652 22.9098 133.196 17.96 132.115 16.4163C131.035 14.8741 130.851 17.155 130.851 17.155C130.851 17.155 128.774 13.7338 127.49 13.5988C126.115 13.4529 125.49 14.8394 125.49 14.8394C125.49 14.8394 124.072 12.6242 123.595 12.2209C123.118 11.8225 120.427 11.0147 120.427 11.0147Z" fill="#00A651"/>
<path id="Vector_41" d="M122.055 9.52334C122.055 9.52334 115.294 5.41331 109.644 7.33472C104 9.25434 98.8566 15.8813 98.8765 18.4437C101.69 16.5653 102.737 16.0461 102.737 16.0461C102.737 16.0461 101.777 18.1369 102.631 17.611C103.823 16.8713 105.213 15.5391 106.369 14.4716C107.523 13.4025 106.467 16.8476 106.467 16.8476C106.467 16.8476 109.234 13.9568 110.315 13.1129C111.393 12.2707 111.634 13.6006 111.331 14.2021C111.024 14.8038 112.792 12.6804 113.636 11.6917C114.48 10.7063 115.639 9.8605 115.416 10.907C115.189 11.9535 116.656 11.1003 117.584 10.5548C118.509 10.0142 120.196 9.94409 121.307 9.82321" fill="#39B54A"/>
<path id="Vector_42" d="M122.101 9.47094C122.101 9.47094 118.258 2.74009 112.501 1.45112C106.036 0.000733621 100.193 2.85852 97.6066 4.49305C100.162 4.54124 102.523 4.69364 102.523 4.69364L101.259 6.20985C101.259 6.20985 105.265 5.7125 106.245 5.66015C107.223 5.60949 104.611 7.84867 104.611 7.84867C104.611 7.84867 108.708 7.06641 110.604 6.63715C112.497 6.21118 110.998 7.96915 110.998 7.96915C110.998 7.96915 113.43 7.37448 114.792 7.1122C116.154 6.85153 115.658 9.0257 115.658 9.0257C115.658 9.0257 118.28 8.32528 118.918 8.33573C119.553 8.34947 122.101 9.47094 122.101 9.47094Z" fill="#00A651"/>
<path id="Vector_43" d="M122.625 9.93988C122.625 9.93988 114.125 8.86739 110.061 13.1637C105.995 17.4568 102.921 24.9293 105.939 30.6157C106.252 28.5972 107.868 26.6859 108.383 25.2106C108.383 25.2106 108.548 26.5574 109.376 28.2948C109.851 26.3051 109.489 22.7736 110.008 21.9547C110.531 21.1391 110.934 23.5108 112.106 24.0463C111.971 21.2823 111.633 19.7313 112.36 17.9652C113.087 16.2023 114.344 19.0189 114.344 19.0189C114.344 19.0189 115.052 14.5581 116.276 14.1256C117.587 13.6613 118.496 14.8714 118.496 14.8714C118.496 14.8714 119.406 12.3736 119.785 11.8668C120.165 11.3584 122.625 9.93988 122.625 9.93988Z" fill="#00A651"/>
</g>
<g id="Group_12">
<path id="Vector_44" d="M108.346 75.6992C112.42 75.6231 113.048 45.6699 104.468 45.8211C95.8903 45.9746 104.27 75.7692 108.346 75.6992Z" fill="#FF8A3E"/>
<path id="Vector_45" d="M104.32 45.7299L108.344 75.7501" stroke="white" stroke-width="0.160577" stroke-miterlimit="10"/>
</g>
<g id="Group_13">
<path id="Vector_46" d="M108.849 75.8019C112.238 76.7557 124.537 50.8708 117.399 48.8579C110.267 46.8448 105.46 74.8442 108.849 75.8019Z" fill="#FFE27D"/>
<path id="Vector_47" d="M118.021 48.8507L109.438 75.8339" stroke="white" stroke-width="0.15062" stroke-miterlimit="10"/>
</g>
</g>
</g>
</svg>
