<svg width="106" height="79" viewBox="0 0 106 79" fill="none" xmlns="http://www.w3.org/2000/svg">
<g id="Group">
<g id="Group_2">
<path id="Vector" d="M37.7508 45.2301H32.8398L33.7508 7.82715H36.8473L37.7508 45.2301Z" fill="#644339"/>
<path id="Vector_2" d="M35.297 7.74643C35.3581 8.49838 21.0178 25.3129 19.2234 29.1293C15.1237 26.0017 13.343 6.32494 35.297 7.74643Z" fill="#A2CF64"/>
<path id="Vector_3" d="M36.206 7.98676C25.2128 6.34767 7.8756 16.535 1.07556 21.9222C-1.08021 8.57261 21.1342 -10.0767 36.206 7.98676Z" fill="#53B94A"/>
<path id="Vector_4" d="M35.0119 7.65582C34.9496 8.40648 49.2899 25.2184 51.0843 29.0374C55.1827 25.906 56.9659 6.23176 35.0119 7.65582Z" fill="#53B94A"/>
<path id="Vector_5" d="M34.3789 8.17302C45.3659 6.53522 62.7093 16.7213 69.5068 22.1085C71.6601 8.75887 49.4506 -9.88915 34.3789 8.17302Z" fill="#A2CF64"/>
<path id="Vector_6" d="M38.1005 11.3629C38.1005 12.4213 37.2706 13.2789 36.25 13.2789C35.222 13.2789 34.3945 12.42 34.3945 11.3629C34.3945 10.3058 35.222 9.4483 36.25 9.4483C37.2706 9.4483 38.1005 10.3058 38.1005 11.3629Z" fill="#B1A09C"/>
<path id="Vector_7" d="M34.3814 11.7714C35.6318 11.7714 36.6456 10.7239 36.6456 9.43182C36.6456 8.13973 35.6318 7.09229 34.3814 7.09229C33.1309 7.09229 32.1172 8.13973 32.1172 9.43182C32.1172 10.7239 33.1309 11.7714 34.3814 11.7714Z" fill="#836860"/>
</g>
<g id="Group_3">
<path id="Vector_8" d="M55.9273 43.2238C56.3423 43.6487 56.4457 44.2371 56.1578 44.5397C55.8725 44.841 55.298 44.7432 54.8818 44.317L50.2413 39.5748C49.8251 39.1512 49.7242 38.5615 50.0095 38.2615C50.3024 37.9615 50.8693 38.0606 51.2855 38.4855L55.9273 43.2238Z" fill="#364549"/>
<path id="Vector_9" d="M46.4809 49.1636C46.6928 49.3528 47.1189 49.1945 47.4392 48.8146L53.0566 42.2982C53.3781 41.9171 52.6056 41.2295 52.2878 41.6119L46.6741 48.1271C46.3513 48.5095 46.2678 48.9756 46.4809 49.1636Z" fill="#364549"/>
</g>
<path id="Vector_10" d="M85.6099 46.1602V27.8019C85.6099 26.0907 84.1694 24.7053 82.3899 24.7053H49.7393C47.9574 24.7053 46.5156 26.092 46.5156 27.8019V46.1602" stroke="#C5D1D4" stroke-width="1.81495" stroke-miterlimit="10"/>
<path id="Vector_11" d="M54.7422 49.8424V52.0686H65.3341C66.4918 52.0686 67.4301 51.0759 67.4301 49.8424C67.4301 48.6114 66.4918 47.6161 65.3341 47.6161H56.8344C55.6805 47.6161 54.7422 48.6127 54.7422 49.8424Z" fill="#364549"/>
<g id="Group_4">
<path id="Vector_12" d="M19.7266 41.9224C19.7266 42.888 20.4904 43.6773 21.4238 43.6773H46.5554C47.4887 43.6773 48.2526 42.888 48.2526 41.9224V40.6902C48.2526 39.7245 47.4887 38.9352 46.5554 38.9352H21.4238C20.4904 38.9352 19.7266 39.7245 19.7266 40.6902V41.9224Z" fill="#C5D1D4"/>
</g>
<path id="Vector_13" d="M70.1102 34.8302C68.1763 34.4671 66.3507 35.6105 66.0392 37.3835L63.7414 50.4009C63.4286 52.1713 64.742 53.907 66.676 54.2739C68.6187 54.6358 70.438 53.4963 70.752 51.7258L73.0548 38.7032C73.3676 36.9302 72.0455 35.1959 70.1102 34.8302Z" fill="#364549"/>
<path id="Vector_14" d="M98.8055 61.3113L101.142 61.3087V48.8771H95.6092V43.1641H68.4651V52.0729H48.328L48.308 42.8409H19.0942L16.0798 45.9556H9.01562V61.3036L11.2624 61.301C12.4611 54.903 17.9091 50.072 24.455 50.072C30.9921 50.072 36.4475 54.9056 37.6388 61.3036L72.4253 61.3061C73.6203 54.9056 79.0721 50.072 85.6117 50.072C92.1575 50.072 97.6067 54.9081 98.8055 61.3113Z" fill="#397C41"/>
<path id="Vector_15" d="M7.03125 57.9283C7.03125 58.8386 7.91599 59.5803 9.01257 59.5803C10.1042 59.5803 10.9926 58.8386 10.9926 57.9283V50.2453C10.9926 49.3337 10.1042 48.5908 9.01257 48.5908C7.91599 48.5908 7.03125 49.3324 7.03125 50.2453V57.9283Z" fill="#364549"/>
<path id="Vector_16" d="M13.7148 63.9482C13.7148 70.0771 18.5211 75.0407 24.4526 75.0407C30.3741 75.0407 35.1841 70.0771 35.1841 63.9482C35.1841 57.8271 30.3741 52.8583 24.4526 52.8583C18.5211 52.857 13.7148 57.8271 13.7148 63.9482Z" fill="#364549"/>
<path id="Vector_17" d="M19.7266 63.9513C19.7266 66.65 21.845 68.8376 24.4568 68.8376C27.0599 68.8376 29.1821 66.65 29.1821 63.9513C29.1821 61.2551 27.0599 59.0752 24.4568 59.0752C21.845 59.0739 19.7266 61.2551 19.7266 63.9513Z" fill="white"/>
<path id="Vector_18" d="M74.8789 63.9482C74.8789 70.0771 79.6864 75.0407 85.6092 75.0407C91.5419 75.0407 96.3457 70.0771 96.3457 63.9482C96.3457 57.8271 91.5419 52.8583 85.6092 52.8583C79.6864 52.857 74.8789 57.8271 74.8789 63.9482Z" fill="#364549"/>
<path id="Vector_19" d="M80.8867 63.9513C80.8867 66.6501 83.0001 68.8377 85.6082 68.8377C88.2226 68.8377 90.3372 66.6501 90.3372 63.9513C90.3372 61.2551 88.2226 59.0753 85.6082 59.0753C83.0001 59.074 80.8867 61.2551 80.8867 63.9513Z" fill="white"/>
<g id="Group_5">
<path id="Vector_20" d="M98.4528 48.695C94.2298 52.1753 62.0539 20.4172 70.9499 13.0818C79.8409 5.74907 102.675 45.2082 98.4528 48.695Z" fill="#FF8A3E"/>
<path id="Vector_21" d="M70.9492 13.0819L98.4534 48.6938" stroke="white" stroke-width="0.617682" stroke-miterlimit="10"/>
</g>
<g id="Group_6">
<path id="Vector_22" d="M99.3337 49.5527C94.9324 51.466 74.9211 16.4889 84.1859 12.4498C93.4495 8.41192 103.734 47.6329 99.3337 49.5527Z" fill="#FFE27D"/>
<path id="Vector_23" d="M84.1836 12.4512L99.3326 49.5541" stroke="white" stroke-width="0.545891" stroke-miterlimit="10"/>
</g>
<path id="Vector_24" d="M105.554 77.1583C105.554 77.6811 103.169 78.106 100.227 78.106H14.1034C11.1638 78.106 8.78125 77.6811 8.78125 77.1583V75.8025C8.78125 75.2798 11.1638 74.8549 14.1034 74.8549H100.226C103.168 74.8549 105.553 75.2798 105.553 75.8025V77.1583H105.554Z" fill="#FBB040"/>
</g>
</svg>
