<svg width="114" height="88" viewBox="0 0 114 88" fill="none" xmlns="http://www.w3.org/2000/svg">
<g id="Group">
<path id="Vector" d="M73.5006 21.6087C73.6525 21.6087 73.7984 21.6194 73.9414 21.6368C74.0785 19.5033 76.0289 17.8099 78.4141 17.8099C80.3512 17.8099 82.0024 18.9268 82.6259 20.4905C82.6893 20.4878 82.7542 20.4851 82.8191 20.4851C84.8402 20.4851 86.4766 21.9712 86.4766 23.805C86.4766 25.6161 84.8785 27.0874 82.8928 27.1222L73.5271 27.1235C73.5183 27.1235 73.508 27.1235 73.4977 27.1235C71.8185 27.1235 70.4578 25.889 70.4578 24.3654C70.4578 22.8419 71.823 21.6087 73.5006 21.6087Z" fill="#A7DDE5"/>
<path id="Vector_2" d="M14.4264 16.9298C14.5782 16.9298 14.7242 16.9405 14.8672 16.9579C15.0043 14.8244 16.9546 13.131 19.3399 13.131C21.277 13.131 22.9281 14.2479 23.5517 15.8116C23.6151 15.8089 23.68 15.8062 23.7448 15.8062C25.766 15.8062 27.4023 17.2923 27.4023 19.1261C27.4023 20.9372 25.8043 22.4085 23.8186 22.4433L14.4529 22.4446C14.4441 22.4446 14.4338 22.4446 14.4234 22.4446C12.7443 22.4446 11.3836 21.2101 11.3836 19.6865C11.3836 18.163 12.7487 16.9298 14.4264 16.9298Z" fill="#A7DDE5"/>
<path id="Vector_3" d="M88.4843 16.0989C88.6081 16.0989 88.727 16.1073 88.8436 16.1209C88.9554 14.4541 90.5454 13.1312 92.4899 13.1312C94.069 13.1312 95.415 14.0037 95.9234 15.2253C95.9751 15.2232 96.028 15.2211 96.0808 15.2211C97.7285 15.2211 99.0625 16.3821 99.0625 17.8148C99.0625 19.2297 97.7598 20.3792 96.1409 20.4064L88.5059 20.4074C88.4987 20.4074 88.4903 20.4074 88.4819 20.4074C87.113 20.4074 86.0038 19.4429 86.0038 18.2527C86.0038 17.0624 87.1166 16.0989 88.4843 16.0989Z" fill="#A7DDE5"/>
<path id="Vector_4" d="M10.4473 86.683C10.4473 87.396 12.257 87.9731 14.4926 87.9731L105.066 87.9731C107.301 87.9731 109.113 87.396 109.113 86.683L109.113 86.3528C109.113 85.6406 107.301 85.0626 105.066 85.0626L14.4926 85.0626C12.257 85.0626 10.4473 85.6406 10.4473 86.3527L10.4473 86.683Z" fill="#F8972D"/>
<g id="_6">
<g id="Group_2">
<g id="Group_3">
<path id="Vector_5" d="M65.7006 36.0441C65.6307 36.0181 65.0393 35.8393 64.5669 36.1449C63.9826 36.5285 64.0665 37.3282 64.161 37.5622C64.217 37.689 64.301 37.9003 64.4445 38.1473C65.1513 39.4021 66.2395 40.1335 69.0738 41.7296C69.5742 42.0124 70.1201 42.3147 70.7079 42.63C71.0439 42.8088 71.3833 43.0006 71.7367 43.1892C72.0061 42.9096 72.279 42.6268 72.5485 42.3472C72.3735 42.1262 72.1671 41.8921 71.9151 41.6613C69.8366 39.7792 67.7686 37.9133 65.7041 36.0474L65.7006 36.0441Z" fill="#B88C36"/>
<path id="Vector_6" d="M64.546 38.9159C65.2633 38.204 65.9772 37.4921 66.6945 36.7802C66.1836 35.8993 65.5433 34.9241 64.742 33.9131C63.6922 32.5836 62.6145 31.5043 61.6487 30.6526C61.5227 30.6722 60.3085 30.8737 59.7732 31.9042C59.4512 32.525 59.5457 33.1134 59.5947 33.3312C61.2463 35.1939 62.8944 37.0565 64.546 38.9159Z" fill="#00010E"/>
<g id="Group_4">
<path id="Vector_7" d="M63.7018 56.7824C76.5717 49.3675 86.6912 41.5041 90.4003 36.4492C91.7965 34.5443 92.2759 33.036 91.6565 32.1031C89.7845 29.2912 78.4542 32.5354 64.6186 39.4756C64.0027 39.7812 63.3869 40.0933 62.757 40.4151C62.3931 40.6036 62.0292 40.7987 61.6548 40.9905C61.0564 41.3058 60.4511 41.6341 59.8422 41.9592C58.3901 42.7458 56.9204 43.565 55.4403 44.4167C48.8339 48.2233 42.9518 52.1436 38.2979 55.7454C30.4458 61.8047 26.0544 66.9538 27.4821 69.096C29.7635 72.506 45.9751 66.996 63.6948 56.7791L63.7018 56.7824Z" fill="#A2CF64"/>
<g id="Vector_8" style="mix-blend-mode:multiply">
<path d="M63.6987 56.7815C76.5686 49.3666 86.6881 41.5032 90.3972 36.4484C89.6099 36.2111 88.7876 36.0615 87.9163 36.0225C85.8798 35.9348 84.3192 36.5036 83.5319 36.8059C71.2849 41.5162 60.7699 53.1634 47.5746 55.6697C43.5891 56.4336 40.6708 56.1053 38.3018 55.7477C30.4497 61.807 26.0583 66.9561 27.486 69.0984C29.7674 72.5083 45.979 66.9984 63.6987 56.7815Z" fill="#A2CF64"/>
</g>
<g id="Group_5">
<path id="Vector_9" d="M73.482 37.9373C73.9229 38.2136 74.3988 38.2754 74.5457 38.0738C74.6927 37.8723 74.4548 37.4855 74.0174 37.2092C73.5765 36.9329 73.1006 36.8711 72.9536 37.0726C72.8067 37.2742 73.0446 37.661 73.482 37.9373Z" fill="white"/>
<path id="Vector_10" d="M75.9066 38.708C76.4314 38.7893 76.8898 38.6625 76.9353 38.4219C76.9808 38.1814 76.5924 37.9213 76.0675 37.8368C75.5426 37.7556 75.0843 37.8823 75.0388 38.1229C74.9933 38.3634 75.3817 38.6235 75.9066 38.708Z" fill="white"/>
<path id="Vector_11" d="M74.7842 39.3607C75.0677 39.7768 75.4806 40.0076 75.701 39.8776C75.9215 39.7475 75.8725 39.3022 75.5855 38.8861C75.3021 38.47 74.8892 38.2392 74.6688 38.3693C74.4483 38.4993 74.4973 38.9446 74.7842 39.3607Z" fill="white"/>
<path id="Vector_12" d="M73.4339 38.6477C73.0315 38.9695 72.8426 39.3791 73.0105 39.5644C73.182 39.7496 73.6474 39.6391 74.0498 39.3206C74.4522 38.9987 74.6411 38.5891 74.4732 38.4039C74.3017 38.2186 73.8363 38.3291 73.4339 38.6477Z" fill="white"/>
<path id="Vector_13" d="M75.4812 37.1666C75.5687 36.679 75.4322 36.2531 75.1733 36.2109C74.9143 36.1686 74.6344 36.5294 74.5434 37.0171C74.4525 37.5047 74.5924 37.9305 74.8514 37.9728C75.1103 38.015 75.3902 37.6542 75.4812 37.1666Z" fill="white"/>
</g>
<g id="Group_6">
<path id="Vector_14" d="M68.9056 38.8893C69.2066 39.0778 69.532 39.1201 69.6335 38.9803C69.7349 38.8405 69.5705 38.5772 69.2696 38.3887C68.9686 38.2002 68.6432 38.1579 68.5417 38.2977C68.4403 38.4375 68.6047 38.7008 68.9056 38.8893Z" fill="white"/>
<path id="Vector_15" d="M70.5622 39.4164C70.9191 39.4716 71.2341 39.3871 71.2656 39.2213C71.297 39.0555 71.0311 38.8768 70.6707 38.8215C70.3138 38.7662 69.9989 38.8508 69.9674 39.0165C69.9359 39.1823 70.2018 39.3611 70.5622 39.4164Z" fill="white"/>
<path id="Vector_16" d="M69.7955 39.8614C69.9915 40.1475 70.2714 40.3068 70.4219 40.2158C70.5723 40.1248 70.5373 39.8224 70.3449 39.5364C70.1489 39.2503 69.869 39.091 69.7185 39.1821C69.5681 39.2731 69.603 39.5754 69.7955 39.8614Z" fill="white"/>
<path id="Vector_17" d="M68.8717 39.3753C68.5953 39.5963 68.4658 39.8759 68.5813 40.0027C68.6967 40.1294 69.0152 40.0547 69.2916 39.8336C69.568 39.6126 69.6975 39.333 69.582 39.2062C69.4666 39.0795 69.1481 39.1542 68.8717 39.3753Z" fill="white"/>
<path id="Vector_18" d="M70.2679 38.362C70.3274 38.0304 70.2364 37.7378 70.0579 37.7086C69.8795 37.6793 69.687 37.9264 69.6275 38.2612C69.568 38.5928 69.659 38.8853 69.8375 38.9146C70.0159 38.9439 70.2084 38.6968 70.2679 38.362Z" fill="white"/>
</g>
<g id="Group_7">
<path id="Vector_19" d="M60.5195 42.5024C61.4363 43.0778 62.43 43.2045 62.738 42.7819C63.0389 42.3691 62.563 41.5694 61.6602 40.9973C61.0619 41.3126 60.4565 41.641 59.8477 41.966C60.0331 42.1578 60.2501 42.3366 60.516 42.5024H60.5195Z" fill="white"/>
<path id="Vector_20" d="M60.4233 43.9785C59.58 44.6481 59.1846 45.503 59.5415 45.8899C59.8985 46.2767 60.8712 46.0491 61.711 45.3795C62.5543 44.7099 62.9497 43.8549 62.5928 43.4681C62.2359 43.0813 61.2631 43.3088 60.4233 43.9785Z" fill="white"/>
</g>
</g>
<path id="Vector_21" d="M58.656 52.136C59.1774 53.3583 59.7548 54.262 60.1887 54.8698C60.2272 54.9186 60.2551 54.9609 60.2866 55.0064C60.3461 55.0811 60.4056 55.1592 60.4791 55.2469C60.4931 55.2729 60.5176 55.3022 60.5456 55.3379C60.5841 55.3867 60.6191 55.4355 60.6645 55.4907C60.7695 55.6207 60.9025 55.7865 61.067 55.9946C61.1404 56.0856 61.2244 56.1864 61.3119 56.2969C61.3189 56.3099 61.3259 56.3229 61.3434 56.3392C61.4554 56.4692 61.5673 56.609 61.6933 56.7682C62.1832 57.3826 62.6731 57.9905 63.1664 58.6114C63.5094 59.047 63.8488 59.4728 64.1917 59.9019C64.8005 60.6691 65.4024 61.4265 66.0043 62.1872C66.1302 62.3464 66.2492 62.4992 66.3752 62.6553C66.5536 62.5252 66.7986 62.3789 66.991 62.4537C67.3024 62.5772 67.117 63.2046 67.4354 63.6825C67.6279 63.9718 68.0513 64.2839 69.0835 64.3586C69.171 64.0758 69.241 63.806 69.29 63.5492C69.4089 62.8926 69.4019 62.3627 69.3704 61.9824C69.29 61.0234 68.9086 60.1035 68.1457 58.2766C67.8868 57.6557 67.6489 57.1096 67.5509 56.8885C67.4389 56.648 67.3269 56.4042 67.215 56.1701C66.9175 55.52 66.6061 54.8861 66.3017 54.2717C65.9168 53.498 65.5214 52.7536 65.126 52.0352C65.112 52.0157 65.105 51.9865 65.0875 51.967C64.909 51.6549 64.7306 51.3461 64.5521 51.0275C63.9433 49.971 63.3274 48.9763 62.715 48.0239C62.6031 47.8711 62.4771 47.7281 62.3371 47.6013C62.3161 47.5818 62.2917 47.5525 62.2637 47.533C61.3644 46.6911 60.1082 46.3173 58.936 46.5676C58.5056 46.6586 58.0367 46.8504 57.6343 47.1267C57.0709 47.494 56.609 48.0369 56.4516 48.7358C56.1541 50.0621 57.0394 51.5314 58.6525 52.1328L58.656 52.136Z" fill="#B88C36"/>
<g id="Group_8">
<path id="Vector_22" d="M69.1857 63.3403C69.2627 63.4703 69.3082 63.6003 69.3082 63.6003C69.3397 63.6848 69.3571 63.7628 69.3676 63.8311C69.4971 64.5755 69.6896 65.6222 69.9135 66.8673C70.4699 70.0562 70.7218 71.6588 70.9913 73.4857C71.0507 73.9375 71.1172 74.3406 71.1592 74.7014C71.4461 76.6941 71.5511 77.6596 71.7856 78.8038C71.8136 78.9436 71.845 79.0899 71.8765 79.2362C71.9115 79.4117 71.95 79.5937 71.999 79.7888C72.0095 79.8408 72.02 79.8928 72.0305 79.9513C72.181 80.5689 72.3104 81.1248 72.4434 81.6189C72.4539 81.6449 72.4539 81.6612 72.4644 81.6969C72.5764 82.074 72.6673 82.4056 72.7583 82.6721C72.7583 82.6981 72.7688 82.7144 72.7758 82.7339C72.7793 82.7632 72.7863 82.8022 72.8038 82.8249C72.4784 82.9289 72.1495 83.0297 71.8241 83.137C71.6211 83.202 71.4007 83.2768 71.1872 83.3418C71.1172 83.228 71.0612 83.111 71.0052 82.9907C70.5364 82.0383 70.0395 81.0045 69.5741 79.87C69.5531 79.8245 69.5321 79.7725 69.5111 79.7173C69.5111 79.701 69.5006 79.6912 69.5006 79.675C69.4621 79.584 69.4201 79.4832 69.3851 79.3824C69.0142 78.4722 68.6433 77.5003 68.3074 76.4763C68.0765 75.7937 67.863 75.0818 67.6566 74.3569C67.5866 74.1033 67.5201 73.8465 67.4466 73.5864C66.5823 70.313 66.1764 67.3484 66.0155 64.8648C65.9945 64.3707 65.9805 63.8571 65.9805 63.3305C65.9805 62.8136 65.9875 62.313 66.005 61.8287C67.8315 62.5211 69.0842 63.1647 69.1857 63.337V63.3403Z" fill="#B88C36"/>
<path id="Vector_23" d="M71.7871 78.8083C71.8151 78.9481 71.8466 79.0943 71.8781 79.2406C71.9131 79.4162 71.9516 79.5982 72.0006 79.7932C72.0111 79.8453 72.0216 79.8973 72.0321 79.9558C72.1825 80.5734 72.312 81.1293 72.445 81.6234C72.4555 81.6494 72.4555 81.6656 72.466 81.7014C72.5779 82.0785 72.6689 82.4101 72.7599 82.6766C72.7599 82.7026 72.7704 82.7189 72.7774 82.7384C72.7809 82.7676 72.7879 82.8066 72.8054 82.8294C72.48 82.9334 72.151 83.0342 71.8256 83.1415C71.6227 83.2065 71.4022 83.2812 71.1888 83.3463C71.1188 83.2325 71.0628 83.1155 71.0068 82.9952C70.5379 82.0427 70.0411 81.009 69.5757 79.8745C69.5547 79.829 69.5337 79.777 69.5127 79.7217C69.5127 79.7055 69.5022 79.6957 69.5022 79.6795C69.4637 79.5885 69.4217 79.4877 69.3867 79.3869C70.188 79.1919 70.9893 79.0033 71.7906 78.8083H71.7871Z" fill="#B88C36"/>
</g>
<path id="Vector_24" d="M58.1523 29.6905C58.3238 29.8921 58.6667 30.2269 59.2091 30.3797C60.0699 30.6235 60.9342 30.2627 61.4031 29.8791C61.3891 29.632 61.3506 29.372 61.3296 29.0957C61.3156 28.9169 61.3016 28.7218 61.3016 28.53C61.2876 28.283 61.2806 28.0262 61.2876 27.7564C61.3086 27.1908 61.3751 26.6804 61.459 26.2318C61.473 26.1635 61.48 26.0953 61.4975 26.0238C61.4101 26.0108 61.3121 26.0043 61.2211 25.988C60.6787 25.9197 60.1294 25.8417 59.587 25.7735C59.489 25.767 59.3875 25.754 59.2896 25.7377L59.2441 25.7312C58.9816 26.4691 58.7297 27.272 58.5093 28.1335C58.3728 28.6698 58.2573 29.1867 58.1593 29.6873L58.1523 29.6905Z" fill="#B88C36"/>
<path id="Vector_25" d="M56.0117 46.8252C56.5541 46.9227 57.0965 47.0268 57.6388 47.1275C59.119 47.3973 60.6026 47.6736 62.0898 47.95C62.1492 47.8199 62.2087 47.6801 62.2682 47.5371C62.2822 47.5079 62.2892 47.4753 62.3067 47.4461C62.3802 47.2673 62.4537 47.0885 62.5236 46.9C62.6706 46.5326 62.8141 46.1328 62.947 45.707C63.073 45.3006 63.192 44.865 63.304 44.4099C63.4754 43.685 63.6154 42.9049 63.7064 42.0694C63.8638 40.6261 63.8323 39.3356 63.7274 38.2531C63.9268 38.1426 64.7736 37.6452 64.9696 36.7481C65.2005 35.6721 64.4062 34.4206 62.9645 33.8907C62.3837 32.4766 61.8063 31.0593 61.2255 29.6453C60.2597 29.2942 59.2869 28.9399 58.3107 28.5888C57.9153 30.0809 57.5828 31.729 57.3589 33.5396C56.8445 37.6875 57.114 41.3348 57.5968 44.2117C57.2539 44.5237 56.8025 45.0048 56.4456 45.6875C56.3861 45.798 56.3406 45.902 56.2987 46.006C56.2532 46.1036 56.2112 46.1978 56.1797 46.2953C56.1412 46.3929 56.1132 46.4806 56.0817 46.5717C56.0677 46.6139 56.0607 46.6627 56.0432 46.7017C56.0292 46.7699 56.0117 46.8187 56.0117 46.8252Z" fill="#B88C36"/>
<g id="Vector_26" style="mix-blend-mode:multiply">
<path d="M61.3261 29.0972C61.3121 28.9184 61.2981 28.7234 61.2981 28.5316C61.2841 28.2845 61.2771 28.0277 61.2841 27.7579C61.3051 27.1923 61.3716 26.682 61.4556 26.2334C61.3821 26.1521 61.2981 26.0676 61.2176 25.9928C60.8152 25.6417 60.3183 25.4272 59.9159 25.5637C59.776 25.606 59.671 25.6872 59.58 25.7783C59.4016 25.9635 59.3211 26.1911 59.3036 26.2399C58.9082 27.4491 60.5213 29.2077 61.3261 29.0972Z" fill="#B88C36"/>
</g>
<g id="Group_9">
<path id="Vector_27" d="M61.896 27.5418C62.008 27.5126 62.3299 27.4151 62.6378 27.1648C63.0892 26.7974 63.2362 26.3196 63.3691 25.871C63.4356 25.6434 63.4566 25.5004 63.5371 24.9023C63.7715 23.1664 63.6491 22.9909 63.6596 22.7048C63.6806 22.2172 63.2712 21.8044 62.7463 21.7849L60.0134 21.6808C59.4886 21.6613 59.0442 22.0417 59.0232 22.5293L58.8867 25.6467C59.779 27.0055 61.0212 27.7629 61.8925 27.5418H61.896Z" fill="#B88C36"/>
<path id="Vector_28" d="M58.8922 25.6484C59.4451 25.6679 59.9979 25.6874 60.5543 25.7069C61.59 24.7057 62.6293 23.7077 63.665 22.7065C63.637 22.3879 63.5426 21.9491 63.2206 21.5688C62.1849 20.3465 59.3331 20.3823 58.3603 21.7053C57.6675 22.648 58.1084 24.0003 58.2413 24.4099C58.4233 24.9625 58.6927 25.3786 58.8957 25.6484H58.8922Z" fill="#B88C36"/>
</g>
<path id="Vector_29" d="M62.0207 26.0182C61.8947 26.1319 62.0766 26.6748 62.4021 26.7333C62.6645 26.7788 63.0319 26.522 63.1194 26.0604C63.0284 26.0734 62.8779 26.0929 62.696 26.0864C62.2796 26.0734 62.1046 25.9434 62.0242 26.0182H62.0207Z" fill="white"/>
<path id="Vector_30" d="M56.4565 48.7399C56.1591 50.0662 57.0444 51.5355 58.6575 52.1368C59.1789 53.3591 59.7562 54.2628 60.1901 54.8707C60.2286 54.9194 60.2566 54.9617 60.2881 55.0072C60.3476 55.082 60.4001 55.16 60.4805 55.2478C60.4945 55.2738 60.519 55.303 60.547 55.3388C60.5855 55.3875 60.6205 55.4363 60.666 55.4916C60.771 55.6216 60.9039 55.7874 61.0684 55.9954C61.1419 56.0864 61.2259 56.1872 61.3133 56.2977C61.3203 56.3107 61.3273 56.3237 61.3448 56.34C61.4568 56.47 61.5688 56.6098 61.6947 56.7691C62.1846 57.3835 62.6745 57.9914 63.1679 58.6122C63.5108 59.0478 63.8502 59.4737 64.1931 59.9028C65.5088 59.3631 66.8315 58.8268 68.1542 58.2807C67.8952 57.6598 67.6573 57.1137 67.5593 56.8926C67.4474 56.6521 67.3354 56.4083 67.2234 56.1742C66.926 55.5241 66.6146 54.8902 66.3101 54.2758C65.9252 53.5021 65.5298 52.7577 65.1344 52.0393C65.1204 52.0198 65.1134 51.9906 65.0959 51.9711C64.9175 51.659 64.739 51.3502 64.5606 51.0316C63.9517 49.9751 63.3359 48.9804 62.7235 48.028C62.6115 47.8752 62.4856 47.7322 62.3456 47.6054C62.3246 47.5859 62.3001 47.5566 62.2721 47.5371C62.2861 47.5079 62.2931 47.4753 62.3106 47.4461C62.3841 47.2673 62.4576 47.0885 62.5275 46.9C62.6745 46.5326 62.818 46.1328 62.9509 45.707C63.0769 45.3006 63.2029 44.865 63.3079 44.4099C63.4793 43.685 63.6193 42.9049 63.7103 42.0694C63.8677 40.6261 63.8362 39.3356 63.7313 38.2531C63.9307 38.1426 64.7775 37.6452 64.9735 36.7481C65.2044 35.6721 64.4101 34.4206 62.9684 33.8907C62.3876 32.4766 61.8102 31.0593 61.2294 29.6453C60.2636 29.2942 59.2908 28.9399 58.3146 28.5888C57.9192 30.0809 57.5867 31.729 57.3628 33.5396C56.8484 37.6875 57.1179 41.3348 57.6007 44.2116C57.2578 44.5237 56.8064 45.0048 56.4495 45.6875C56.39 45.798 56.3445 45.902 56.3026 46.006C56.2571 46.1036 56.2151 46.1978 56.1836 46.2953C56.1451 46.3929 56.1171 46.4806 56.0856 46.5717C56.0716 46.6139 56.0646 46.6627 56.0471 46.7017C56.0331 46.7699 56.0156 46.8187 56.0156 46.8252C56.558 46.9227 57.1004 47.0268 57.6427 47.1275C57.0794 47.4949 56.6175 48.0377 56.46 48.7366L56.4565 48.7399Z" fill="#00010E"/>
<path id="Vector_31" d="M55.8234 52.5328C55.8164 52.9554 55.8304 53.1407 55.8969 54.8864C55.9354 55.6535 55.9634 56.4109 55.9843 57.1781C56.0053 57.9388 56.0368 58.6897 56.0648 59.4438C56.0928 60.315 56.1243 61.1895 56.1523 62.0606C56.1593 62.1094 56.1593 62.1582 56.1593 62.2069C56.3833 62.1939 56.6807 62.2069 56.7927 62.3662C56.9711 62.636 56.4357 63.0554 56.4077 63.6145C56.3868 63.9525 56.5477 64.4369 57.3595 65.0448C58.0419 64.5279 58.5037 64.0078 58.8082 63.5885C58.8956 63.4649 58.9796 63.3479 59.0461 63.2374C59.515 62.493 59.7599 61.6413 60.1623 60.0745C60.2078 59.9022 60.2533 59.7234 60.3023 59.5283C60.4598 58.8945 60.5997 58.3126 60.6452 58.0785C60.7047 57.8217 60.7642 57.5682 60.8167 57.3114C60.8832 56.9863 60.9497 56.6612 61.0161 56.3459C61.0896 55.9786 61.1561 55.621 61.2226 55.2699C61.3696 54.428 61.506 53.6121 61.618 52.8059C61.618 52.7864 61.625 52.7571 61.625 52.7311C61.6705 52.3866 61.7125 52.0355 61.758 51.6812C61.8979 50.4882 62.0029 49.3407 62.0764 48.2354C62.0764 48.0209 62.0554 47.8128 62.0169 47.6145C62.0029 47.5593 61.9959 47.5105 61.9784 47.4553C61.7125 46.35 60.9217 45.4463 59.8544 45.0465C58.8677 44.6889 57.44 44.6727 56.4812 45.5243C56.1173 45.8494 55.8654 46.2558 55.7149 46.7109C55.7079 46.7531 55.6939 46.7921 55.6869 46.8344C55.463 47.6698 55.6204 48.6418 56.2223 49.4772C56.1488 49.7893 56.0823 50.0916 56.0368 50.3744C55.8794 51.2521 55.8374 51.99 55.8199 52.5361L55.8234 52.5328Z" fill="#B88C36"/>
<g id="Group_10">
<path id="Vector_32" d="M58.013 63.974C57.9675 64.1138 57.901 64.2406 57.901 64.2406C57.859 64.3186 57.81 64.3869 57.768 64.4421C57.2886 65.05 56.6203 65.9115 55.826 66.9354C53.772 69.5425 52.7223 70.833 51.508 72.2958C51.2036 72.6501 50.9447 72.9785 50.6927 73.2613C49.3666 74.8509 48.7017 75.5985 47.9914 76.5542C47.9039 76.6713 47.8129 76.7948 47.722 76.9151C47.61 77.0613 47.498 77.2174 47.3825 77.3832C47.3511 77.4254 47.3161 77.4677 47.2811 77.5197C46.9102 78.0528 46.5777 78.5274 46.2943 78.9662C46.2803 78.9923 46.2698 79.0053 46.2488 79.0345C46.0389 79.3726 45.8499 79.6684 45.7065 79.9122C45.6855 79.9285 45.682 79.9512 45.6715 79.9675C45.6505 79.9902 45.6295 80.0227 45.6225 80.0487C45.3145 79.909 45.0066 79.7594 44.6952 79.6196C44.5027 79.5319 44.2893 79.4376 44.0898 79.3401C44.1283 79.2133 44.1773 79.0963 44.2298 78.9728C44.6287 77.9943 45.0766 76.9411 45.619 75.8358C45.6365 75.7903 45.6645 75.7383 45.6925 75.6895C45.703 75.6765 45.7065 75.6635 45.717 75.6505C45.7624 75.5595 45.8079 75.4652 45.8604 75.3677C46.2978 74.4803 46.7842 73.5571 47.3336 72.6144C47.6975 71.9805 48.0894 71.3401 48.5023 70.6965C48.6457 70.4722 48.7997 70.2479 48.9432 70.0171C50.8467 67.1467 52.8307 64.7965 54.6223 62.9468C54.9862 62.586 55.3711 62.2187 55.7735 61.8448C56.1689 61.4808 56.5573 61.1362 56.9387 60.8079C57.6911 62.5015 58.076 63.7822 58.0165 63.9708L58.013 63.974Z" fill="#B88C36"/>
<path id="Vector_33" d="M47.9914 76.554C47.9039 76.671 47.8129 76.7946 47.722 76.9148C47.61 77.0611 47.498 77.2171 47.3825 77.3829C47.3511 77.4252 47.3161 77.4674 47.2811 77.5195C46.9102 78.0526 46.5777 78.5272 46.2943 78.966C46.2803 78.992 46.2698 79.005 46.2488 79.0343C46.0389 79.3723 45.8499 79.6682 45.7065 79.912C45.6855 79.9282 45.682 79.951 45.6715 79.9672C45.6505 79.99 45.6295 80.0225 45.6225 80.0485C45.3145 79.9087 45.0066 79.7592 44.6952 79.6194C44.5027 79.5316 44.2893 79.4374 44.0898 79.3398C44.1283 79.2131 44.1773 79.096 44.2298 78.9725C44.6287 77.9941 45.0766 76.9408 45.619 75.8356C45.6365 75.7901 45.6645 75.7381 45.6925 75.6893C45.703 75.6763 45.7065 75.6633 45.7169 75.6503C45.7624 75.5593 45.8079 75.465 45.8604 75.3675C46.5742 75.7608 47.2776 76.1574 47.9914 76.5507V76.554Z" fill="#B88C36"/>
</g>
<path id="Vector_34" d="M55.823 52.5338C55.816 52.9564 55.83 53.1417 55.8965 54.8873C55.935 55.6544 55.9629 56.4119 55.9839 57.179C56.0049 57.9397 56.0364 58.6906 56.0644 59.4448L60.1584 60.0721C60.2039 59.8999 60.2494 59.7211 60.2984 59.526C60.4559 58.8921 60.5958 58.3103 60.6413 58.0762C60.7008 57.8194 60.7603 57.5659 60.8128 57.309C60.8793 56.984 60.9457 56.6589 61.0122 56.3436C61.0857 55.9763 61.1522 55.6187 61.2187 55.2676C61.3656 54.4257 61.5021 53.6098 61.6141 52.8036C61.6141 52.7841 61.6211 52.7548 61.6211 52.7288C61.6666 52.3842 61.7086 52.0332 61.7541 51.6788C61.894 50.4858 61.999 49.3383 62.0725 48.2331C62.0725 48.0186 62.0515 47.8105 62.013 47.6122C61.999 47.557 61.992 47.5082 61.9745 47.4529C61.7086 46.3477 60.9178 45.444 59.8505 45.0442C58.8637 44.6866 57.4361 44.6703 56.4773 45.522C56.1134 45.8471 55.8615 46.2534 55.711 46.7085C55.704 46.7508 55.69 46.7898 55.683 46.8321C55.4591 47.6675 55.6165 48.6394 56.2184 49.4749C56.1449 49.7869 56.0784 50.0893 56.0329 50.3721C55.8755 51.2498 55.8335 51.9877 55.816 52.5338H55.823Z" fill="#00010E"/>
<path id="Vector_35" d="M58.206 21.2303C57.1107 22.5794 57.8771 24.2275 58.1255 24.7541C58.234 24.9849 58.4894 25.5375 58.8008 25.5245C59.3397 25.505 59.7001 23.7951 59.9696 23.8471C60.078 23.8666 60.0465 24.143 60.225 24.2145C60.4454 24.3022 60.7779 23.9902 60.9213 23.8699C62.0201 22.9532 64.1125 23.314 64.179 22.8687C64.1895 22.8102 64.193 22.5631 64.1475 22.2933C64.137 22.2348 64.0636 21.6497 63.7451 21.2303C63.2273 20.5477 62.44 20.3559 62.083 20.2681C61.8521 20.2129 59.4727 19.67 58.2025 21.2303H58.206Z" fill="#050505"/>
<path id="Vector_36" d="M58.6875 24.1874C58.6875 24.7335 59.0584 25.1756 59.5168 25.1756C59.9752 25.1756 60.3461 24.7335 60.3461 24.1874C60.3461 23.6413 59.9752 23.1992 59.5168 23.1992C59.0584 23.1992 58.6875 23.6413 58.6875 24.1874Z" fill="#B88C36"/>
<path id="Vector_37" d="M47.5502 23.9177C47.1058 24.8377 47.0603 25.5398 46.2135 26.7198C45.0693 28.3192 43.5436 29.2489 42.4414 29.7852C48.138 31.3781 50.6399 30.5491 51.8716 29.4829C52.8234 28.6572 52.5295 28.1176 54.9054 24.0965C56.2281 21.8568 57.6382 19.7991 58.8314 19.9909C59.2968 20.0656 59.7062 20.4785 59.8147 20.3777C59.9512 20.2542 59.4823 19.5 59.0799 19.1554C57.1064 17.4748 49.6182 19.6365 47.5537 23.9145L47.5502 23.9177Z" fill="#050505"/>
<path id="Vector_38" d="M63.5318 22.0756C63.6193 22.2187 63.9832 22.8428 63.7348 23.4117C63.4164 24.1333 62.2092 24.5787 60.918 24.1301C61.1664 24.1561 61.6318 24.1658 62.1112 23.9415C63.2204 23.4247 63.3289 22.1504 63.3359 22.0724H63.5388L63.5318 22.0756Z" fill="#050505"/>
<path id="Vector_39" d="M58.827 19.328C58.0292 18.9184 56.6645 18.3625 54.9255 18.3495C50.758 18.3203 48.1476 21.4344 47.8047 21.8603L58.827 19.328Z" fill="#050505"/>
<path id="Vector_40" d="M59.4146 19.7472C59.3656 19.5229 59.2012 18.9052 58.6028 18.4111C57.7245 17.683 56.6328 17.8065 56.4648 17.8292L59.4146 19.7504V19.7472Z" fill="#050505"/>
<path id="Vector_41" d="M58.1793 29.0847C59.3025 29.5366 60.4257 29.9884 61.5455 30.4403C61.5945 29.9624 61.6434 29.4846 61.6889 29.0067C60.5937 28.6101 59.502 28.2103 58.4067 27.8137C58.3297 28.2396 58.2528 28.6622 58.1758 29.088L58.1793 29.0847Z" fill="#00010E"/>
<path id="Vector_42" d="M54.8915 40.3686C54.3456 40.011 53.7928 39.66 53.2539 39.3024C53.2819 39.2341 53.3274 39.1301 53.3869 39.0033C53.4534 38.87 53.4813 38.7985 53.5723 38.5872C53.6178 38.493 54.0797 37.495 55.1679 35.1707C55.1784 35.148 55.1889 35.1317 55.1994 35.109C55.4724 34.5141 55.7978 33.825 56.1582 33.0415C56.3542 32.632 56.5571 32.1899 56.7776 31.7185C56.8055 31.6828 57.4774 30.8538 58.5446 30.9448C59.269 31.0099 59.7133 31.4747 59.8078 31.582C59.7098 31.8648 59.5629 32.2581 59.3669 32.7327C58.961 33.7047 58.5516 34.5206 57.9918 35.4926C57.9568 35.5706 57.9008 35.6519 57.8623 35.7331C57.8378 35.7819 57.8098 35.8306 57.7748 35.8794C57.6593 36.0939 57.5334 36.2922 57.4214 36.4873C56.6096 37.8656 55.8118 39.0976 55.1364 40.0988C55.0595 40.1866 54.9755 40.2808 54.8915 40.3719V40.3686Z" fill="#B88C36"/>
<path id="Vector_43" d="M55.0231 40.0492C55.0161 39.9809 54.9077 39.412 54.3968 39.165C53.7599 38.8659 53.0391 39.308 52.8572 39.4965C52.7627 39.6006 52.6017 39.7696 52.4338 40.0004C51.573 41.1706 51.3875 42.4059 51.1986 45.4778C51.1636 46.0207 51.1321 46.6091 51.1076 47.2397C51.0936 47.5973 51.0726 47.9679 51.0586 48.3449C51.454 48.436 51.8459 48.527 52.2413 48.618C52.3673 48.3709 52.4932 48.0914 52.5947 47.7793C53.41 45.1918 54.2148 42.6205 55.0231 40.0492Z" fill="#B88C36"/>
<path id="Vector_44" d="M53.8477 38.0014C54.621 38.1737 55.3978 38.3492 56.1711 38.5215C56.8289 37.7251 57.5218 36.7856 58.1901 35.6934C59.0649 34.2566 59.6842 32.9043 60.1251 31.7373C60.0551 31.6398 59.3588 30.6906 58.1271 30.6581C57.3853 30.6386 56.8464 30.9604 56.654 31.0904C55.7197 33.3919 54.7854 35.6967 53.8512 37.9981L53.8477 38.0014Z" fill="#00010E"/>
<g id="Group_11">
<path id="Vector_45" d="M77.8326 84.5781C77.8466 84.6626 77.7872 84.7341 77.5387 84.9877C77.3988 85.1307 77.2623 85.2542 77.2553 85.2672C77.2518 85.29 76.7829 85.628 76.7304 85.6118C76.7654 85.7028 72.4055 85.6736 72.087 85.511C71.6112 85.4948 70.306 85.394 69.9981 84.6203C69.9456 84.5 69.8826 84.3213 69.9421 83.4436C69.9526 83.3103 69.9491 83.2908 69.9526 83.2388C69.9526 83.2388 69.9526 83.1348 69.9701 82.9657C69.9806 82.8422 70.068 82.1823 70.201 81.2819C70.3095 81.3696 70.6104 81.5972 71.0618 81.6557C71.5377 81.7175 71.8911 81.5582 72.0101 81.4964C72.9128 82.0815 73.7876 82.6732 74.6659 83.2713C75.2538 83.5346 75.8486 83.8044 76.4435 84.0775C76.6604 84.0612 76.8354 84.0775 76.9579 84.1002C77.0768 84.1197 77.3533 84.1815 77.6297 84.3668C77.7557 84.4513 77.8222 84.4968 77.8362 84.5748L77.8326 84.5781Z" fill="#B88C36"/>
</g>
<path id="Vector_46" d="M45.8198 84.3364C45.7428 84.3787 45.6483 84.3527 45.3019 84.2324C45.1059 84.1641 44.9345 84.0926 44.917 84.0926C44.8925 84.0959 44.3816 83.8163 44.3816 83.7643C44.3011 83.826 42.737 80.0455 42.786 79.7107C42.6285 79.2946 42.2506 78.1276 42.912 77.5782C43.0134 77.4872 43.1674 77.3702 44.0702 77.1004C44.2067 77.0581 44.2242 77.0516 44.2801 77.0353C44.2801 77.0353 44.3851 76.9996 44.5601 76.9508C44.6895 76.9151 45.3789 76.7493 46.3306 76.5347C46.2817 76.6615 46.1627 77.0028 46.2712 77.4157C46.3831 77.8513 46.6736 78.0983 46.775 78.1796C46.5196 79.1743 46.2467 80.1463 45.9702 81.1247C45.9212 81.7293 45.8688 82.3437 45.8128 82.9549C45.9107 83.1369 45.9527 83.2962 45.9772 83.4067C45.9982 83.5172 46.0402 83.7805 45.9562 84.0861C45.9177 84.2291 45.8932 84.3006 45.8233 84.3397L45.8198 84.3364Z" fill="#B88C36"/>
<path id="Vector_47" d="M69.6142 82.0787L72.9648 81.4821L72.5802 79.6176L69.2295 80.2142L69.6142 82.0787Z" fill="#00010E"/>
<g id="Group_12">
<path id="Vector_48" d="M49.912 51.227C49.9505 51.2822 50.0205 51.3505 50.1605 51.4025C50.1605 51.4155 50.1639 51.7113 50.3774 51.8316C50.4194 51.8543 50.5174 51.9096 50.6258 51.8868C50.6888 51.8738 50.6993 51.8478 50.7343 51.8543C50.8253 51.8738 50.7798 52.0819 50.9023 52.1729C51.0037 52.2477 51.1892 52.2249 51.2872 52.1437C51.3852 52.0624 51.3852 51.9194 51.3992 51.9226C51.4167 51.9226 51.3607 52.0721 51.4341 52.1729C51.4971 52.2607 51.6441 52.3029 51.7491 52.2607C51.861 52.2152 51.8995 52.0819 51.9135 52.0234C52.1585 51.1392 52.2774 50.7003 52.2844 50.6678C52.2844 50.6678 52.4244 49.7544 52.4594 49.7609C52.4594 49.7609 52.2459 50.7199 52.5434 51.0417C52.6169 51.1229 52.7778 51.2562 52.8828 51.214C53.0123 51.1619 52.9773 50.8661 52.9458 50.3525C52.9283 50.0795 52.9073 49.6894 52.9003 49.2083C52.7673 48.6134 52.6344 48.0185 52.5014 47.4236C52.0605 47.2806 51.6231 47.1408 51.1822 46.9978C50.5838 47.8007 50.1675 48.3989 50.1185 48.4834C50.059 48.5874 49.9925 48.7109 49.9925 48.7109C49.9225 48.8409 49.884 48.919 49.8525 48.971C49.7126 49.2245 49.7895 51.0547 49.9085 51.2237L49.912 51.227Z" fill="#B88C36"/>
</g>
</g>
<g id="Group_13">
<g id="Group_14">
<path id="Vector_49" d="M29.3481 65.0412C30.035 64.9863 30.8734 64.8114 31.6765 64.3483C31.7575 64.3003 31.8632 64.2351 31.9548 64.1802C32.2683 63.8029 32.5924 63.4084 32.927 62.9899C33.0081 62.8905 33.075 62.8013 33.1595 62.6949C33.2652 62.5612 33.3779 62.4274 33.4801 62.2867C33.7126 61.978 33.9521 61.6556 34.1916 61.3263C34.3396 61.1239 34.484 60.925 34.6249 60.7157C34.6848 60.6608 34.7236 60.5888 34.7834 60.5271C35.097 60.0846 35.4175 59.6249 35.7381 59.1447C35.7381 59.1447 36.2277 58.4106 36.6927 57.6594C38.7851 54.2704 40.1167 52.1163 40.6944 49.5471C40.9762 48.2882 41.2157 46.3296 40.6944 43.7844C40.0497 43.7809 39.1268 43.9353 38.0137 44.1891C37.0379 44.4121 36.1608 44.7345 35.9107 45.1942C35.8966 45.249 35.6324 45.7464 35.3647 46.4222C35.2167 46.7789 35.111 47.067 35.0582 47.2145L34.632 48.3705L31.3172 57.3576L30.8593 58.613L30.6796 59.1104C30.6726 59.131 30.6655 59.1584 30.6585 59.1721C30.6268 59.2648 30.5916 59.3539 30.5528 59.4466C30.4859 59.5529 30.426 59.6627 30.3591 59.7621C30.3274 59.8033 30.2992 59.8616 30.278 59.9028C30.2041 60.0297 30.1301 60.1635 30.0526 60.2938C29.9399 60.4825 29.8271 60.6711 29.7144 60.8701C29.3868 61.4155 29.0627 61.9643 28.7422 62.5097C29.3551 62.5372 29.887 62.9453 30.0526 63.4976C30.2252 64.0807 29.9399 64.7256 29.3481 65.0412Z" fill="#FFD391"/>
<path id="Vector_50" d="M29.3449 65.0393C28.5065 64.0892 27.8196 63.2899 27.3406 62.7274C24.3076 59.1566 21.9228 56.0248 20.8801 54.32C20.8202 54.224 20.5102 53.7197 20.077 53.0406C19.6366 52.3477 19.2245 51.7268 18.8405 51.202C18.5446 50.7972 18.2417 50.4027 17.9388 50.0014C17.7133 49.6961 17.4843 49.3943 17.2554 49.0855C17.1215 48.9106 16.9877 48.7254 16.8467 48.5436C16.7446 48.4064 16.6283 48.2417 16.5156 48.1045C17.0581 47.6655 17.5794 47.223 18.1114 46.7942C18.2734 46.9451 18.4249 47.0995 18.5728 47.2333C18.8159 47.4837 19.0554 47.7135 19.2844 47.9364C19.7247 48.3618 20.1369 48.7563 20.5314 49.1267C21.4754 50.0186 22.2962 50.7663 22.9444 51.3598C23.198 51.5827 23.434 51.7988 23.663 52.0046C23.9448 52.255 24.1632 52.454 24.1949 52.4814C24.8078 53.0337 27.7915 55.7538 28.6122 56.5702C29.595 57.5478 31.0851 59.3795 32.1912 62.6965C32.0362 63.3825 31.7403 63.8353 31.5043 63.9314C31.388 63.9794 31.2542 64.0103 31.2542 64.0103C31.1097 64.0446 30.9618 64.0651 30.8033 64.072C30.6342 64.0789 30.5003 64.0823 30.451 64.0823C30.3172 64.0994 30.3066 64.4082 30.2467 64.5591C30.1833 64.7237 29.9825 64.9193 29.3484 65.0393H29.3449Z" fill="#FFD391"/>
<path id="Vector_51" d="M29.9141 58.1126C30.8158 61.4536 32.2848 63.6867 33.6621 63.6387C33.9016 63.6284 34.1905 63.5495 34.5111 63.3128C36.2266 60.476 37.9385 57.6393 39.654 54.8059C37.5017 53.3172 35.353 51.8251 33.2006 50.3364C32.1051 52.9296 31.0096 55.5229 29.9141 58.1126Z" fill="#31A1A8"/>
<g id="Vector_52" style="mix-blend-mode:multiply">
<path d="M29.9141 58.1126C30.8158 61.4536 32.2848 63.6867 33.6621 63.6387C33.9016 63.6284 34.1905 63.5495 34.5111 63.3128C36.2266 60.476 37.9385 57.6393 39.654 54.8059C37.5017 53.3172 35.353 51.8251 33.2006 50.3364C32.1051 52.9296 31.0096 55.5229 29.9141 58.1126Z" fill="#31A1A8"/>
</g>
<g id="Group_15">
<path id="Vector_53" d="M39.0358 17.004C39.4162 16.1431 40.3708 15.6526 41.2726 15.8172C42.0723 15.9647 42.7028 16.6096 42.8261 17.4191C42.8191 17.721 42.805 18.0125 42.7909 18.3109C42.7803 18.6574 42.7697 19.0073 42.7521 19.3434C42.7451 19.4669 42.7451 19.587 42.738 19.7105C42.7134 20.2593 42.6993 20.8081 42.6641 21.3638C42.6394 22.2214 42.5971 23.0789 42.5654 23.9364C42.5584 24.3927 42.5302 24.8592 42.5161 25.3222C41.794 26.7423 41.0613 28.1521 40.3251 29.5757C40.0855 29.4213 39.7967 29.2224 39.4867 28.9685C38.8702 28.4608 38.8174 28.1418 38.525 28.0286C38.1868 27.8983 37.5704 28.0355 36.3516 29.2669C37.0843 25.2262 37.4189 23.6826 37.588 23.0789C37.6127 22.9931 37.7536 22.482 37.9297 21.7892C38.0177 21.4461 38.1058 21.0894 38.1939 20.7121C38.2784 20.3485 38.3771 19.954 38.4651 19.5458C38.4863 19.4635 38.5074 19.3777 38.5215 19.292C38.5356 19.2645 38.5461 19.2302 38.5532 19.2028C38.7082 18.527 38.8561 17.7998 39.0323 17.004H39.0358Z" fill="#FFD391"/>
<path id="Vector_54" d="M41.6235 5.5949C41.6305 5.54345 41.6587 5.27932 41.7256 4.91916C41.7608 4.73736 41.8031 4.54527 41.8524 4.34975C42.0004 3.78034 42.1906 3.28296 42.3773 2.87134C42.8564 3.8558 43.339 4.84026 43.818 5.82129C43.8674 6.40442 44.2231 11.0592 44.202 14.0229C44.202 14.2595 44.0541 14.9764 43.7899 15.8957C43.4764 16.9762 43.0853 17.8612 42.7507 18.5198C41.5812 18.3037 40.4117 18.0876 39.2422 17.8749C39.2563 17.6931 39.2809 17.4325 39.3126 17.1169C39.3126 17.1169 39.3972 16.2593 39.5029 15.4429C39.7671 13.3883 41.5037 6.58622 41.6199 5.5949H41.6235Z" fill="#FFD391"/>
</g>
<path id="Vector_55" d="M32.9086 50.9231C32.9544 50.9643 33.2749 51.4205 33.754 51.983C34.0147 52.2918 34.226 52.5147 34.3387 52.6348L41.789 60.7883L42.7155 61.7831L43.0748 62.1844C43.0748 62.1844 43.1206 62.2187 43.1276 62.2324C43.2016 62.3182 43.2615 62.3799 43.3214 62.4554C43.3883 62.5617 43.4623 62.6646 43.5222 62.771C43.5433 62.819 43.582 62.8704 43.6032 62.9047C43.6842 63.0385 43.7617 63.1654 43.8498 63.2889C43.9695 63.4776 44.0893 63.6594 44.2091 63.8515C44.3218 64.0264 44.4275 64.2013 44.5472 64.3763C44.7269 64.6644 44.9065 64.9526 45.0862 65.2373C45.139 65.3127 45.1848 65.3916 45.2341 65.4671C45.5617 64.9834 46.2064 64.7536 46.7982 64.9045C47.4252 65.0589 47.8831 65.6111 47.869 66.2492C48.1685 65.6592 48.4221 64.8977 48.408 64.0195C48.4009 63.9201 48.4009 63.8103 48.3869 63.7108C48.2002 63.2615 48.0064 62.7984 47.788 62.3216C47.7352 62.2016 47.6823 62.0986 47.6295 61.9786C47.5626 61.8242 47.4886 61.6767 47.4111 61.5155C47.2526 61.1725 47.0729 60.8158 46.8862 60.4556C46.7735 60.2326 46.6678 60.0131 46.5481 59.797C46.5199 59.7215 46.4811 59.6495 46.4494 59.574C45.9563 58.6204 45.3962 57.612 44.7727 56.5795C42.8212 53.2899 40.771 50.563 38.9956 48.4397C38.0833 47.8565 37.0793 47.2837 35.9803 46.7212C35.3814 46.4056 34.8072 46.1312 34.2436 45.8739C34.1239 46.1037 32.1653 49.8563 32.898 50.9163L32.9086 50.9231Z" fill="#FFD391"/>
<path id="Vector_56" d="M32.9609 35.0439C33.0208 36.8001 33.5598 46.511 33.912 46.9912C34.1657 46.9775 34.4052 46.9672 34.6307 46.9535C35.2823 46.9295 35.8283 46.9295 36.2299 46.9329C36.5751 46.9329 36.9098 46.9329 37.2479 46.926C37.4875 46.926 37.6812 46.9123 37.8397 46.9054C38.3435 46.8849 38.5548 46.8746 38.6041 46.8746C38.9353 46.8746 39.4777 47.4577 40.3795 50.0646C40.5099 47.2622 40.612 44.9262 40.6895 42.7549C40.7494 41.0776 40.8163 39.1121 41.3482 37.126C41.4891 36.5943 42.007 34.8175 42.1866 32.3992C42.1866 32.3924 42.5671 27.3466 40.6825 26.5645C40.457 26.4684 40.1752 26.3861 40.1752 26.3861C39.6504 26.2386 39.136 26.2146 38.6182 26.1803C37.8855 26.1357 37.1458 26.1083 36.3743 25.7961C36.3532 25.7824 36.3144 25.7721 36.2687 25.7515C35.3422 27.3431 34.4052 28.9313 33.4647 30.516C33.366 30.9723 33.2639 31.4148 33.1512 31.8675C33.0913 32.924 33.0314 33.984 32.9645 35.0405L32.9609 35.0439Z" fill="#FFD391"/>
<path id="Vector_57" d="M44.5802 71.5345C44.9007 72.6013 46.197 76.2956 46.4789 77.0742C46.4929 77.1154 46.5916 77.383 46.7113 77.726C46.817 78.0141 46.9121 78.3022 47.0319 78.611C47.3172 79.417 47.6695 80.4392 48.064 81.6398C48.2366 82.1372 48.4022 82.6689 48.5818 83.2383C48.6805 83.5333 48.7756 83.842 48.8742 84.1576C48.9341 84.3531 48.994 84.5555 49.0609 84.7613C49.7408 84.6138 50.4242 84.4457 51.1252 84.2913C51.0864 84.1233 51.0653 83.9277 51.0441 83.7597C51.0054 83.5367 50.9843 83.3103 50.9455 83.1011C50.8997 82.7306 50.8469 82.3636 50.7976 81.9931C50.7306 81.5095 50.6567 81.0258 50.5968 80.5421C50.5157 79.9041 50.4559 79.1838 50.4101 78.3743C50.3572 77.5819 50.3361 76.9988 50.3291 76.889C50.1952 73.7058 48.6981 68.9893 48.758 66.6328C48.758 66.3961 48.8038 65.4185 48.5114 64.2076C48.4586 63.9847 48.4128 63.8166 48.3846 63.7308C47.2256 64.067 46.7853 64.139 46.6867 64.0876C46.6479 64.0739 46.5986 64.0464 46.5211 64.0121C46.4753 63.9915 46.4154 63.971 46.3556 63.9435C46.2076 63.8818 46.0702 63.8303 45.9223 63.8029C45.9223 63.8029 45.7884 63.7686 45.6616 63.7617C45.563 63.7549 45.0945 63.9161 44.5626 64.3071C44.5555 64.3345 44.5485 64.362 44.5485 64.3929C44.4604 64.8354 44.3829 65.247 44.3301 65.6483C43.9179 68.4816 44.242 70.3682 44.5837 71.5448L44.5802 71.5345Z" fill="#FFD391"/>
<path id="Vector_58" d="M37.1172 27.8836C37.399 27.7567 38.5333 27.2799 39.9212 27.6435C41.1153 27.9556 41.7846 28.7069 41.996 28.9675C42.2461 27.8562 42.4469 27.0261 42.5385 26.6762C42.6054 26.4224 42.6723 26.1788 42.6723 26.1788C42.7216 26.0073 42.7639 25.8461 42.8167 25.6746C43.0598 24.793 43.3099 23.9149 43.5459 23.0333C43.5565 23.0196 43.5565 23.0059 43.56 22.9922C43.56 22.9716 43.5741 22.951 43.5776 22.9304C43.5706 22.9236 43.5494 22.9201 43.5424 22.9099C43.4438 22.8756 43.3522 22.831 43.25 22.7967C42.6019 22.5394 41.9643 22.2787 41.3443 22.0111C41.3091 21.9974 41.2668 21.9803 41.2316 21.9666C39.8613 23.9389 38.4875 25.9113 37.1172 27.8836Z" fill="#FFD391"/>
<g id="Vector_59" style="mix-blend-mode:multiply">
<path d="M42.1743 25.8807C42.1954 25.891 42.3962 26.0488 42.678 26.1723C42.7273 26.0008 42.7696 25.8396 42.8224 25.6681C43.0655 24.7865 43.3156 23.9084 43.5516 23.0268C43.46 22.9342 43.3614 22.8587 43.2557 22.7936C42.4526 22.1967 41.4874 21.9978 41.3535 21.9738C41.2549 22.3854 40.73 24.7934 42.1743 25.8807Z" fill="#FFD391"/>
</g>
<g id="Group_16">
<path id="Vector_60" d="M43.2943 24.566C44.6258 24.5317 45.6756 23.4889 45.6403 22.2404L45.5417 18.968C45.5276 18.4569 45.0697 18.0521 44.5237 18.0658L41.6809 18.1413C41.1349 18.155 40.7017 18.5838 40.7193 19.0949L40.8179 22.3673C40.8566 23.6159 41.9663 24.6003 43.2978 24.566H43.2943Z" fill="#FFD391"/>
<path id="Vector_61" d="M40.0395 21.1151C40.2121 21.537 40.427 21.8731 40.6243 22.1235C40.6912 22.2162 40.7581 22.2985 40.818 22.3705C41.3957 22.3499 41.9699 22.3362 42.5476 22.3225C43.541 21.2008 44.5449 20.086 45.5489 18.9712C45.5277 18.81 45.4819 18.6282 45.4009 18.4327C45.3199 18.2234 45.1931 18.0039 44.9958 17.8084C43.8298 16.5941 40.8673 16.8273 39.962 18.2783C39.3174 19.3074 39.881 20.6966 40.043 21.1185L40.0395 21.1151Z" fill="#FFD391"/>
</g>
<path id="Vector_62" d="M45.212 22.7958C45.124 23.2418 44.7787 23.5745 44.4159 23.6088C43.9298 23.6534 43.3591 23.1732 43.4049 22.4871C43.6727 22.6278 44.1235 22.8164 44.7012 22.8301C44.8915 22.8336 45.0641 22.8199 45.2156 22.7958H45.212Z" fill="white"/>
<path id="Vector_63" d="M30.8711 16.7586C30.8711 15.8256 31.5545 15.0332 32.4598 14.8617C33.2594 14.7142 34.1048 15.0812 34.5487 15.7879C34.6649 16.0691 34.7706 16.3436 34.8798 16.6248C35.0101 16.9473 35.1405 17.2766 35.2638 17.5921C35.306 17.7088 35.3554 17.8185 35.3976 17.9352C35.5984 18.4497 35.8063 18.9642 36.0035 19.489C36.3452 20.1442 36.6904 20.9503 36.9581 21.9004C37.1554 22.6036 37.2717 23.2519 37.3386 23.8248C37.3492 24.3805 37.3492 24.9567 37.328 25.5536C37.3034 26.3803 37.247 27.1692 37.173 27.9135C37.0321 27.8861 36.8736 27.8518 36.7045 27.8072C36.2924 27.7043 36.2501 27.6426 36.1515 27.6494C35.8626 27.6803 35.5244 29.0112 35.3976 29.4263C35.1757 30.1397 34.6227 31.083 33.1326 32.0298C33.0128 31.0384 32.111 23.6155 32.0018 22.8849C31.9913 22.8026 31.9772 22.7237 31.9772 22.7237C31.9455 22.5007 31.8786 22.0822 31.794 21.5677C31.7341 21.2213 31.6742 20.8577 31.6003 20.4769C31.5298 20.1099 31.4629 19.712 31.3783 19.3004C31.3643 19.2146 31.3502 19.1289 31.329 19.0465C31.329 19.0157 31.3255 18.9814 31.322 18.9539C31.1916 18.2747 31.0296 17.551 30.8711 16.7517V16.7586Z" fill="#FFD391"/>
<path id="Vector_64" d="M28.6284 5.28172C28.6143 5.23369 28.5298 4.97643 28.4487 4.61969C28.4065 4.43789 28.3677 4.24923 28.336 4.05028C28.2409 3.47058 28.2127 2.94233 28.2198 2.49298C29.0652 3.23047 29.9071 3.96796 30.7525 4.70545C31.0343 5.22683 33.2571 9.40136 34.4442 12.1524C34.5393 12.3685 34.6978 13.0854 34.8246 14.0287C34.9726 15.1366 34.9726 16.0936 34.9303 16.8277C33.7608 17.0472 32.5948 17.2633 31.4253 17.4829C31.3655 17.3079 31.2809 17.0575 31.1823 16.7557C31.1823 16.7557 30.9146 15.9324 30.6786 15.1401C30.0903 13.1471 28.9278 6.23531 28.6319 5.28172H28.6284Z" fill="#FFD391"/>
<g id="Group_17">
<path id="Vector_65" d="M57.9285 85.528C57.9461 85.6137 57.8686 85.6858 57.5516 85.943C57.372 86.0905 57.1958 86.214 57.1888 86.2277C57.1817 86.2518 56.5829 86.5948 56.5124 86.5776C56.5547 86.6702 50.9467 86.6428 50.5381 86.4747C49.9252 86.4576 48.2449 86.3581 47.8504 85.5726C47.7799 85.4491 47.6989 85.2707 47.7799 84.3789C47.7905 84.2417 47.7905 84.2245 47.794 84.1696C47.8011 84.077 47.8081 83.9844 47.8187 83.8918C47.8962 83.0685 48.0441 82.2933 48.2379 81.5764C48.333 81.7822 48.6817 82.5094 49.2207 82.5643C49.4461 82.5883 49.9146 82.6569 50.4395 82.4031C51.5984 82.9965 52.7257 83.5968 53.8564 84.2039C54.6138 84.4715 55.3782 84.7459 56.1426 85.0237C56.4209 85.0066 56.6498 85.0238 56.8013 85.0478C56.9528 85.0683 57.3121 85.1301 57.6679 85.3187C57.8299 85.4045 57.9144 85.4525 57.9321 85.5314L57.9285 85.528Z" fill="#FFD391"/>
<path id="Vector_66" d="M57.7564 85.6031L55.9281 85.4728C55.8753 85.4693 55.8365 85.4247 55.8401 85.3733C55.8436 85.3218 55.8894 85.2875 55.9422 85.2875L57.7634 85.4179C57.8162 85.4213 57.855 85.4659 57.8515 85.5174C57.8479 85.5654 57.8057 85.6031 57.7564 85.6031Z" fill="#FFD391"/>
<path id="Vector_67" d="M57.3691 85.949L55.7205 85.8495C55.6677 85.8461 55.6289 85.8015 55.6289 85.75C55.6324 85.6986 55.6782 85.6643 55.7311 85.6608L57.3726 85.7603C57.4254 85.7637 57.4642 85.8083 57.4642 85.8598C57.4642 85.9078 57.4184 85.949 57.3691 85.949Z" fill="#FFD391"/>
<path id="Vector_68" d="M54.8607 86.2985C54.8079 86.2985 54.7656 86.2574 54.7656 86.2059C54.7656 86.1545 54.8079 86.1133 54.8607 86.1133L56.9673 86.103C57.0201 86.103 57.0624 86.1442 57.0624 86.1956C57.0624 86.2471 57.0201 86.2883 56.9673 86.2883L54.8607 86.2985Z" fill="#FFD391"/>
</g>
<g id="Group_18">
<path id="Vector_69" d="M10.0818 52.2245C10.0008 52.1833 9.98673 52.0839 9.9656 51.6894C9.95503 51.4664 9.95855 51.2606 9.9515 51.2469C9.93389 51.2263 10.022 50.5746 10.0818 50.5334C9.97616 50.506 13.4847 46.4069 13.8792 46.2114C14.2737 45.7723 15.401 44.5992 16.3063 44.7981C16.4507 44.8222 16.6515 44.877 17.349 45.4876C17.4546 45.5802 17.4722 45.5905 17.5145 45.6283C17.5145 45.6283 17.6026 45.6969 17.7329 45.8169C17.8316 45.9061 18.5361 46.8014 19.4308 48.0808C19.2758 47.9814 18.3776 47.4051 17.976 47.6726C17.8527 47.755 17.4899 47.9951 17.3525 48.6674C16.1372 49.151 14.936 49.6038 13.7242 50.0566C13.0303 50.4477 12.3257 50.8353 11.6212 51.2263C11.4627 51.4424 11.3042 51.5968 11.1915 51.6962C11.0787 51.7957 10.804 52.0187 10.4271 52.1627C10.2509 52.2279 10.1629 52.2622 10.0854 52.2245H10.0818Z" fill="#FFD391"/>
<path id="Vector_70" d="M10.2093 52.202C10.1846 52.202 10.16 52.1917 10.1423 52.1746C10.1036 52.1403 10.1036 52.0785 10.1423 52.0408L11.3858 50.7854C11.4246 50.7476 11.4845 50.7476 11.5232 50.7854C11.562 50.8197 11.562 50.8814 11.5232 50.9192L10.2797 52.1746C10.2621 52.1952 10.2375 52.202 10.2093 52.202Z" fill="#FFD391"/>
<path id="Vector_71" d="M10.1525 51.6992C10.1278 51.6992 10.1067 51.6924 10.0856 51.6752C10.0468 51.6409 10.0433 51.5826 10.082 51.5414L11.1846 50.3957C11.2198 50.358 11.2833 50.358 11.322 50.3923C11.3608 50.4266 11.3643 50.4849 11.3255 50.5261L10.223 51.6718C10.2053 51.6924 10.1772 51.6992 10.1525 51.6992Z" fill="#FFD391"/>
<path id="Vector_72" d="M10.1263 51.1947C10.1052 51.1947 10.084 51.1878 10.0664 51.1741C10.0242 51.1433 10.0206 51.0815 10.0523 51.0438L11.3522 49.4899C11.3839 49.4487 11.4473 49.4419 11.486 49.4762C11.5283 49.5071 11.5318 49.5688 11.5001 49.6065L10.2003 51.1604C10.1827 51.1844 10.1545 51.1947 10.1263 51.1947Z" fill="#FFD391"/>
</g>
<g id="Vector_73" style="mix-blend-mode:multiply">
<path d="M43.1281 62.2421C43.2021 62.3176 43.262 62.3828 43.3219 62.4582C43.3888 62.5645 43.4628 62.6675 43.5227 62.7738C43.5438 62.8218 43.5826 62.8733 43.6037 62.9076C43.6847 63.0413 43.7622 63.1683 43.8503 63.2918C43.97 63.4804 44.0898 63.6622 44.2096 63.8543C44.3223 64.0292 44.428 64.2042 44.5477 64.3791C44.4597 64.8216 44.3822 65.2332 44.3293 65.6346C44.5689 65.5214 44.8225 65.3979 45.0832 65.2435C45.129 65.2161 45.1712 65.1886 45.217 65.1578C45.756 64.8079 46.1822 64.3997 46.5204 64.0018C47.2003 63.1888 47.5067 62.369 47.6265 61.9883C46.1294 62.074 44.6252 62.1564 43.1211 62.2421H43.1281Z" fill="#FFD391"/>
</g>
<path id="Vector_74" d="M34.8235 54.5112C35.5351 55.7221 36.2466 56.9295 36.9547 58.1403C37.2823 58.7098 37.6205 59.2689 37.9481 59.8383C38.9414 61.5294 39.9383 63.2273 40.9317 64.9149C41.6644 64.9527 43.0347 64.9218 44.5529 64.2941C46.5502 63.4777 47.6282 62.1091 48.0403 61.5191C47.209 59.6531 46.3812 57.7905 45.5498 55.9244C45.2892 55.3276 45.0179 54.7239 44.7502 54.1167C43.4785 51.2594 42.2139 48.4055 40.9423 45.5482C38.5046 45.4693 36.0705 45.3869 33.6329 45.308C33.1679 45.9118 32.5268 46.9408 32.3295 48.3163C31.8434 51.7053 34.4607 54.1751 34.82 54.5078L34.8235 54.5112Z" fill="#31A1A8"/>
<path id="Vector_75" d="M38.3057 26.2663C38.2881 26.2663 38.267 26.2629 38.2529 26.2491C38.2106 26.2217 38.1965 26.1634 38.2282 26.1188L40.5073 22.8395C40.539 22.7984 40.5954 22.7847 40.6412 22.8155C40.6835 22.8464 40.6976 22.9013 40.6658 22.9459L38.3867 26.2251C38.3691 26.2526 38.3374 26.2663 38.3057 26.2663Z" fill="#FFD391"/>
<path id="Vector_76" d="M38.8572 29.202C38.815 29.202 38.7762 29.1746 38.7656 29.1334L37.2263 23.7583C37.2122 23.7103 37.2404 23.6589 37.2932 23.6451C37.346 23.628 37.3989 23.6589 37.413 23.7103L38.9523 29.0854C38.9664 29.1334 38.9382 29.1849 38.8854 29.1986C38.8784 29.1986 38.8678 29.202 38.8607 29.202H38.8572Z" fill="#FFD391"/>
<path id="Vector_77" d="M37.336 31.7116C37.2585 31.6944 37.2303 31.643 37.2444 31.595C37.417 30.9707 37.4558 30.3327 37.3677 29.7049C37.1881 28.4529 36.5364 27.5474 36.0221 27.0088C35.9869 26.9711 35.9869 26.9128 36.0256 26.875C36.0644 26.8407 36.1242 26.8407 36.163 26.8785C36.6984 27.4376 37.3748 28.374 37.5579 29.6741C37.6531 30.3292 37.6073 30.9878 37.4311 31.6396C37.4206 31.6807 37.3818 31.7082 37.3395 31.7082L37.336 31.7116Z" fill="#FFD391"/>
<path id="Vector_78" d="M40.0352 21.1168C40.2078 21.5387 40.4227 21.8749 40.62 22.1253C40.9722 21.9572 41.3456 21.6622 41.712 21.3741C42.885 20.4479 42.723 19.8888 43.7234 19.1719C44.3892 18.6951 44.988 18.5613 45.3931 18.4275C45.3121 18.2183 45.1853 17.9988 44.988 17.8033C43.822 16.589 40.8595 16.8222 39.9542 18.2732C39.3096 19.3022 39.8732 20.6915 40.0352 21.1134V21.1168Z" fill="#131944"/>
<path id="Vector_79" d="M42.2528 21.158C42.2246 21.7308 41.8688 22.1802 41.4566 22.163C41.0445 22.1459 40.7275 21.6691 40.7556 21.0962C40.7838 20.5234 41.1396 20.074 41.5518 20.0912C41.9639 20.1083 42.2809 20.5851 42.2528 21.158Z" fill="#FFD391"/>
<path id="Vector_80" d="M39.9528 18.2767C39.981 18.4105 40.7278 18.5717 42.2249 18.8839C42.9224 19.0313 43.6797 19.1788 44.6555 19.1171C45.2438 19.0794 45.5749 19.0554 45.6911 18.853C45.9342 18.4208 45.1064 17.3231 44.0637 16.9252C42.239 16.2289 39.8436 17.7176 39.9528 18.2733V18.2767Z" fill="#00010E"/>
<path id="Vector_81" d="M39.1172 17.1057C39.1172 17.7711 39.5998 18.3097 40.1916 18.3097C40.7834 18.3097 41.266 17.7711 41.266 17.1057C41.266 16.4402 40.7834 15.9017 40.1916 15.9017C39.5998 15.9017 39.1172 16.4402 39.1172 17.1057Z" fill="#00010E"/>
<path id="Vector_82" d="M45.5883 18.5288C45.6447 18.5837 45.2396 19.2663 44.4646 19.5373C43.8165 19.7637 43.2141 19.5922 42.9922 19.5167C43.2388 19.5133 43.591 19.4824 43.9856 19.3727C45.0001 19.088 45.532 18.4774 45.5883 18.5323V18.5288Z" fill="#00010E"/>
<path id="Vector_83" d="M40.8458 17.0603C40.8916 17.0191 41.2121 16.7172 41.1734 16.261C41.1276 15.7362 40.6485 15.4789 40.6133 15.4618L40.8458 17.0603Z" fill="#00010E"/>
</g>
<g id="Group_19">
<path id="Vector_84" d="M0.0898871 6.97154C0.12159 7.57182 15.0644 6.67311 47.0919 6.67311C78.9714 6.67311 93.7452 7.56839 93.7734 6.97154C93.8086 6.24777 72.1657 3.54822 46.7185 3.56194C21.5108 3.57909 0.0546611 6.2512 0.0898871 6.97154Z" fill="#FCDD2B"/>
<path id="Vector_85" d="M13.3067 7.23532C14.7615 7.09812 16.2164 6.96434 17.6712 6.82713C17.2802 5.80837 16.3784 3.93206 14.367 2.44679C13.4406 1.76419 11.6722 0.45386 9.41071 0.680252C8.78017 0.745425 8.27644 0.910074 7.94531 1.04385C7.97349 1.11931 8.02633 1.23937 8.13201 1.34914C8.67449 1.91512 9.69604 1.35943 10.7493 1.68529C11.4292 1.89454 12.0703 2.45365 12.3063 3.08824C12.7149 4.16531 11.7145 4.90966 12.102 5.9936C12.3239 6.61103 12.8699 7.00207 13.3032 7.23532H13.3067Z" fill="#FCDD2B"/>
</g>
<path id="Vector_86" d="M29.265 7.01381C29.6067 7.06526 30.1034 7.10299 30.6881 7.01381C31.1531 6.94521 31.53 6.81829 31.8083 6.70166C31.9246 5.92987 32.0373 5.15465 32.1535 4.38286C32.1711 4.33827 32.4917 3.49445 31.9739 2.95248C31.8365 2.80841 31.6745 2.72266 31.53 2.66777C31.4243 2.69522 31.2553 2.72266 31.0615 2.68836C30.7727 2.6369 30.7163 2.49627 30.431 2.42423C30.1245 2.34877 30.0928 2.48598 29.7758 2.42423C29.4165 2.3522 29.3848 2.16011 29.0748 2.13953C28.8141 2.12238 28.6063 2.239 28.5358 2.27673C28.1554 2.48941 28.173 2.79469 27.9264 2.83928C27.6552 2.88731 27.5037 2.55115 27.2712 2.58888C27.1197 2.61632 26.9436 2.80155 26.8203 3.47387C27.634 4.65042 28.4478 5.8304 29.2615 7.00695L29.265 7.01381Z" fill="#FFD391"/>
<path id="Vector_87" d="M41.6754 3.55977H44.6227C45.0603 3.55977 45.4153 3.23383 45.4153 2.8321C45.4153 2.43037 45.0603 2.10443 44.6227 2.10443H41.6754C41.2378 2.10443 40.8828 2.43037 40.8828 2.8321C40.8828 3.23383 41.2378 3.55977 41.6754 3.55977Z" fill="#FFD391"/>
</g>
<g id="Group_20">
<g id="Group_21">
<path id="Vector_88" d="M90.8198 38.3734C90.7231 38.6772 90.6294 38.981 90.5327 39.2848C90.8542 39.462 91.1757 39.6393 91.4972 39.8165C91.9872 38.693 92.3056 37.8575 92.3524 37.6835C92.3961 37.5189 92.4149 37.4334 92.4149 37.4334C92.4367 37.3385 92.443 37.2784 92.4617 37.1992C92.4835 37.1075 92.5054 37.041 92.5116 37.0189C92.6022 36.7245 92.6427 36.3479 92.6833 35.9365C92.6958 35.8163 92.7114 35.658 92.6209 35.5599C92.6115 35.5472 92.5491 35.4871 92.5054 35.5029C92.4648 35.5188 92.4586 35.5852 92.4554 35.6105C92.4274 35.8257 92.3805 36.0409 92.3556 36.2593C92.3337 36.4429 92.2463 36.7499 92.084 36.8543C91.8374 37.0094 91.3317 36.753 90.8417 36.234C90.8323 36.2941 90.8167 36.3796 90.8042 36.4872C90.7636 36.8226 90.7917 36.9461 90.7043 37.022C90.6201 37.0948 90.4921 37.0695 90.439 37.06C90.2361 37.022 90.2205 36.8701 89.9895 36.7467C89.7741 36.6296 89.4963 36.6043 89.4495 36.6866C89.4308 36.7182 89.4495 36.7593 89.4558 36.7815C89.4995 36.8954 89.6274 36.9271 89.7055 36.9746C89.8865 37.0758 89.9208 37.3068 89.9614 37.4366C90.0301 37.655 90.2299 37.9651 90.8167 38.3734H90.8198Z" fill="#FCC572"/>
<path id="Vector_89" d="M91.8242 36.6027C91.9834 36.647 92.1395 36.6913 92.2987 36.7324C92.2924 36.2767 92.2831 35.8178 92.2768 35.3621C92.2768 35.2861 92.2675 35.1279 92.1957 35.1026C92.1707 35.0931 92.1488 35.1026 92.1332 35.1089C91.9959 35.169 91.974 35.4286 91.9709 35.4665C91.921 35.8463 91.871 36.2229 91.8242 36.6027Z" fill="#FCC572"/>
<path id="Vector_90" d="M91.332 36.3828C91.485 36.4398 91.6348 36.4936 91.7878 36.5505C91.8471 36.2087 91.8689 35.9176 91.8752 35.696C91.9001 35.0346 91.8034 34.8795 91.7035 34.8004C91.6785 34.7814 91.5849 34.7086 91.5162 34.7403C91.3789 34.8036 91.4975 35.196 91.4569 35.7277C91.435 36.0157 91.3757 36.2435 91.332 36.3828Z" fill="#FCC572"/>
<path id="Vector_91" d="M90.8398 36.2335C90.999 36.2715 91.1613 36.3095 91.3205 36.3474C91.2987 36.1069 91.28 35.8696 91.2612 35.6291C91.2425 35.4993 91.2269 35.3695 91.2082 35.2366C91.2019 34.9676 91.1333 34.7746 91.0646 34.7682C90.9959 34.7619 90.9054 34.9328 90.8554 35.1733C90.8554 35.3094 90.8555 35.4455 90.8492 35.5847C90.8492 35.7999 90.843 36.0152 90.8398 36.2272V36.2335Z" fill="#FCC572"/>
<path id="Vector_92" d="M91.8668 36.9873L92.3069 37.0031L92.3194 36.6771C92.1602 36.6233 91.9979 36.5664 91.8387 36.5126C91.5172 36.405 91.1988 36.2974 90.8773 36.1898C90.8648 36.2024 90.8523 36.2182 90.8398 36.2309C90.8617 36.31 90.8804 36.3891 90.9023 36.4714C91.2238 36.6423 91.5453 36.8132 91.8668 36.9841V36.9873Z" fill="#FCC572"/>
</g>
<path id="Vector_93" d="M83.7025 74.0148C83.7368 74.2079 83.768 74.4136 83.8117 74.5813C83.9522 75.2649 84.1613 75.8662 84.4547 76.553C84.6045 76.8916 84.7731 77.2555 84.9541 77.6511C85.1633 78.1069 85.4036 78.6227 85.6721 79.2145C85.747 79.3664 85.8219 79.5278 85.8875 79.7051C86.0466 80.0437 86.2214 80.4678 86.4212 80.9488C86.4805 81.0849 86.5461 81.2463 86.6054 81.3982C86.7302 81.702 86.8645 82.0248 86.9987 82.3698C87.0486 82.5122 87.0986 82.6673 87.1579 82.8255C87.2078 82.9268 87.2422 83.0534 87.2921 83.1641C87.5761 83.0122 87.8508 82.8666 88.1349 82.7084C88.3346 82.6071 88.5344 82.4964 88.728 82.3951C88.7123 82.2843 88.6936 82.1672 88.678 82.066C88.678 81.9805 88.6624 81.9046 88.6437 81.8191C88.6343 81.7843 88.6343 81.7432 88.6281 81.7083C88.5875 81.4647 88.5438 81.2273 88.5126 80.9899C88.5126 80.9741 88.5032 80.9646 88.5126 80.9488C88.4626 80.6703 88.4127 80.3918 88.3721 80.1196C88.3222 79.7304 88.2816 79.2747 88.2566 78.7746C88.2223 78.3189 88.1973 77.8189 88.1723 77.2935C88.1318 76.7175 88.0818 76.1004 87.9882 75.458C87.8383 74.23 87.5637 72.9293 87.0455 71.6697C86.98 71.5083 86.7521 71.0368 86.7458 71.0178C86.7458 71.0178 86.6959 70.9165 86.6709 70.8659C86.6709 70.7741 86.6366 70.7045 86.6116 70.6633C86.4868 70.5019 86.2932 70.4355 86.0529 70.4355C85.9374 70.445 85.8188 70.4703 85.6939 70.5019C85.6096 70.5019 85.5441 70.4861 85.4598 70.4861C85.31 70.4766 85.1758 70.4861 85.0166 70.5273C85.001 70.5178 84.9916 70.5178 84.976 70.5273C84.9417 70.5368 84.2924 71.1444 83.8835 71.1096C83.8585 71.1096 83.7992 71.1001 83.7337 71.0684C83.7337 71.1286 83.7243 71.1697 83.7243 71.2109C83.7087 71.4039 83.6993 71.559 83.6837 71.6602C83.6837 71.7109 83.6744 71.828 83.6587 71.9989C83.6494 72.059 83.6431 72.135 83.6431 72.2014C83.6182 72.7268 83.6182 73.3439 83.7087 74.0117L83.7025 74.0148Z" fill="#FCC572"/>
<path id="Vector_94" d="M77.3795 62.2067C77.3951 62.232 77.5637 62.5453 77.829 62.9093C77.9695 63.1213 78.0881 63.2637 78.1536 63.3397L81.35 67.5172L82.327 68.7957L82.5861 69.1344L82.8358 69.4572C82.8514 69.4825 83.0449 69.7293 83.0449 69.7293C83.0949 69.7958 83.1292 69.8559 83.1791 69.9161C83.2135 69.992 83.2541 70.0585 83.279 70.1186C83.2946 70.1534 83.304 70.1787 83.3134 70.2104C83.3789 70.3465 83.4476 70.4889 83.5038 70.625C83.5631 70.7167 83.6037 70.8022 83.6442 70.9035C83.6692 70.9636 83.6942 71.0142 83.7285 71.0712C83.7441 71.1218 83.7629 71.1566 83.7785 71.1978C83.8877 71.4351 83.9938 71.6725 84.1031 71.9004C84.4277 71.6029 84.9209 71.4699 85.3111 71.587C85.7543 71.7041 85.9947 72.0776 85.8854 72.4827C86.1944 72.1092 86.4785 71.6377 86.6034 71.0617C86.6127 71.0016 86.6283 70.9351 86.6283 70.8686C86.6283 70.8528 86.619 70.8433 86.619 70.8275C86.6034 70.7674 86.594 70.7104 86.5784 70.6408C86.544 70.53 86.5191 70.4129 86.4785 70.2927C86.4535 70.1914 86.4286 70.0806 86.3942 69.9699C86.26 69.4287 86.0852 68.878 85.8854 68.2957C85.8761 68.2546 85.8511 68.2039 85.8448 68.1596C85.6857 67.7039 85.5015 67.2197 85.3017 66.7386C85.2362 66.5519 85.1613 66.3652 85.0863 66.188C84.1593 64.0138 83.0761 62.213 82.1085 60.7921C81.7901 60.5737 81.4499 60.3427 81.0815 60.1148C80.7975 59.9471 80.5072 59.7667 80.1888 59.5989C79.8142 59.3869 79.4366 59.1939 79.0713 59.0071C78.9964 59.0989 78.188 60.0737 77.6948 60.9535C77.4201 61.4693 77.2359 61.944 77.3764 62.2035L77.3795 62.2067Z" fill="#FCC572"/>
<path id="Vector_95" d="M73.3194 71.441C73.3444 71.5834 73.335 71.7132 73.3038 71.8303L73.4537 71.9569C73.5879 72.0581 74.003 72.3619 74.0218 72.3809C74.0218 72.3809 74.0717 72.4157 74.1216 72.4474C74.1872 72.4474 74.2465 72.4379 74.3121 72.4221C74.3714 72.4063 74.4463 72.4063 74.5025 72.3714C74.5181 72.3619 74.5181 72.3556 74.5368 72.3461C74.5774 72.305 74.6273 72.2702 74.6866 72.229C74.8521 72.0866 75.03 71.9505 75.2204 71.7986C75.6449 71.4505 76.0788 71.0644 76.5127 70.6498C76.5626 70.6087 76.5969 70.5739 76.6219 70.5485C76.8373 70.346 77.0651 70.1245 77.2899 69.8966C77.4147 69.7605 77.5583 69.6181 77.6894 69.4725C77.8237 69.3301 77.9579 69.194 78.089 69.0421C79.375 67.637 80.3988 66.235 81.2073 64.9659C81.4071 64.6684 81.5819 64.3836 81.7504 64.1019C81.8753 63.4089 81.9845 62.6556 82.0501 61.836C82.0844 61.4056 82.1094 60.9815 82.125 60.5669C81.9408 60.5163 79.0379 59.6523 78.5634 60.2884C78.5385 60.3137 78.3293 60.6017 78.1046 60.991C77.9797 61.2094 77.8892 61.3802 77.8455 61.4657L77.5708 61.9816L75.3765 66.1242L74.8177 67.1654L74.6179 67.5452L74.4275 67.9186L74.2371 68.2826C74.2215 68.3079 74.0717 68.5864 74.0717 68.5864C74.0374 68.6623 73.9968 68.713 73.9624 68.7889C73.9125 68.8491 73.8719 68.906 73.822 68.9567C73.797 68.9915 73.7814 69.0073 73.7471 69.0326C73.6566 69.1497 73.5567 69.2605 73.463 69.3807C73.3975 69.4662 73.3288 69.5421 73.2632 69.6276C73.0291 69.8966 72.7794 70.1783 72.5547 70.4568C72.948 70.634 73.2632 71.0327 73.3226 71.4473L73.3194 71.441Z" fill="#FCC572"/>
<path id="Vector_96" d="M77.1797 62.7178C78.8621 62.3286 80.5415 61.9361 82.2239 61.5469C82.5048 59.993 82.7358 58.2619 82.8544 56.3662C83.023 53.7932 82.945 51.445 82.7546 49.3942C82.7202 49.0493 82.689 48.7201 82.6484 48.391C81.8868 48.2106 81.1345 48.0175 80.3667 47.8372C80.2761 47.8087 80.1887 47.7929 80.092 47.7739C79.9734 48.0619 79.8454 48.3593 79.7268 48.6473C79.5364 49.1031 79.3522 49.5556 79.1868 50.0145C78.9433 50.6854 78.4407 52.271 78.0755 54.173C77.3888 57.727 77.2109 61.9773 77.1828 62.7147L77.1797 62.7178Z" fill="#00010E"/>
<path id="Vector_97" d="M82.5419 45.7918C82.4732 46.3425 82.4108 46.9026 82.3483 47.4533C82.2921 47.8837 82.2422 48.3046 82.1923 48.735C82.1735 48.8806 82.1548 49.0357 82.1361 49.1844C81.5805 49.5642 80.9936 49.9914 80.3912 50.4883C79.8106 50.9662 79.2956 51.4346 78.8398 51.884C78.9366 51.1086 79.0708 50.2858 79.23 49.4376C79.2893 49.1243 79.358 48.8047 79.4173 48.4755C79.486 48.1717 79.5609 47.8236 79.7607 46.9786C79.8668 46.5324 80.0104 45.9659 80.1789 45.3013C80.2414 45.3456 80.3132 45.3962 80.3943 45.4405C80.4318 45.4722 80.4661 45.4912 80.5098 45.5133C80.6534 45.5924 80.8282 45.6684 81.028 45.7317C81.6866 45.9437 82.2578 45.8583 82.545 45.795L82.5419 45.7918Z" fill="#FCC572"/>
<g id="Vector_98" style="mix-blend-mode:multiply">
<path d="M82.5405 45.7936C82.4718 46.3443 82.4094 46.9044 82.3469 47.4551C82.2908 47.8855 82.2408 48.3064 82.1909 48.7368C81.5354 48.5596 80.8861 47.7937 80.5646 46.7652C80.4179 46.3031 80.3617 45.8506 80.3898 45.4391C80.4273 45.4708 80.4616 45.4898 80.5053 45.5119C80.6489 45.5911 80.8237 45.667 81.0235 45.7303C81.6821 45.9423 82.2533 45.8569 82.5405 45.7936Z" fill="#FCC572"/>
</g>
<g id="Group_22">
<path id="Vector_99" d="M78.8292 42.3836L80.006 45.2604L80.1215 45.5579C80.6147 46.7763 81.9819 47.3523 83.1742 46.8523C84.376 46.3522 84.9441 44.9566 84.4509 43.7476L83.2679 40.855L83.1586 40.5766C83.1181 40.5006 83.0681 40.4152 83.0088 40.3329C82.9745 40.2917 82.9495 40.2474 82.9089 40.2158C82.6405 39.9784 82.2503 39.9025 81.9007 40.048L79.3474 41.1146C78.8542 41.3266 78.6232 41.8931 78.8292 42.3931V42.3836Z" fill="#FCC572"/>
<path id="Vector_100" d="M78.9573 44.5978C79.2756 44.9617 79.6065 45.2244 79.8906 45.4111C79.9811 45.4712 80.056 45.5124 80.1247 45.5535C80.6428 45.3415 81.1579 45.1231 81.6667 44.9016C82.0412 43.8192 82.4096 42.7369 82.7841 41.6545C82.909 41.2906 83.0338 40.9266 83.1587 40.5722C83.1181 40.4962 83.0682 40.4108 83.0089 40.3285C82.9745 40.2874 82.9496 40.2431 82.909 40.2114C82.7498 39.993 82.5251 39.7715 82.2254 39.6196C80.724 38.8411 78.1207 40.1006 77.8367 41.8444C77.6275 43.0882 78.6451 44.2465 78.9541 44.6009L78.9573 44.5978Z" fill="#FCC572"/>
</g>
<path id="Vector_101" d="M84.2966 44.5025C84.3808 44.9266 84.1935 45.3253 83.9251 45.376C83.6473 45.4266 83.357 45.0975 83.332 44.6544C83.435 44.7019 83.6286 44.7683 83.8596 44.724C84.0624 44.6861 84.2123 44.5785 84.2966 44.5025Z" fill="white"/>
<path id="Vector_102" d="M90.3819 38.7921C90.5005 38.5453 90.6534 38.2699 90.8501 37.9756C91.0998 37.6054 91.3682 37.292 91.6148 37.0325C91.7116 37.599 91.8084 38.1655 91.9083 38.732C91.877 38.9915 91.8365 39.2732 91.7865 39.5738C91.721 39.9884 91.5493 41.0486 91.259 42.0107C90.847 43.3779 90.2633 44.321 89.7326 45.1754C88.6869 46.8591 88.1438 47.0996 87.8036 47.1851C87.3635 47.2958 86.967 47.2294 86.7017 47.1534C86.658 47.0901 86.6081 47.0047 86.5612 46.8971C86.5175 46.7958 86.4801 46.6755 86.4645 46.5426C86.4083 46.109 86.5737 45.7578 86.6736 45.5869C87.9097 43.3209 89.1458 41.0581 90.385 38.7921H90.3819Z" fill="#FCC572"/>
<path id="Vector_103" d="M88.1891 47.2281C88.47 46.6838 88.3326 46.0192 87.8894 45.6521C87.4961 45.3261 86.9218 45.2913 86.4629 45.5698C86.3131 45.6996 86.1726 45.8261 86.029 45.9591C85.8605 46.1078 85.6888 46.2597 85.5265 46.4085C85.4672 46.4654 85.4079 46.5129 85.3486 46.5699C85.0832 46.8104 84.8117 47.0477 84.5464 47.2946C84.125 47.6649 83.7129 48.0415 83.2947 48.4149C83.0699 48.608 82.8452 48.8168 82.6204 49.0194C82.1959 49.9625 81.7808 50.9056 81.3594 51.855C81.3781 51.9531 81.6528 53.2 82.4456 53.3709C82.5299 53.3899 82.6236 53.3962 82.7328 53.3836C84.7649 51.5544 85.4765 50.798 85.7138 50.4657C85.7387 50.4309 85.9416 50.1429 86.2257 49.7599C86.363 49.5764 86.5066 49.3833 86.6627 49.1808C86.8125 48.9877 86.9686 48.7757 87.1403 48.5637C87.1746 48.5194 87.2089 48.4719 87.2464 48.4307C87.2526 48.4118 87.2682 48.3928 87.2776 48.3801C87.5554 48.0225 87.8613 47.649 88.1891 47.2313V47.2281Z" fill="#00010E"/>
<g id="Group_23">
<path id="Vector_104" d="M92.6339 84.0241C92.6432 84.0874 92.6027 84.1444 92.4279 84.3406C92.328 84.4514 92.2312 84.5463 92.2281 84.559C92.225 84.578 91.8941 84.8375 91.8535 84.8248C91.8785 84.8976 88.7851 84.8723 88.5604 84.7457C88.2233 84.733 87.2962 84.6571 87.0777 84.0558C87.0403 83.9608 86.9935 83.8247 87.0372 83.1475C87.0434 83.0431 87.0434 83.0304 87.0434 82.9893C87.0434 82.9893 87.0434 82.9101 87.0559 82.7772C87.0652 82.6823 87.1245 82.1727 87.2182 81.4733C87.2931 81.543 87.5085 81.717 87.83 81.7645C88.1671 81.812 88.4168 81.6885 88.5011 81.6411C89.141 82.0936 89.759 82.5493 90.3833 83.0146C90.8016 83.2203 91.223 83.4292 91.6444 83.638C91.7973 83.6254 91.9222 83.638 92.0096 83.657C92.0939 83.6728 92.2905 83.7203 92.4872 83.8627C92.5777 83.9292 92.6245 83.964 92.6339 84.0241Z" fill="#FCC572"/>
<path id="Vector_105" d="M92.5333 84.1201L91.5188 84.0188C91.4595 84.0125 91.4189 83.9619 91.422 83.8986C91.4283 83.8385 91.4689 83.7878 91.5407 83.8005L92.5458 83.9017C92.6051 83.9081 92.6456 83.9587 92.6425 84.022C92.6363 84.079 92.5894 84.1201 92.5364 84.1201H92.5333Z" fill="#FFD391"/>
<path id="Vector_106" d="M92.3232 84.3828L91.4086 84.3069C91.3493 84.3005 91.3056 84.2499 91.3088 84.1898C91.315 84.1296 91.3681 84.0885 91.4242 84.0885L92.3295 84.1645C92.3888 84.1708 92.4325 84.2214 92.4293 84.2816C92.4231 84.3385 92.3763 84.3828 92.3232 84.3828Z" fill="#FFD391"/>
<path id="Vector_107" d="M90.9374 84.6491C90.8781 84.6491 90.8312 84.6017 90.8281 84.5415C90.8281 84.4814 90.8749 84.4339 90.9343 84.4308L92.0954 84.4213C92.1547 84.4213 92.2015 84.4687 92.2047 84.5289C92.2047 84.589 92.1578 84.6365 92.0985 84.6396L90.9374 84.6491Z" fill="#FFD391"/>
</g>
<g id="Group_24">
<path id="Vector_108" d="M65.2745 76.3454C65.3806 76.3011 65.4868 76.2505 65.5835 76.2156C65.6585 76.1903 65.7271 76.1555 65.8052 76.1144C65.8364 76.0954 65.8707 76.089 65.9019 76.0701C66.1236 75.9688 66.3389 75.8675 66.5606 75.7757C66.5793 75.7726 66.5824 75.7568 66.598 75.7599C66.8508 75.6428 67.1037 75.5226 67.3565 75.415C67.7124 75.2631 68.1369 75.1111 68.6082 74.9497C69.0327 74.8042 69.5072 74.6586 69.9941 74.494C70.531 74.3105 71.1085 74.0984 71.7047 73.8421C72.7784 73.4022 73.8897 72.842 74.9197 72.0666L75.0789 71.9496C75.1788 71.8736 75.2849 71.785 75.3911 71.6869C75.5066 71.5824 75.6096 71.478 75.7032 71.3767C75.7188 71.3134 75.7282 71.2596 75.7344 71.2185C75.75 71.1077 75.7438 71.0603 75.7344 71.0159C75.7313 70.997 75.7219 70.997 75.7188 70.978C75.6876 70.9273 75.6689 70.8704 75.6439 70.8007C75.5471 70.6014 75.4597 70.3957 75.363 70.171C75.1351 69.6678 74.8698 69.1456 74.5795 68.6171C74.4203 68.6297 74.3048 68.6424 74.2268 68.6487C74.18 68.6645 74.0613 68.6867 73.9022 68.712C73.8397 68.7215 73.7679 68.731 73.7024 68.7468C73.1936 68.8608 72.6036 69.0158 71.9887 69.2753C71.8139 69.3513 71.6266 69.4431 71.4768 69.5285C71.3676 69.5886 71.2583 69.6456 71.1459 69.7152C70.6746 69.9779 70.2376 70.2849 69.7663 70.6615C69.476 70.8925 69.1732 71.1457 68.8423 71.4274C68.4615 71.747 68.0339 72.1173 67.5344 72.5319C67.4096 72.649 67.2722 72.7597 67.1224 72.8705C66.8384 73.111 66.4763 73.3927 66.0705 73.7092C65.9612 73.8041 65.8239 73.9085 65.6866 74.0035C65.4275 74.2092 65.1621 74.4181 64.8656 74.6396C64.7408 74.7282 64.6065 74.8168 64.4692 74.9118C64.3818 74.9846 64.2694 75.0542 64.1758 75.1238C64.4005 75.3643 64.6065 75.6017 64.8313 75.8422C64.978 76.0099 65.1372 76.1745 65.2745 76.3391V76.3454Z" fill="#FCC572"/>
<g id="Group_25">
<path id="Vector_109" d="M64.458 80.0996C64.3955 80.1186 64.3362 80.0838 64.1177 79.9351C63.996 79.8528 63.8899 79.7673 63.8774 79.7642C63.8586 79.7642 63.559 79.4667 63.5652 79.4255C63.4997 79.4603 63.0939 76.3526 63.1875 76.1089C63.1532 75.7671 63.1001 74.8271 63.6557 74.5265C63.74 74.4759 63.868 74.4126 64.5391 74.3619C64.6421 74.3556 64.6546 74.3524 64.6952 74.3461C64.6952 74.3461 64.7732 74.3366 64.9043 74.3303C64.998 74.3239 65.5068 74.3145 66.1997 74.3145C66.1435 74.3999 66.0031 74.6373 65.9999 74.9664C65.9999 75.3113 66.156 75.5455 66.2122 75.6247C65.8595 76.3304 65.4974 77.014 65.1322 77.7039C64.9917 78.1501 64.845 78.6027 64.6983 79.0553C64.7327 79.2072 64.7358 79.3369 64.7295 79.4224C64.7264 79.5078 64.7077 79.7135 64.5922 79.9287C64.5391 80.03 64.511 80.0806 64.4548 80.0965L64.458 80.0996Z" fill="#FCC572"/>
<path id="Vector_110" d="M64.4553 80.1102C64.3991 80.1102 64.3523 80.0659 64.3492 80.0058L64.3086 78.9836C64.3086 78.9234 64.3523 78.8728 64.4116 78.8696C64.4615 78.8728 64.5209 78.9139 64.524 78.9741L64.5646 79.9963C64.5646 80.0564 64.5208 80.107 64.4615 80.1102H64.4584H64.4553Z" fill="#FFD391"/>
<path id="Vector_111" d="M64.1711 79.9344C64.1149 79.9344 64.0681 79.8901 64.0649 79.8331L64.0119 78.9121C64.0088 78.852 64.0525 78.8014 64.1118 78.7982C64.1648 78.7982 64.221 78.8425 64.2241 78.8995L64.2772 79.8204C64.2803 79.8806 64.2366 79.9312 64.1773 79.9344H64.1711Z" fill="#FFD391"/>
<path id="Vector_112" d="M63.8854 79.742C63.8323 79.742 63.7886 79.7041 63.7793 79.6503L63.6107 78.4856C63.6014 78.4255 63.6419 78.3717 63.7012 78.3622C63.7637 78.3527 63.8136 78.3938 63.823 78.454L63.9915 79.6186C64.0009 79.6787 63.9603 79.7325 63.901 79.742C63.8948 79.742 63.8916 79.742 63.8854 79.742Z" fill="#FFD391"/>
</g>
</g>
<path id="Vector_113" d="M77.3803 62.207C77.3959 62.2323 77.5645 62.5456 77.8298 62.9095C77.9703 63.1216 78.0889 63.264 78.1544 63.3399L81.3508 67.5174L82.3278 68.796L82.5869 69.1346L82.8366 69.4574C82.8522 69.4827 83.0457 69.7296 83.0457 69.7296C83.0957 69.796 83.13 69.8562 83.1799 69.9163C83.2143 69.9923 83.2548 70.0587 83.2798 70.1188C83.2954 70.1537 83.3048 70.179 83.3141 70.2106C83.3797 70.3467 83.4484 70.4891 83.5046 70.6252C83.5639 70.717 83.6044 70.8024 83.645 70.9037C83.67 70.9638 83.695 71.0145 83.7293 71.0714C83.7293 71.1316 83.7199 71.1727 83.7199 71.2139C83.7449 71.2044 83.7605 71.2044 83.7792 71.198C84.5315 70.9449 85.2807 70.6917 86.0329 70.4448C86.1921 70.3942 86.3419 70.3435 86.4824 70.2929C86.4574 70.1916 86.4325 70.0809 86.3981 69.9701C86.2639 69.4289 86.0891 68.8783 85.8893 68.2959C85.88 68.2548 85.855 68.2042 85.8488 68.1599C85.6896 67.7041 85.5054 67.2199 85.3056 66.7389C85.2401 66.5522 85.1652 66.3654 85.0902 66.1882C84.1632 64.014 83.08 62.2133 82.1124 60.7923C81.794 60.5739 81.4538 60.3429 81.0855 60.1151C79.9586 60.3935 78.8255 60.6721 77.6987 60.9537C77.424 61.4696 77.2399 61.9443 77.3803 62.2038V62.207Z" fill="#00010E"/>
<path id="Vector_114" d="M74.8156 67.1652C75.6428 68.0798 76.4575 68.9849 77.2847 69.8964C77.4095 69.7603 77.5531 69.6179 77.6842 69.4723C77.8184 69.3299 77.9527 69.1938 78.0838 69.0419C79.3698 67.6367 80.3936 66.2348 81.2021 64.9657C79.991 63.9751 78.7736 62.9782 77.5656 61.9813L75.3712 66.124L74.8125 67.1652H74.8156Z" fill="#00010E"/>
<path id="Vector_115" d="M78.5117 52.2292C79.7603 52.1121 81.0089 51.9981 82.2606 51.8842C82.3792 50.6943 82.5009 49.5011 82.6195 48.3112C81.5926 48.1751 80.5687 48.0359 79.5418 47.8998C79.1984 49.3429 78.8551 50.786 78.5117 52.2292Z" fill="#00010E"/>
<g id="Group_26">
<path id="Vector_116" d="M44.104 70.3143C44.9843 73.5265 61.1907 71.7669 80.3064 66.3868C93.2478 62.7474 104.207 58.3832 109.663 54.9431C112.26 53.3006 113.612 51.8764 113.328 50.8416C112.451 47.6388 96.2444 49.3984 77.1287 54.7753C66.9623 57.6363 58.0131 60.9434 52.0044 63.9057C46.7167 66.5008 43.6982 68.8237 44.1072 70.3143H44.104Z" fill="#F89A0B"/>
<g id="Vector_117" style="mix-blend-mode:multiply">
<path d="M44.1072 70.3151C44.9874 73.5273 61.1939 71.7677 80.3095 66.3877C93.2509 62.7482 104.21 58.384 109.667 54.9439C106.355 55.3332 99.9152 56.6972 97.3369 57.2795C87.751 59.4505 82.9565 60.5265 79.0609 62.7197C76.2017 64.3242 72.6994 66.7738 71.3354 65.6218C70.2866 64.7325 71.3884 62.4286 70.4302 61.7766C69.1098 60.8747 66.4847 64.9477 62.7233 66.2896C58.9839 67.6219 55.3412 65.8212 52.0044 63.9065C46.7167 66.5016 43.6982 68.8245 44.1072 70.3151Z" fill="#F89A0B"/>
</g>
</g>
<path id="Vector_118" d="M77.0753 57.3988C77.0503 58.0127 77.453 58.5539 78.0117 58.6963C78.5049 58.8197 79.0387 58.6014 79.3352 58.152C79.4164 57.9716 79.4882 57.7943 79.5631 57.6108C79.6536 57.4019 79.7441 57.1899 79.8284 56.9873C79.8565 56.9114 79.8908 56.8418 79.9221 56.7658C80.0625 56.4335 80.2061 56.1012 80.3403 55.7626C80.5651 55.2435 80.7805 54.7245 80.999 54.2055C81.1207 53.9333 81.2362 53.6485 81.3548 53.3669C81.3423 52.332 81.3205 51.2971 81.2986 50.2559C81.2393 50.1768 80.4652 49.1672 79.6786 49.3571C79.5974 49.3761 79.5069 49.4109 79.4133 49.471C78.3489 52.0028 78.0211 52.9966 77.9462 53.4017C77.9368 53.446 77.8775 53.7909 77.7808 54.2593C77.7339 54.4872 77.6871 54.7214 77.6309 54.9714C77.5779 55.2119 77.5248 55.4714 77.4592 55.7373C77.4468 55.7942 77.4374 55.848 77.4218 55.9018C77.4218 55.9208 77.4187 55.943 77.4156 55.9619C77.3157 56.405 77.1971 56.8766 77.0753 57.3956V57.3988Z" fill="#00010E"/>
<path id="Vector_119" d="M83.101 64.0709C83.3008 64.4729 83.4413 64.859 83.5474 65.2039C83.0105 65.0172 82.4736 64.8305 81.9399 64.6406C81.7307 64.4855 81.506 64.3146 81.2719 64.1279C80.9473 63.8684 80.1138 63.2038 79.424 62.4791C78.4408 61.4505 77.9101 60.4789 77.4294 59.5928C76.4181 57.7383 76.5741 57.1021 76.6272 56.9091C76.7833 56.3363 77.1797 55.9502 77.4669 55.7286C77.4887 55.7824 77.5293 55.8616 77.6073 55.928C77.701 56.0071 77.804 56.0261 77.829 56.0325C77.8945 56.0451 78.3534 56.1306 79.0806 56.6274C80.323 57.4756 82.8888 63.631 83.1073 64.0709H83.101Z" fill="#FCC572"/>
<path id="Vector_120" d="M80.9529 66.4578C81.0527 66.5053 82.0828 66.9642 83.038 66.3882C83.5998 66.0496 83.8402 65.5337 83.9213 65.328C83.6997 65.0242 83.4781 64.7172 83.2565 64.4134C83.3938 64.4451 84.3521 64.6508 84.4832 64.3596C84.5082 64.3026 84.5238 64.1824 84.3271 63.9355C83.8246 63.7646 83.3189 63.5906 82.8163 63.4197C82.1171 63.5051 81.4179 63.5874 80.7188 63.6729C80.7968 64.6001 80.8779 65.5274 80.956 66.4547L80.9529 66.4578Z" fill="#FCC572"/>
<path id="Vector_121" d="M78.9573 44.5989C79.2757 44.9628 79.6065 45.2255 79.8906 45.4122C79.9561 45.3774 79.9905 45.3268 80.0061 45.2603C80.0654 45.0831 80.0217 44.7793 80.0966 44.3805C80.3962 42.8741 81.9726 42.3677 82.7841 41.6588C83.0495 41.4309 83.2336 41.1778 83.268 40.855C83.268 40.8455 83.1587 40.5765 83.1587 40.5765C83.1181 40.5005 83.0682 40.4151 83.0089 40.3328C82.9746 40.2916 82.9496 40.2473 82.909 40.2157C82.7498 39.9973 82.5251 39.7758 82.2254 39.6239C80.724 38.8453 78.1207 40.1049 77.8367 41.8487C77.6275 43.0924 78.6451 44.2507 78.9541 44.6052L78.9573 44.5989Z" fill="#621222"/>
<path id="Vector_122" d="M76.1445 44.5021C76.1445 45.4357 76.8906 46.1921 77.8114 46.1921C78.7322 46.1921 79.4782 45.4357 79.4782 44.5021C79.4782 43.5685 78.7322 42.8121 77.8114 42.8121C76.8906 42.8121 76.1445 43.5685 76.1445 44.5021Z" fill="#621222"/>
<path id="Vector_123" d="M82.6311 40.5439C82.6717 40.6484 83.0525 41.6168 82.5156 42.4333C82.3065 42.7529 82.0318 42.9333 81.8477 43.0283L82.6311 40.5439Z" fill="#621222"/>
<path id="Vector_124" d="M79.332 44.1041C79.332 44.5661 79.6598 44.9364 80.0624 44.9364C80.4651 44.9364 80.7929 44.5629 80.7929 44.1041C80.7929 43.6452 80.4651 43.2686 80.0624 43.2686C79.6598 43.2686 79.332 43.642 79.332 44.1041Z" fill="#FCC572"/>
<g id="Vector_125" style="mix-blend-mode:multiply">
<path d="M105.934 51.1355C105.934 51.4203 106.161 51.6513 106.442 51.6513C106.723 51.6513 106.951 51.4203 106.951 51.1355C106.951 50.8507 106.723 50.6196 106.442 50.6196C106.161 50.6196 105.934 50.8507 105.934 51.1355Z" fill="#F89A0B"/>
</g>
<g id="Vector_126" style="mix-blend-mode:multiply">
<path d="M101.086 52.5873C101.086 53.3975 101.735 54.0526 102.534 54.0526C103.333 54.0526 103.979 53.3944 103.979 52.5873C103.979 51.7803 103.33 51.1189 102.534 51.1189C101.738 51.1189 101.086 51.7772 101.086 52.5873Z" fill="#F89A0B"/>
</g>
<g id="Vector_127" style="mix-blend-mode:multiply">
<path d="M95.5363 52.9013C95.0712 53.3729 95.0712 54.1388 95.5363 54.6103C96.0014 55.0818 96.7568 55.0818 97.2188 54.6103C97.6839 54.1388 97.6839 53.3729 97.2188 52.9013C96.7537 52.4298 95.9983 52.4298 95.5363 52.9013Z" fill="#F89A0B"/>
</g>
</g>
</g>
</g>
</g>
</svg>
