<svg width="92" height="81" viewBox="0 0 92 81" fill="none" xmlns="http://www.w3.org/2000/svg">
<g id="Group 618">
<g id="Group">
<path id="Vector" d="M45.7617 52.7544C57.02 63.5192 70.3478 63.0656 90.0556 52.743C70.3478 42.4192 57.02 41.9908 45.7617 52.7544Z" fill="#21A1AE" stroke="white" stroke-width="1.03879"/>
<path id="Vector_2" d="M45.7623 52.8186C62.8521 52.9043 72.5508 43.049 79.1881 21.1823C56.071 27.4623 45.6717 36.6525 45.7623 52.8186Z" fill="#79CFDC" stroke="white" stroke-width="0.866809" stroke-miterlimit="10"/>
<path id="Vector_3" d="M45.7626 52.7436C34.5031 41.9788 21.1765 42.4313 1.46875 52.755C21.1765 63.0799 34.5031 63.5061 45.7626 52.7436Z" fill="#21A1AE" stroke="white" stroke-width="1.03879"/>
<path id="Vector_4" d="M45.7625 52.8186C45.8543 36.6445 35.4272 27.4657 12.2969 21.1823C18.9402 43.0616 28.663 52.9031 45.7625 52.8186Z" fill="#79CFDC" stroke="white" stroke-width="0.866809" stroke-miterlimit="10"/>
<path id="Vector_5" d="M45.7742 52.5459C59.5683 39.6341 58.9908 24.3559 45.7573 1.75677C32.5261 24.357 31.9764 39.6353 45.7742 52.5459Z" fill="#CEE9ED" stroke="white" stroke-width="0.866809" stroke-miterlimit="10"/>
</g>
<path id="Vector_6" d="M78.0548 79.7948C78.0548 80.2415 76.4903 80.6026 74.5561 80.6026H18.0182C16.0876 80.6026 14.5195 80.2415 14.5195 79.7948V78.6361C14.5195 78.1882 16.0876 77.8271 18.0182 77.8271H74.5561C76.4903 77.8271 78.0548 78.1882 78.0548 78.6361V79.7948Z" fill="#FF8A3E"/>
<g id="Group_2">
<path id="Vector_7" d="M43.3742 77.7475C43.3742 77.7475 36.6535 79.0181 33.9631 79.4877C31.2751 79.9596 30.4028 79.6065 29.7807 79.0638C28.6873 78.112 26.4149 74.1824 27.5904 73.7894C28.6306 73.4408 33.3168 74.6372 33.3168 74.6372C33.3168 74.6372 42.9768 76.4266 43.2244 76.7568C43.4745 77.0882 43.8248 77.6058 43.3742 77.7475Z" fill="#FFD390"/>
<path id="Vector_8" d="M37.203 65.3092C37.203 65.3092 31.2313 65.1423 28.9396 65.5902C26.2962 66.1079 22.3639 69.0764 26.8967 72.6552C31.4258 76.2374 36.408 77.6005 41.7853 77.6005C47.1638 77.6005 61.8422 74.0983 63.0382 73.7201C64.2306 73.3442 70.3171 65.26 54.3834 65.356C38.4944 65.4497 37.203 65.3092 37.203 65.3092Z" fill="#3C3B3B"/>
<path id="Vector_9" d="M40.9141 77.4179C38.9195 76.1496 40.4333 72.1892 44.0177 72.0932C46.4786 72.0281 46.411 73.3193 49.8468 74.9658C51.4621 75.7417 55.5781 75.1955 58.5113 74.5911C61.3129 74.0129 64.489 73.5067 64.8853 74.2597C65.4338 75.2961 64.1302 79.4975 61.7418 79.2176C58.5971 78.844 53.5895 78.404 50.9921 78.2635C47.7532 78.0887 41.9036 78.0533 40.9141 77.4179Z" fill="#FFD390"/>
<path id="Vector_10" d="M36.5727 50.7848C35.9372 50.7643 35.9372 51.4693 35.6606 52.4794C35.1713 54.2687 33.5053 60.7681 32.9967 61.7336C31.1773 65.1958 26.0864 69.9469 25.2649 71.0061C24.4349 72.0745 24.0846 73.9381 23.7572 74.7323C22.9127 76.7821 21.3639 79.0469 19.8755 78.5007C18.1298 77.8608 18.5805 76.1925 19.9239 73.5096C20.1619 73.0389 19.7886 72.6481 19.1519 72.8263C18.5116 73.0046 17.4328 73.5325 17.2407 72.7909C17.0619 72.1065 18.2555 71.8379 19.0021 71.5546C19.7511 71.2712 21.6575 71.093 22.7387 69.6452C24.6258 67.1154 27.6038 62.9848 28.7986 59.5249C29.9958 56.0615 30.4319 44.0033 34.206 42.6321C36.145 41.9294 40.1137 41.9099 41.7373 40.2348C42.0974 39.8612 42.2592 38.9631 42.2592 38.9631C42.2592 38.9631 42.2689 37.6536 42.1348 37.1246C41.387 34.1834 37.9536 33.0339 37.6866 27.4087C37.3628 20.5769 40.1414 18.3099 45.6214 18.3099H45.5211C51.0023 18.3099 53.7797 20.578 53.4571 27.4087C53.1914 33.0076 49.7229 34.1914 48.9545 37.1029C48.8132 37.6399 48.8253 38.2878 48.9038 38.9859L48.9026 38.9551C49.0355 39.4761 49.1841 39.8532 49.5042 40.2074C51.0905 41.9739 54.966 41.9145 56.9377 42.6298C60.7118 44.001 61.1479 56.0592 62.3427 59.5226C63.5412 62.9825 66.5167 67.1143 68.4062 69.6429C69.4874 71.0907 71.3938 71.2689 72.1416 71.5523C72.8882 71.8357 74.0818 72.1042 73.9018 72.7886C73.7122 73.5302 72.6333 73.0034 71.9942 72.824C71.3564 72.6458 70.9831 73.0366 71.2186 73.5073C72.5645 76.1914 73.0103 77.8597 71.2694 78.4984C69.7822 79.0457 68.2298 76.7799 67.3829 74.73C67.0567 73.937 66.7064 72.0722 65.8813 71.0038C65.0585 69.9435 59.9664 65.1935 58.1482 61.7313C57.642 60.7658 55.9724 54.2676 55.4831 52.4771C55.2065 51.467 55.2065 50.762 54.571 50.7825" fill="#FFD390"/>
<path id="Vector_11" d="M54.1581 65.3094C54.1581 66.1813 50.2511 66.7926 45.5552 66.7926C40.8569 66.7926 37.0272 66.1813 37.0272 65.3094C37.0272 65.3094 39.1305 59.0546 38.431 56.7556C37.1202 53.7322 36.2589 53.1232 36.5609 50.4323C36.9511 46.9815 36.9789 45.4012 36.4062 42.0956C36.9511 41.9527 37.9635 41.8088 37.9635 41.8088C37.9635 41.8088 38.0396 50.646 45.5927 50.646C53.1445 50.646 53.2218 41.8088 53.2218 41.8088C53.2218 41.8088 54.2354 41.9527 54.7791 42.0956C54.2052 45.4024 54.2354 46.9815 54.6232 50.4323C54.9252 53.1232 54.0639 53.7334 52.7555 56.7556C52.0572 59.0558 54.1581 65.3094 54.1581 65.3094Z" fill="#B13A71"/>
<path id="Vector_12" d="M52.5586 30.9512C53.2037 31.1123 53.9105 30.581 54.1352 29.7663C54.3587 28.9539 54.018 28.1643 53.3729 28.0043" fill="#FFD390"/>
<path id="Vector_13" d="M38.6374 30.9511C37.9898 31.1122 37.2819 30.5809 37.0572 29.7662C36.8325 28.9537 37.1756 28.1642 37.8243 28.0042" fill="#FFD390"/>
<path id="Vector_14" d="M45.7689 18.9201C48.0381 18.9201 49.8777 18.1037 49.8777 17.0965C49.8777 16.0893 48.0381 15.2728 45.7689 15.2728C43.4997 15.2728 41.6602 16.0893 41.6602 17.0965C41.6602 18.1037 43.4997 18.9201 45.7689 18.9201Z" fill="#B13A71"/>
<path id="Vector_15" d="M45.5706 16.5872C46.835 16.5872 47.86 16.0393 47.86 15.3634C47.86 14.6875 46.835 14.1396 45.5706 14.1396C44.3062 14.1396 43.2812 14.6875 43.2812 15.3634C43.2812 16.0393 44.3062 16.5872 45.5706 16.5872Z" fill="#B13A71"/>
<path id="Vector_16" d="M38.0472 28.7392C38.6549 28.0113 40.4646 26.6025 42.6476 26.078C45.506 25.3913 49.1363 23.6247 49.1363 20.8276V20.831C49.2402 23.1391 51.3315 24.4143 52.1771 25.5924C52.6555 26.2574 53.117 27.4309 53.0844 28.7392L53.506 28.6272C54.0714 27.5371 54.6392 26.4848 54.6392 25.1947C54.6392 20.5979 50.6211 16.8706 45.6667 16.8706C40.711 16.8706 36.6953 20.5968 36.6953 25.1947C36.6953 26.3842 37.1628 27.5714 37.6485 28.5952C37.6473 28.5941 37.8394 28.6684 38.0472 28.7392Z" fill="#B13A71"/>
</g>
<g id="Group_3">
<path id="Vector_17" d="M45.5354 48.3094C47.0274 48.3105 48.6777 59.8443 45.5294 59.842C42.3823 59.8409 44.0386 48.3082 45.5354 48.3094Z" fill="#FFE27D"/>
<path id="Vector_18" d="M45.5273 59.842L45.5336 48.3094" stroke="white" stroke-width="0.323172" stroke-miterlimit="10"/>
</g>
<path id="Vector_19" d="M50.9992 41.2053C50.9992 45.6227 48.5818 48.7353 45.5905 48.7353C42.5992 48.7353 40.1758 45.617 40.1758 41.1996" stroke="white" stroke-width="0.484824" stroke-miterlimit="10" stroke-linecap="round"/>
<path id="Vector_20" d="M45.5273 49.847C46.1745 49.847 46.6992 49.3507 46.6992 48.7386C46.6992 48.1265 46.1745 47.6302 45.5273 47.6302C44.8801 47.6302 44.3555 48.1265 44.3555 48.7386C44.3555 49.3507 44.8801 49.847 45.5273 49.847Z" fill="#FF8A3E"/>
</g>
</svg>
