<svg width="83" height="90" viewBox="0 0 83 90" fill="none" xmlns="http://www.w3.org/2000/svg">
<g id="Group 646">
<path id="Vector" d="M20.9675 85.1788C20.9675 86.0902 20.3159 86.8289 19.5115 86.8289H12.3818C11.5774 86.8289 10.9258 86.0902 10.9258 85.1788V77.096C10.9258 76.1847 11.5774 75.4447 12.3818 75.4447H19.5115C20.3159 75.4447 20.9675 76.1847 20.9675 77.096V85.1788Z" fill="#364549"/>
<path id="Vector_2" d="M71.905 85.1788C71.905 86.0902 71.2534 86.8289 70.449 86.8289H63.3193C62.5149 86.8289 61.8633 86.0902 61.8633 85.1788V77.096C61.8633 76.1847 62.5149 75.4447 63.3193 75.4447H70.449C71.2534 75.4447 71.905 76.1847 71.905 77.096V85.1788Z" fill="#364549"/>
<g id="Vector_3">
<path d="M74.7766 71.7133V37.8126L70.8644 21.181C70.8644 21.181 69.2987 13.3462 41.4365 13.3462C13.5756 13.3462 12.0099 21.181 12.0099 21.181L8.09766 37.8126V71.7133" fill="#2F7E86"/>
<path d="M74.7766 71.7133V37.8126L70.8644 21.181C70.8644 21.181 69.2987 13.3462 41.4365 13.3462C13.5756 13.3462 12.0099 21.181 12.0099 21.181L8.09766 37.8126V71.7133" stroke="#2F7E86" stroke-width="0.648173" stroke-miterlimit="10"/>
</g>
<path id="Vector_4" d="M8.38755 40.8323C44.022 56.5786 33.2764 69.9335 41.618 69.9335C49.9621 69.9335 39.1421 56.6643 74.7766 40.918V37.8101L70.8644 21.1784C70.8644 21.1784 69.2987 13.3436 41.4365 13.3436C13.5756 13.3436 12.0099 21.1784 12.0099 21.1784L8.09766 37.8101V40.7791L8.38755 40.8323Z" fill="#FDFFFF" stroke="#2F7E86" stroke-width="0.648173" stroke-miterlimit="10"/>
<path id="Vector_5" d="M78.2422 75.6766C78.2422 76.4763 77.5828 77.1241 76.768 77.1241H5.92739C5.11387 77.1241 4.45312 76.4763 4.45312 75.6766V72.9697C4.45312 72.1713 5.11387 71.5222 5.92739 71.5222H76.768C77.5828 71.5222 78.2422 72.1713 78.2422 72.9697V75.6766Z" fill="#C5D1D4"/>
<path id="Vector_6" d="M78.8426 38.4255C80.6326 38.4255 82.0836 36.9829 82.0836 35.2033C82.0836 33.4237 80.6326 31.9811 78.8426 31.9811C77.0526 31.9811 75.6016 33.4237 75.6016 35.2033C75.6016 36.9829 77.0526 38.4255 78.8426 38.4255Z" fill="#C5D1D4"/>
<path id="Vector_7" d="M3.95067 38.4229C5.73992 38.4229 7.1904 36.9808 7.1904 35.202C7.1904 33.4231 5.73992 31.9811 3.95067 31.9811C2.16141 31.9811 0.710938 33.4231 0.710938 35.202C0.710938 36.9808 2.16141 38.4229 3.95067 38.4229Z" fill="#C5D1D4"/>
<path id="Vector_8" d="M20.5158 62.587C23.3118 62.587 25.5784 60.3335 25.5784 57.5537C25.5784 54.774 23.3118 52.5205 20.5158 52.5205C17.7198 52.5205 15.4531 54.774 15.4531 57.5537C15.4531 60.3335 17.7198 62.587 20.5158 62.587Z" fill="white"/>
<path id="Vector_9" d="M14.1237 53.3058C15.1305 53.3058 15.9466 52.4944 15.9466 51.4935C15.9466 50.4926 15.1305 49.6812 14.1237 49.6812C13.1169 49.6812 12.3008 50.4926 12.3008 51.4935C12.3008 52.4944 13.1169 53.3058 14.1237 53.3058Z" fill="#FCEC31"/>
<path id="Vector_10" d="M68.9089 53.3058C69.9156 53.3058 70.7318 52.4944 70.7318 51.4935C70.7318 50.4926 69.9156 49.6812 68.9089 49.6812C67.9021 49.6812 67.0859 50.4926 67.0859 51.4935C67.0859 52.4944 67.9021 53.3058 68.9089 53.3058Z" fill="#FCEC31" stroke="#2F7E86" stroke-width="0.0324086" stroke-miterlimit="10"/>
<path id="Vector_11" d="M61.9116 62.5896C64.7084 62.5896 66.9756 60.3355 66.9756 57.555C66.9756 54.7745 64.7084 52.5205 61.9116 52.5205C59.1149 52.5205 56.8477 54.7745 56.8477 57.555C56.8477 60.3355 59.1149 62.5896 61.9116 62.5896Z" fill="white"/>
<g id="Group">
<path id="Vector_12" d="M40.354 10.3198L26.1398 12.5143L12.2136 14.6643C12.2136 14.6643 10.9149 11.4803 21.335 9.87163L30.0826 8.52114C40.5052 6.91204 40.3425 10.3216 40.3425 10.3216L12.2021 14.666" fill="#FFE27D"/>
<path id="Vector_13" d="M26.7042 9.80595C26.7511 10.0381 26.1423 10.3133 25.9742 10.3358C25.8048 10.3584 25.1221 10.256 25.0752 10.0238L24.1933 3.06576C24.1461 2.83196 24.2434 2.6252 24.4128 2.60255C24.5821 2.57991 24.7568 2.75029 24.8041 2.98409L26.7042 9.80595Z" fill="#FFE27D"/>
</g>
<g id="Group_2">
<path id="Vector_14" d="M69.3496 15.1168L55.148 12.8329L41.2392 10.5961C41.2392 10.5961 41.0641 7.32717 51.474 9.0013L60.213 10.4067C70.6255 12.0813 69.3369 15.1148 69.3369 15.1148L41.2251 10.5938" fill="#FF8A3E"/>
<path id="Vector_15" d="M56.4817 10.5101C56.4354 10.7318 55.7496 10.8209 55.5825 10.7978C55.4155 10.7747 54.8043 10.506 54.8506 10.2843L56.7239 3.82296C56.7698 3.60278 56.9465 3.4416 57.1136 3.46473C57.2818 3.48802 57.3832 3.68769 57.3373 3.90787L56.4817 10.5101Z" fill="#FF8A3E"/>
</g>
<g id="Group_3">
<mask id="mask0_643_5358" style="mask-type:alpha" maskUnits="userSpaceOnUse" x="18" y="18" width="51" height="44">
<g id="Group_4">
<g id="Group_5" opacity="0.5">
<g id="Group_6">
<path id="Vector_16" d="M27.1172 59.7915C27.1172 60.5536 27.5755 61.1702 28.1409 61.1702C28.7077 61.1702 29.166 60.5523 29.166 59.7915V47.1597C29.166 46.3977 28.7064 45.781 28.1409 45.781C27.5742 45.781 27.1172 46.399 27.1172 47.1597V59.7915Z" fill="#FFDBAB"/>
<path id="Vector_17" d="M21.7227 59.7915C21.7227 60.5536 22.1823 61.1702 22.7477 61.1702C23.3144 61.1702 23.7728 60.5523 23.7728 59.7915V47.1597C23.7728 46.3977 23.3131 45.781 22.7477 45.781C22.181 45.781 21.7227 46.399 21.7227 47.1597V59.7915Z" fill="#FFDBAB"/>
<path id="Vector_18" d="M23.5463 44.9392H24.8051H26.0901H27.3476H29.8913V52.752H26.0901V51.5135H24.8051V52.752H21.0039V44.9392H23.5463Z" fill="#53B94A"/>
<g id="Group_7">
<path id="Vector_19" d="M24.8047 52.8023C24.8047 53.0307 24.994 53.2177 25.2225 53.2177H25.6704C25.9016 53.2177 26.0883 53.0294 26.0883 52.8023V49.9306C26.0883 49.7021 25.9003 49.5151 25.6704 49.5151H25.2225C24.9927 49.5151 24.8047 49.7021 24.8047 49.9306V52.8023Z" fill="white"/>
</g>
<path id="Vector_20" d="M18.8789 44.0948C18.8789 44.5635 19.2458 44.9425 19.699 44.9425C20.1521 44.9425 20.519 44.5635 20.519 44.0948V37.2635C20.519 36.7949 20.1521 36.4158 19.699 36.4158C19.2458 36.4158 18.8789 36.7949 18.8789 37.2635V44.0948Z" fill="#FFDBAB"/>
<path id="Vector_21" d="M23.957 36.1342C23.957 36.6029 24.6256 36.982 25.4509 36.982C26.2775 36.982 26.9473 36.6029 26.9473 36.1342V29.3029C26.9473 28.8343 26.2775 28.4552 25.4509 28.4552C24.6256 28.4552 23.957 28.8343 23.957 29.3029V36.1342Z" fill="#FFDBAB"/>
<path id="Vector_22" d="M20.8867 26.9911C20.8867 30.2393 23.0374 32.9941 25.5393 32.9941C28.0413 32.9941 29.9452 30.2393 29.9452 26.9911C29.9452 23.7443 27.9172 21.7411 25.4153 21.7411C22.9133 21.7411 20.8867 23.7443 20.8867 26.9911Z" fill="#FFDBAB"/>
<path id="Vector_23" d="M23.9448 24.8426C23.9448 24.8426 22.6168 26.0707 20.9414 26.0707C21.2874 23.3704 23.1574 21.7411 25.4138 21.7411C27.9158 21.7411 29.9437 23.7443 29.9437 26.9911C29.9437 27.3806 29.9163 27.7636 29.8627 28.1349C27.46 28.1349 25.4386 26.4874 23.9448 24.8426Z" fill="#364549"/>
<g id="Group_8">
<path id="Vector_24" d="M29.8452 35.7965L29.8622 37.4634V44.9373H20.9748V38.2307H18.3958L18.3945 36.4106H18.3958V36.4092L18.3945 36.4106C18.3945 36.3924 18.3958 36.3768 18.3958 36.3586V36.3301V36.3275C18.4468 33.6453 20.98 33.3948 20.98 33.3948H20.9787C21.1968 33.3948 22.4491 33.3948 24.0082 33.3935C24.0082 33.3961 24.0082 33.3974 24.0082 33.4C24.0082 34.1893 24.652 34.8306 25.4472 34.8306C26.2425 34.8306 26.8863 34.1906 26.8863 33.4C26.8863 33.3974 26.885 33.3948 26.885 33.3909" fill="#53B94A"/>
<path id="Vector_25" d="M21.0222 35.7965L21.0039 37.4634V44.9373H29.8913V38.2307H32.4716L32.4729 36.4106H32.4716V36.4092L32.4729 36.4106C32.4729 36.3924 32.4716 36.3768 32.4716 36.3586V36.3301V36.3275C32.4207 33.6453 29.8874 33.3948 29.8874 33.3948H29.8887C29.6706 33.3948 28.4183 33.3948 26.8592 33.3935C26.8592 33.3961 26.8592 33.3974 26.8592 33.4C26.8592 34.1893 26.2154 34.8306 25.4202 34.8306C24.6249 34.8306 23.9812 34.1906 23.9812 33.4C23.9812 33.3974 23.9812 33.3948 23.9812 33.3909" fill="#53B94A"/>
</g>
<path id="Vector_26" d="M30.3359 47.1521C30.3359 47.6208 30.7029 47.9999 31.1573 47.9999C31.6104 47.9999 31.9773 47.6208 31.9773 47.1521V37.2635C31.9773 36.7949 31.6104 36.4158 31.1573 36.4158C30.7029 36.4158 30.3359 36.7949 30.3359 37.2635V47.1521Z" fill="#FFDBAB"/>
<path id="Vector_27" d="M32.4709 36.4183H29.8867V38.2346H32.4709V36.4183Z" fill="#53B94A"/>
</g>
</g>
<g id="Group_9" opacity="0.5">
<g id="Group_10">
<path id="Vector_28" d="M63.6554 59.7112C63.6632 60.4628 64.1215 61.0678 64.6817 61.0626C65.2406 61.0574 65.6885 60.4421 65.6807 59.6904L65.5566 47.2144C65.5488 46.4627 65.0905 45.8578 64.5316 45.8629C63.9714 45.8681 63.5248 46.4835 63.5313 47.2352L63.6554 59.7112Z" fill="#FFDBAB"/>
<path id="Vector_29" d="M58.3312 59.7613C58.339 60.513 58.7974 61.1193 59.3576 61.1128C59.9164 61.1076 60.3643 60.4922 60.3565 59.7406L60.2325 47.2646C60.2246 46.5129 59.7663 45.9079 59.2061 45.9131C58.6472 45.9183 58.1993 46.5337 58.2071 47.2853L58.3312 59.7613Z" fill="#FFDBAB"/>
<path id="Vector_30" d="M59.9889 45.077L61.2321 45.0653L62.4987 45.0523L63.7432 45.0407L66.253 45.016L66.33 52.7301L62.5758 52.7677L62.5627 51.5448L61.2961 51.5565L61.3065 52.7794L57.5523 52.8171L57.4766 45.1017L59.9889 45.077Z" fill="#F47522"/>
<g id="Group_11">
<path id="Vector_31" d="M61.3009 52.8325C61.3035 53.0584 61.4915 53.2402 61.7174 53.2389L62.1588 53.235C62.386 53.2324 62.5701 53.0468 62.5675 52.8222L62.5401 49.9842C62.5375 49.7583 62.3494 49.5766 62.1235 49.5779L61.6822 49.5818C61.455 49.5831 61.2709 49.77 61.2735 49.9959L61.3009 52.8325Z" fill="white"/>
</g>
<path id="Vector_32" d="M55.4 44.2858C55.4039 44.748 55.7708 45.1206 56.2174 45.1154C56.6653 45.1115 57.0244 44.7324 57.0192 44.2702L56.9526 37.5246C56.9474 37.0625 56.5817 36.6899 56.1338 36.6938C55.6859 36.6989 55.3281 37.0767 55.3321 37.5389L55.4 44.2858Z" fill="#FFDBAB"/>
<path id="Vector_33" d="M65.3266 33.6208C67.5308 32.0824 67.6601 21.7848 61.7892 21.8433C55.9182 21.9004 56.2512 32.1941 58.4854 33.6883" fill="#543B35"/>
<path id="Vector_34" d="M60.3257 36.3757C60.3297 36.8379 60.9956 37.2079 61.8104 37.2001C62.6253 37.191 63.2834 36.8093 63.2782 36.3472L63.2103 29.6016C63.2064 29.1394 62.5417 28.7694 61.7256 28.7785C60.9107 28.7863 60.2539 29.168 60.2578 29.6301L60.3257 36.3757Z" fill="#FFDBAB"/>
<g id="Group_12">
<path id="Vector_35" d="M66.1417 35.9831L66.1743 37.6306L66.2488 45.0123L57.4711 45.098L57.4058 38.4731L54.8581 38.4991L54.8398 36.6997C54.8398 36.6829 54.8398 36.6673 54.8398 36.6504V36.6192C54.8647 33.9696 57.364 33.6969 57.364 33.6969V33.6982C57.5795 33.6956 58.8161 33.6826 60.3556 33.6671C60.3556 33.6697 60.3556 33.671 60.3556 33.6736C60.3635 34.4551 61.0059 35.0795 61.7907 35.0718C62.5755 35.064 63.2062 34.4265 63.1984 33.645C63.1984 33.6424 63.1971 33.6398 63.1971 33.6372" fill="#F47522"/>
<path id="Vector_36" d="M57.4336 36.0696V37.7171L57.5067 45.0988L66.2831 45.0131L66.2178 38.3882L68.7642 38.3636L68.7472 36.5642H68.7459V36.5629L68.7472 36.5642C68.7472 36.5461 68.7459 36.5305 68.7459 36.5136V36.485L68.7446 36.4837C68.6675 33.8354 66.1643 33.6121 66.1643 33.6121V33.6134C65.9501 33.6147 64.7122 33.6263 63.1727 33.6406C63.1727 33.6419 63.1727 33.6445 63.1727 33.6458C63.1805 34.4274 62.5498 35.0648 61.7663 35.0726C60.9828 35.0804 60.339 34.4546 60.3312 33.6744C60.3312 33.6718 60.3312 33.6692 60.3312 33.6666" fill="#F47522"/>
</g>
<path id="Vector_37" d="M57.2152 27.3767C57.2466 30.5846 59.3986 33.285 61.8692 33.2603C64.3398 33.2356 66.194 30.4951 66.1614 27.2884C66.1288 24.0818 64.1073 22.1228 61.6367 22.1474C59.1661 22.1721 57.1826 24.1701 57.2152 27.3767Z" fill="#FFDBAB"/>
<path id="Vector_38" d="M57.0391 27.7932C57.0391 27.7932 63.1072 27.6569 63.7797 25.2409C64.2603 26.778 66.6682 27.9062 66.6682 27.9062L66.6695 27.8841C66.3992 24.8566 64.9824 21.8084 61.7805 21.8408C58.6466 21.8707 57.2807 24.8203 57.0273 27.7893L57.0391 27.7932Z" fill="#644339"/>
<path id="Vector_39" d="M66.7438 47.2003C66.749 47.6598 67.1147 48.0285 67.5626 48.0246C68.0105 48.0207 68.3682 47.6443 68.363 47.1847L68.2677 37.4817C68.2625 37.0221 67.8969 36.6521 67.449 36.656C67.0024 36.6612 66.6433 37.0377 66.6485 37.496L66.7438 47.2003Z" fill="#FFDBAB"/>
<path id="Vector_40" d="M66.2049 38.3837L68.7578 38.3596L68.7407 36.5642L66.1878 36.5883L66.2049 38.3837Z" fill="#F47522"/>
</g>
</g>
<g id="Group_13">
<path id="Vector_41" d="M33.1972 54.6263C33.2024 55.339 32.778 55.9193 32.2466 55.9232C31.7177 55.9271 31.2842 55.3533 31.2789 54.6405L31.1915 42.8201C31.1862 42.1074 31.6106 41.5271 32.1421 41.5232C32.6709 41.5193 33.1045 42.0931 33.111 42.8059L33.1972 54.6263Z" fill="#FFDBAB"/>
<path id="Vector_42" d="M38.2441 54.5937C38.2493 55.3064 37.8236 55.8867 37.2934 55.8906C36.7633 55.8945 36.3297 55.3207 36.3245 54.6079L36.2383 42.7876C36.2331 42.0748 36.6575 41.4945 37.189 41.4906C37.7178 41.4867 38.1514 42.0605 38.1566 42.7733L38.2441 54.5937Z" fill="#FFDBAB"/>
<path id="Vector_43" d="M36.4362 40.706L35.2584 40.7151L34.057 40.7228L32.8792 40.7319L30.5 40.7488L30.5535 48.0578L34.1106 48.0332L34.1027 46.8739L35.3041 46.8648L35.3119 48.0241L38.8703 47.9968L38.8154 40.6891L36.4362 40.706Z" fill="#D92869"/>
<g id="Group_14">
<path id="Vector_44" d="M35.316 48.0743C35.3173 48.2885 35.1423 48.465 34.9269 48.4676L34.509 48.4702C34.2935 48.4715 34.116 48.2976 34.1146 48.0846L34.0938 45.396C34.0925 45.1818 34.2674 45.0065 34.4829 45.0039L34.9008 45.0014C35.1162 45.0001 35.2938 45.1727 35.2951 45.3869L35.316 48.0743Z" fill="white"/>
</g>
<path id="Vector_45" d="M40.7702 39.8826C40.7728 40.3214 40.432 40.6784 40.0089 40.681C39.5845 40.6849 39.2384 40.3305 39.2345 39.8943L39.1875 33.5005C39.1849 33.0617 39.5257 32.7047 39.9501 32.7008C40.3732 32.6982 40.7192 33.0513 40.7232 33.4888L40.7702 39.8826Z" fill="#FFDBAB"/>
<path id="Vector_46" d="M31.1881 29.9403C29.0753 28.5187 28.7841 18.7664 34.3469 18.7249C39.9097 18.6833 39.7621 28.4395 37.6702 29.8935" fill="#543B35"/>
<path id="Vector_47" d="M35.973 32.4673C35.9756 32.9061 35.3514 33.2644 34.581 33.2709C33.8079 33.2761 33.1798 32.9256 33.1759 32.4868L33.1289 26.0943C33.1263 25.6555 33.7505 25.2972 34.5222 25.2907C35.294 25.2855 35.922 25.636 35.926 26.0748L35.973 32.4673Z" fill="#FFDBAB"/>
<g id="Group_15">
<path id="Vector_48" d="M30.4544 32.1968L30.4492 33.7573L30.5015 40.7509L38.8156 40.6899L38.7699 34.4142L41.1843 34.3973L41.1713 32.6928C41.1713 32.6772 41.1713 32.6616 41.1713 32.646L41.17 32.6175C41.1034 30.108 38.732 29.8899 38.732 29.8899V29.8912C38.5296 29.8925 37.357 29.9003 35.8984 29.9107C35.8984 29.912 35.8984 29.9146 35.8984 29.9159C35.9036 30.6545 35.3055 31.2582 34.5625 31.2647C33.8195 31.2699 33.2123 30.6753 33.2071 29.9366C33.2071 29.934 33.2071 29.9314 33.2071 29.9288" fill="#D92869"/>
<path id="Vector_49" d="M38.7064 32.1391L38.7338 33.6983L38.7848 40.6918L30.4693 40.7528L30.4236 34.4772L28.0105 34.4954L27.9961 32.7921H27.9974H27.9961C27.9961 32.7765 27.9961 32.7609 27.9961 32.7454V32.7168H27.9974C28.0248 30.206 30.3949 29.9542 30.3949 29.9542L30.3936 29.9555C30.5973 29.9542 31.7699 29.9438 33.2285 29.9321C33.2285 29.9347 33.2285 29.936 33.2285 29.9386C33.2337 30.6773 33.8422 31.2719 34.5839 31.2654C35.327 31.2602 35.925 30.6565 35.9198 29.9178C35.9198 29.9152 35.9198 29.9126 35.9198 29.91" fill="#D92869"/>
</g>
<path id="Vector_50" d="M38.7744 23.8927C38.7966 26.9318 36.8013 29.5244 34.46 29.5426C32.12 29.5595 30.3193 26.9942 30.2971 23.955C30.2749 20.9171 32.1592 19.0282 34.4992 19.0113C36.8405 18.9945 38.7522 20.8548 38.7744 23.8927Z" fill="#FFDBAB"/>
<path id="Vector_51" d="M38.9453 24.2891C38.9453 24.2891 33.1958 24.2566 32.5181 21.9795C32.0885 23.4439 29.8255 24.5513 29.8255 24.5513L29.8242 24.5305C30.0292 21.6576 31.322 18.7482 34.3567 18.7249C37.3261 18.7028 38.6685 21.4745 38.9558 24.2826L38.9453 24.2891Z" fill="#644339"/>
<path id="Vector_52" d="M30.0723 42.8248C30.0749 43.261 29.7341 43.6154 29.311 43.6193C28.8866 43.6219 28.5406 43.2713 28.5367 42.8351L28.4688 33.6424C28.4662 33.2062 28.807 32.8517 29.2301 32.8492C29.6544 32.8453 30.0005 33.1971 30.0044 33.632L30.0723 42.8248Z" fill="#FFDBAB"/>
<path id="Vector_53" d="M30.4236 32.771L28.0039 32.7888L28.0166 34.4895L30.4362 34.4717L30.4236 32.771Z" fill="#D92869"/>
</g>
<g id="Group_16">
<path id="Vector_54" d="M51.4689 54.5147C51.4598 55.2274 51.8815 55.8103 52.4117 55.8181C52.9406 55.8246 53.378 55.2521 53.3884 54.5407L53.5438 42.7216C53.553 42.0088 53.1312 41.4259 52.601 41.4181C52.0722 41.4117 51.6347 41.9842 51.6243 42.6956L51.4689 54.5147Z" fill="#FFDBAB"/>
<path id="Vector_55" d="M46.426 54.4455C46.4155 55.1583 46.8373 55.7412 47.3688 55.749C47.8976 55.7555 48.3351 55.1829 48.3442 54.4715L48.4996 42.6524C48.5101 41.9397 48.0883 41.3568 47.5581 41.3503C47.0279 41.3425 46.5905 41.915 46.5814 42.6265L46.426 54.4455Z" fill="#FFDBAB"/>
<path id="Vector_56" d="M48.3105 40.5736L49.487 40.5879L50.6884 40.6035L51.8675 40.619L54.2467 40.6502L54.1501 47.9592L50.593 47.9125L50.6087 46.7545L49.4073 46.7389L49.3917 47.8969L45.8359 47.8502L45.9313 40.5411L48.3105 40.5736Z" fill="#F8972D"/>
<g id="Group_17">
<path id="Vector_57" d="M49.3946 47.9484C49.3919 48.1613 49.5656 48.3391 49.7811 48.3417L50.1989 48.3482C50.4144 48.3508 50.5933 48.1781 50.5959 47.9639L50.6312 45.2766C50.6338 45.0624 50.4601 44.8858 50.2446 44.8832L49.8268 44.8767C49.6113 44.8741 49.4324 45.0468 49.4298 45.2597L49.3946 47.9484Z" fill="white"/>
</g>
<path id="Vector_58" d="M43.961 39.7172C43.9558 40.156 44.294 40.5143 44.7184 40.5208C45.1415 40.526 45.4901 40.1755 45.4966 39.7367L45.5802 33.3442C45.5854 32.9054 45.2472 32.5471 44.8228 32.5406C44.3998 32.5354 44.0511 32.8872 44.0446 33.3247L43.961 39.7172Z" fill="#FFDBAB"/>
<path id="Vector_59" d="M48.8008 32.3407C48.7943 32.7795 49.4172 33.1417 50.1876 33.1521C50.9607 33.1625 51.5914 32.8146 51.5966 32.3771L51.6802 25.9846C51.6867 25.5458 51.0651 25.1836 50.2934 25.1732C49.5203 25.1628 48.8909 25.5107 48.8844 25.9482L48.8008 32.3407Z" fill="#FFDBAB"/>
<path id="Vector_60" d="M46.0474 23.7479C46.0083 26.7858 47.9866 29.39 50.3279 29.4199C52.6679 29.4511 54.4843 26.8961 54.5235 23.8583C54.564 20.8191 52.6914 18.9211 50.3514 18.8913C48.0101 18.8601 46.0879 20.7088 46.0474 23.7479Z" fill="#FFDBAB"/>
<path id="Vector_61" d="M48.9378 21.7722C48.9378 21.7722 47.6803 22.9056 46.1133 22.8848C46.4698 20.3623 48.2405 18.8603 50.3507 18.8888C52.6907 18.9187 54.5645 20.8167 54.5227 23.8559C54.5188 24.2194 54.4888 24.5777 54.4353 24.923C52.1866 24.8957 50.3141 23.3301 48.9378 21.7722Z" fill="#364549"/>
<g id="Group_18">
<path id="Vector_62" d="M54.3133 32.0931L54.3093 33.6536L54.2166 40.6471L45.9025 40.5381L45.9848 34.2638L43.5703 34.2326L43.5938 32.5293V32.528V32.5293C43.5938 32.5124 43.5938 32.4982 43.5951 32.4813V32.454C43.6761 29.9432 46.0488 29.7407 46.0488 29.7407C46.2525 29.7433 47.4251 29.7589 48.8837 29.7758C48.8837 29.7784 48.8837 29.7797 48.8837 29.7823C48.8732 30.521 49.4687 31.1272 50.2117 31.1376C50.9547 31.148 51.5658 30.556 51.575 29.816C51.575 29.8134 51.575 29.8108 51.575 29.8082" fill="#13858F"/>
<path id="Vector_63" d="M46.0616 31.9842L46.0263 33.5447L45.9336 40.5369L54.249 40.646L54.3313 34.3716L56.7445 34.4015L56.768 32.6982C56.768 32.6827 56.768 32.6671 56.768 32.6515V32.6229C56.7536 30.1122 54.3862 29.8473 54.3862 29.8473H54.3875C54.1837 29.8447 53.0111 29.8278 51.5525 29.8097C51.5525 29.811 51.5525 29.8136 51.5525 29.8149C51.5434 30.5536 50.9323 31.1442 50.1893 31.1365C49.4462 31.1261 48.8521 30.5185 48.8599 29.7798C48.8599 29.7772 48.8612 29.7759 48.8612 29.7733" fill="#13858F"/>
</g>
<path id="Vector_64" d="M54.6368 42.7254C54.6303 43.1642 54.9698 43.5238 55.3929 43.529C55.8173 43.5342 56.1659 43.1824 56.1711 42.7449L56.2939 33.4924C56.2991 33.0536 55.9609 32.694 55.5365 32.6888C55.1134 32.6823 54.7648 33.0341 54.7583 33.4729L54.6368 42.7254Z" fill="#FFDBAB"/>
<path id="Vector_65" d="M54.3306 34.3757L56.75 34.4075L56.7726 32.707L54.3531 32.6752L54.3306 34.3757Z" fill="#13858F"/>
</g>
</g>
</mask>
<g mask="url(#mask0_643_5358)">
<g id="Group_19">
<g id="Group_20">
<path id="Vector_66" opacity="0.3" d="M68.6898 34.141C68.6898 35.0631 68.0426 35.8103 67.2437 35.8103H16.2286C15.4297 35.8103 14.7812 35.0631 14.7812 34.141L16.7941 19.8476C16.7941 18.9255 17.4412 18.1796 18.2401 18.1796H65.2309C66.0298 18.1796 66.677 18.9255 66.677 19.8476L68.6898 34.141Z" fill="#1FB5CB"/>
</g>
</g>
</g>
</g>
<path id="Vector_67" d="M80.1959 88.4078C80.1959 89.2062 79.5443 89.8553 78.7399 89.8553H4.94036C4.13598 89.8553 3.48438 89.2062 3.48438 88.4078V88.0365C3.48438 87.2381 4.13598 86.589 4.94036 86.589H78.7399C79.5443 86.589 80.1959 87.2381 80.1959 88.0365V88.4078Z" fill="#836860"/>
</g>
</svg>
