<svg width="169" height="54" viewBox="0 0 169 54" fill="none" xmlns="http://www.w3.org/2000/svg">
<path d="M15.3473 8.94V9.94H15.7616L16.0545 9.64711L15.3473 8.94ZM12.2873 8.94V7.94H11.2873V8.94H12.2873ZM12.2873 27V28H13.2873V27H12.2873ZM6.34735 27H5.34735V28H6.34735V27ZM6.34735 8.94H7.34735V7.94H6.34735V8.94ZM0.587347 8.94H-0.412653V9.94H0.587347V8.94ZM0.587347 3V2H-0.412653V3H0.587347ZM21.2873 3L21.9945 3.70711L23.7016 2H21.2873V3ZM15.3473 7.94H12.2873V9.94H15.3473V7.94ZM11.2873 8.94V27H13.2873V8.94H11.2873ZM12.2873 26H6.34735V28H12.2873V26ZM7.34735 27V8.94H5.34735V27H7.34735ZM6.34735 7.94H0.587347V9.94H6.34735V7.94ZM1.58735 8.94V3H-0.412653V8.94H1.58735ZM0.587347 4H21.2873V2H0.587347V4ZM20.5802 2.29289L14.6402 8.23289L16.0545 9.64711L21.9945 3.70711L20.5802 2.29289ZM31.7503 9.06L31.4341 10.0087L32.0247 10.2056L32.462 9.76247L31.7503 9.06ZM31.1803 8.97L31.0808 9.96504L31.1304 9.97H31.1803V8.97ZM28.1203 9.45L28.5084 10.3716L28.5186 10.3673L28.5287 10.3628L28.1203 9.45ZM26.1103 10.8L25.4032 10.0929L25.4032 10.0929L26.1103 10.8ZM24.7603 12.81L25.6732 13.2184L25.677 13.2096L24.7603 12.81ZM24.2503 27V28H25.2503V27H24.2503ZM18.3703 27H17.3703V28H18.3703V27ZM19.3303 10.47L20.2482 10.8669L20.2482 10.8669L19.3303 10.47ZM21.9403 6.6L22.6475 7.30714L22.6538 7.30071L21.9403 6.6ZM25.8103 3.96L26.2072 4.87786L26.2072 4.87786L25.8103 3.96ZM33.5203 3.39L33.2589 4.35522L33.2706 4.3584L33.2824 4.3613L33.5203 3.39ZM36.3103 4.44L37.022 5.14247L37.9719 4.18015L36.7736 3.55377L36.3103 4.44ZM32.0665 8.11131C31.7792 8.01553 31.4819 7.97 31.1803 7.97V9.97C31.2787 9.97 31.3615 9.98447 31.4341 10.0087L32.0665 8.11131ZM31.2798 7.97496C31.0438 7.95136 30.8005 7.94 30.5503 7.94V9.94C30.7402 9.94 30.9168 9.94863 31.0808 9.96504L31.2798 7.97496ZM30.5503 7.94C29.5543 7.94 28.6047 8.1378 27.7119 8.53718L28.5287 10.3628C29.1559 10.0822 29.8263 9.94 30.5503 9.94V7.94ZM27.7323 8.52836C26.8537 8.89829 26.0752 9.42092 25.4032 10.0929L26.8174 11.5071C27.3054 11.0191 27.8669 10.6417 28.5084 10.3716L27.7323 8.52836ZM25.4032 10.0929C24.7483 10.7478 24.2299 11.5243 23.8436 12.4104L25.677 13.2096C25.9708 12.5357 26.3523 11.9722 26.8174 11.5071L25.4032 10.0929ZM23.8475 12.4016C23.4481 13.2944 23.2503 14.244 23.2503 15.24H25.2503C25.2503 14.516 25.3925 13.8456 25.6731 13.2184L23.8475 12.4016ZM23.2503 15.24V27H25.2503V15.24H23.2503ZM24.2503 26H18.3703V28H24.2503V26ZM19.3703 27V15.24H17.3703V27H19.3703ZM19.3703 15.24C19.3703 13.669 19.6653 12.2149 20.2482 10.8669L18.4125 10.0731C17.7154 11.6851 17.3703 13.411 17.3703 15.24H19.3703ZM20.2482 10.8669C20.84 9.49837 21.6399 8.31467 22.6474 7.30711L21.2332 5.89289C20.0408 7.08533 19.1007 8.48163 18.4125 10.0731L20.2482 10.8669ZM22.6538 7.30071C23.6608 6.27537 24.8425 5.46801 26.2072 4.87786L25.4134 3.04214C23.8181 3.73198 22.4198 4.68462 21.2269 5.89929L22.6538 7.30071ZM26.2072 4.87786C27.5567 4.29432 29.001 4 30.5503 4V2C28.7396 2 27.024 2.34568 25.4134 3.04214L26.2072 4.87786ZM30.5503 4C31.4843 4 32.3863 4.11889 33.2589 4.35522L33.7817 2.42477C32.7343 2.14111 31.6563 2 30.5503 2V4ZM33.2824 4.3613C34.1854 4.58244 35.0396 4.90416 35.8471 5.32622L36.7736 3.55377C35.821 3.05584 34.8152 2.67756 33.7582 2.4187L33.2824 4.3613ZM35.5986 3.73753L31.0386 8.35753L32.462 9.76247L37.022 5.14247L35.5986 3.73753ZM49.6402 3.96L49.2387 4.87593L49.2493 4.88044L49.6402 3.96ZM53.4502 6.54L52.7366 7.24062L52.7431 7.24711L53.4502 6.54ZM56.0002 10.35L55.0797 10.7409L55.0843 10.7515L56.0002 10.35ZM56.9602 27V28H57.9602V27H56.9602ZM51.0202 27H50.0202V28H51.0202V27ZM50.5402 12.69L49.6223 13.0869L49.6263 13.0961L50.5402 12.69ZM47.3302 9.48L47.7271 8.56214L47.7271 8.56214L47.3302 9.48ZM42.6202 9.48L42.2232 8.56209L42.214 8.56619L42.6202 9.48ZM40.7302 10.77L40.0231 10.0629L40.0231 10.0629L40.7302 10.77ZM39.4402 12.69L40.354 13.0962L40.358 13.0869L39.4402 12.69ZM39.4402 17.34L38.5223 17.7369L38.5263 17.7461L39.4402 17.34ZM40.7302 19.23L40.0231 19.9371L40.0231 19.9371L40.7302 19.23ZM42.6202 20.52L42.214 21.4339L42.2232 21.4379L42.6202 20.52ZM50.9602 21L51.6673 21.7071L53.3744 20H50.9602V21ZM44.9602 27L44.9481 27.9999L45.3694 28.005L45.6673 27.7071L44.9602 27ZM40.2802 26.04L39.874 26.9538L39.8816 26.9572L39.8893 26.9604L40.2802 26.04ZM36.5002 23.46L37.2073 22.7529L37.2073 22.7529L36.5002 23.46ZM33.9502 19.68L33.0297 20.0709L33.0317 20.0755L33.9502 19.68ZM33.9502 10.35L34.8706 10.7409L34.8706 10.7409L33.9502 10.35ZM36.5002 6.54L37.2073 7.24714L37.2137 7.24059L36.5002 6.54ZM40.2802 3.96L40.6756 4.8785L40.6816 4.87587L40.2802 3.96ZM44.9602 4C46.4878 4 47.9105 4.29365 49.2387 4.87587L50.0416 3.04413C48.4498 2.34635 46.7525 2 44.9602 2V4ZM49.2493 4.88044C50.5919 5.45059 51.7514 6.2371 52.7366 7.24059L54.1637 5.83941C52.989 4.6429 51.6084 3.7094 50.031 3.03956L49.2493 4.88044ZM52.7431 7.24711C53.7288 8.23287 54.5079 9.39436 55.0797 10.7409L56.9206 9.95913C56.2524 8.38564 55.3315 7.00713 54.1573 5.83289L52.7431 7.24711ZM55.0843 10.7515C55.6672 12.0812 55.9602 13.4941 55.9602 15H57.9602C57.9602 13.2259 57.6131 11.5388 56.916 9.94852L55.0843 10.7515ZM55.9602 15V27H57.9602V15H55.9602ZM56.9602 26H51.0202V28H56.9602V26ZM52.0202 27V15H50.0202V27H52.0202ZM52.0202 15C52.0202 14.0459 51.8331 13.1369 51.454 12.2839L49.6263 13.0961C49.8872 13.6831 50.0202 14.3141 50.0202 15H52.0202ZM51.458 12.2931C51.0908 11.4439 50.5913 10.697 49.9573 10.0629L48.5431 11.4771C48.989 11.923 49.3495 12.4561 49.6223 13.0869L51.458 12.2931ZM49.9573 10.0629C49.3232 9.42881 48.5763 8.92938 47.7271 8.56214L46.9332 10.3979C47.564 10.6706 48.0971 11.0312 48.5431 11.4771L49.9573 10.0629ZM47.7271 8.56214C46.8565 8.18568 45.9308 8 44.9602 8V10C45.6695 10 46.3238 10.1343 46.9332 10.3979L47.7271 8.56214ZM44.9602 8C44.006 8 43.0907 8.18701 42.2232 8.56214L43.0171 10.3979C43.6296 10.133 44.2743 10 44.9602 10V8ZM42.214 8.56619C41.3855 8.93443 40.6526 9.43335 40.0231 10.0629L41.4373 11.4771C41.8877 11.0267 42.4148 10.6656 43.0263 10.3938L42.214 8.56619ZM40.0231 10.0629C39.389 10.697 38.8895 11.4439 38.5223 12.2931L40.358 13.0869C40.6308 12.4561 40.9913 11.923 41.4373 11.4771L40.0231 10.0629ZM38.5263 12.2839C38.1472 13.1369 37.9602 14.0459 37.9602 15H39.9602C39.9602 14.3141 40.0931 13.6831 40.354 13.0961L38.5263 12.2839ZM37.9602 15C37.9602 15.9541 38.1472 16.8694 38.5223 17.7369L40.358 16.9431C40.0931 16.3306 39.9602 15.6859 39.9602 15H37.9602ZM38.5263 17.7461C38.8946 18.5747 39.3935 19.3076 40.0231 19.9371L41.4373 18.5229C40.9868 18.0724 40.6257 17.5453 40.354 16.9339L38.5263 17.7461ZM40.0231 19.9371C40.6526 20.5667 41.3855 21.0656 42.214 21.4338L43.0263 19.6062C42.4148 19.3344 41.8877 18.9733 41.4373 18.5229L40.0231 19.9371ZM42.2232 21.4379C43.0907 21.813 44.006 22 44.9602 22V20C44.2743 20 43.6296 19.867 43.0171 19.6021L42.2232 21.4379ZM44.9602 22H50.9602V20H44.9602V22ZM50.2531 20.2929L44.2531 26.2929L45.6673 27.7071L51.6673 21.7071L50.2531 20.2929ZM44.9722 26.0001C43.4363 25.9816 42.0056 25.6863 40.671 25.1196L39.8893 26.9604C41.4747 27.6337 43.164 27.9784 44.9481 27.9999L44.9722 26.0001ZM40.6863 25.1262C39.3548 24.5344 38.1977 23.7433 37.2073 22.7529L35.7931 24.1671C36.9626 25.3367 38.3255 26.2656 39.874 26.9538L40.6863 25.1262ZM37.2073 22.7529C36.2192 21.7648 35.4399 20.6114 34.8686 19.2845L33.0317 20.0755C33.7004 21.6286 34.6211 22.9952 35.7931 24.1671L37.2073 22.7529ZM34.8706 19.2891C34.3055 17.9585 34.0202 16.5321 34.0202 15H32.0202C32.0202 16.7879 32.3548 18.4815 33.0297 20.0709L34.8706 19.2891ZM34.0202 15C34.0202 13.4897 34.3049 12.073 34.8706 10.7409L33.0297 9.95913C32.3554 11.547 32.0202 13.2303 32.0202 15H34.0202ZM34.8706 10.7409C35.4424 9.39436 36.2215 8.23287 37.2073 7.24711L35.7931 5.83289C34.6188 7.00713 33.6979 8.38564 33.0297 9.95913L34.8706 10.7409ZM37.2137 7.24059C38.2013 6.23477 39.3527 5.44807 40.6756 4.87848L39.8847 3.04152C38.3276 3.71193 36.9591 4.64523 35.7866 5.83941L37.2137 7.24059ZM40.6816 4.87587C42.0098 4.29365 43.4325 4 44.9602 4V2C43.1678 2 41.4705 2.34635 39.8787 3.04413L40.6816 4.87587ZM78.7816 3L79.6579 3.48192L80.4729 2H78.7816V3ZM65.5816 27L64.6872 27.4472L65.5395 29.1517L66.4579 27.4819L65.5816 27ZM55.8616 7.56L55.1545 6.85289L54.6449 7.36255L54.9672 8.00721L55.8616 7.56ZM60.3016 3.12L61.1961 2.67278L60.5756 1.43183L59.5945 2.41289L60.3016 3.12ZM65.8216 14.16L64.9272 14.6072L65.7808 16.3143L66.6985 14.6408L65.8216 14.16ZM71.9416 3V2H71.3495L71.0648 2.51917L71.9416 3ZM77.9054 2.51808L64.7054 26.5181L66.4579 27.4819L79.6579 3.48192L77.9054 2.51808ZM66.4761 26.5528L56.7561 7.11279L54.9672 8.00721L64.6872 27.4472L66.4761 26.5528ZM56.5688 8.26711L61.0088 3.8271L59.5945 2.41289L55.1545 6.85289L56.5688 8.26711ZM59.4072 3.56721L64.9272 14.6072L66.7161 13.7128L61.1961 2.67278L59.4072 3.56721ZM66.6985 14.6408L72.8185 3.48083L71.0648 2.51917L64.9448 13.6792L66.6985 14.6408ZM71.9416 4H78.7816V2H71.9416V4ZM83.6363 11.94V10.94H81.2048L82.9327 12.6507L83.6363 11.94ZM93.2363 11.94V12.94H94.9323L94.1113 11.4559L93.2363 11.94ZM91.0463 9.69L90.5129 10.5359L90.5236 10.5426L90.5344 10.5491L91.0463 9.69ZM85.5863 9.3L85.1893 8.38214L85.1893 8.38214L85.5863 9.3ZM83.6363 10.62L84.3434 11.3271L83.6363 10.62ZM82.3163 12.57L83.2341 12.9669L83.2341 12.9669L82.3163 12.57ZM82.3163 17.31L83.2341 16.9131L83.2341 16.9131L82.3163 17.31ZM83.6363 19.26L84.3434 18.5529L84.3434 18.5529L83.6363 19.26ZM85.5863 20.58L85.9832 19.6621L85.9832 19.6621L85.5863 20.58ZM97.2563 21.06L97.9598 21.7707L99.6877 20.06H97.2563V21.06ZM91.2563 27V28H91.6675L91.9598 27.7107L91.2563 27ZM83.2463 26.07L82.8448 26.9859L82.8523 26.9892L82.8599 26.9923L83.2463 26.07ZM79.4062 23.49L78.6927 24.1906L78.6991 24.1971L78.7057 24.2036L79.4062 23.49ZM76.8263 19.65L75.9039 20.0364L75.9071 20.044L75.9104 20.0515L76.8263 19.65ZM76.8263 10.26L75.9084 9.86308L75.9058 9.86913L76.8263 10.26ZM79.4062 6.42L78.6991 5.71289L78.6991 5.71289L79.4062 6.42ZM83.2463 3.84L83.6371 4.76046L83.6432 4.75786L83.2463 3.84ZM92.6363 3.84L92.2348 4.75587L92.2423 4.75917L92.2499 4.76234L92.6363 3.84ZM96.4763 6.42L95.7627 7.12059L95.7691 7.12713L95.7757 7.13356L96.4763 6.42ZM99.0563 10.26L98.1339 10.6464L98.1371 10.654L98.1404 10.6615L99.0563 10.26ZM100.016 17.88V18.88H101.016V17.88H100.016ZM89.6363 17.88L88.9327 18.5907L89.225 18.88H89.6363V17.88ZM83.6363 12.94H93.2363V10.94H83.6363V12.94ZM94.1113 11.4559C93.5039 10.358 92.6472 9.47978 91.5581 8.8309L90.5344 10.5491C91.3253 11.0202 91.9286 11.642 92.3612 12.4241L94.1113 11.4559ZM91.5796 8.84407C90.492 8.15844 89.2754 7.82 87.9563 7.82V9.82C88.9171 9.82 89.7605 10.0616 90.5129 10.5359L91.5796 8.84407ZM87.9563 7.82C86.9856 7.82 86.0599 8.00568 85.1893 8.38214L85.9832 10.2179C86.5926 9.95432 87.2469 9.82 87.9563 9.82V7.82ZM85.1893 8.38214C84.3357 8.75128 83.58 9.26208 82.9291 9.91289L84.3434 11.3271C84.8125 10.8579 85.3568 10.4887 85.9832 10.2179L85.1893 8.38214ZM82.9291 9.91289C82.2783 10.5637 81.7675 11.3195 81.3984 12.1731L83.2341 12.9669C83.505 12.3405 83.8742 11.7963 84.3434 11.3271L82.9291 9.91289ZM81.3984 12.1731C81.0219 13.0436 80.8363 13.9693 80.8363 14.94H82.8363C82.8363 14.2307 82.9706 13.5763 83.2341 12.9669L81.3984 12.1731ZM80.8363 14.94C80.8363 15.9107 81.0219 16.8363 81.3984 17.7069L83.2341 16.9131C82.9706 16.3036 82.8363 15.6493 82.8363 14.94H80.8363ZM81.3984 17.7069C81.7675 18.5605 82.2783 19.3163 82.9291 19.9671L84.3434 18.5529C83.8742 18.0837 83.505 17.5395 83.2341 16.9131L81.3984 17.7069ZM82.9291 19.9671C83.58 20.6179 84.3357 21.1287 85.1893 21.4979L85.9832 19.6621C85.3568 19.3913 84.8125 19.0221 84.3434 18.5529L82.9291 19.9671ZM85.1893 21.4979C86.0599 21.8743 86.9856 22.06 87.9563 22.06V20.06C87.2469 20.06 86.5926 19.9257 85.9832 19.6621L85.1893 21.4979ZM87.9563 22.06H97.2563V20.06H87.9563V22.06ZM96.5527 20.3493L90.5527 26.2893L91.9598 27.7107L97.9598 21.7707L96.5527 20.3493ZM91.2563 26H87.9563V28H91.2563V26ZM87.9563 26C86.4242 26 84.986 25.7146 83.6326 25.1477L82.8599 26.9923C84.4665 27.6654 86.1683 28 87.9563 28V26ZM83.6477 25.1541C82.295 24.5612 81.1173 23.7685 80.1068 22.7764L78.7057 24.2036C79.8952 25.3715 81.2775 26.2988 82.8448 26.9859L83.6477 25.1541ZM80.1198 22.7894C79.1277 21.779 78.3351 20.6012 77.7421 19.2485L75.9104 20.0515C76.5974 21.6188 77.5248 23.001 78.6927 24.1906L80.1198 22.7894ZM77.7486 19.2636C77.1816 17.9102 76.8963 16.472 76.8963 14.94H74.8963C74.8963 16.728 75.2309 18.4298 75.9039 20.0364L77.7486 19.2636ZM76.8963 14.94C76.8963 13.4079 77.1816 11.9815 77.7467 10.6509L75.9058 9.86913C75.2309 11.4585 74.8963 13.1521 74.8963 14.94H76.8963ZM77.7441 10.6569C78.3369 9.28614 79.1274 8.11302 80.1134 7.12711L78.6991 5.71289C77.5251 6.88697 76.5956 8.27386 75.9084 9.86309L77.7441 10.6569ZM80.1134 7.12711C81.1208 6.11966 82.2929 5.33129 83.6371 4.76044L82.8554 2.91955C81.2796 3.58871 79.8917 4.52034 78.6991 5.71289L80.1134 7.12711ZM83.6432 4.75786C84.9941 4.17366 86.4287 3.88 87.9563 3.88V1.88C86.1639 1.88 84.4584 2.22634 82.8493 2.92214L83.6432 4.75786ZM87.9563 3.88C89.4839 3.88 90.9066 4.17365 92.2348 4.75587L93.0377 2.92413C91.4459 2.22635 89.7486 1.88 87.9563 1.88V3.88ZM92.2499 4.76234C93.6123 5.33307 94.7797 6.11942 95.7627 7.12059L97.1898 5.71941C96.0128 4.52058 94.6202 3.58693 93.0226 2.91766L92.2499 4.76234ZM95.7757 7.13356C96.7768 8.11653 97.5632 9.28399 98.1339 10.6464L99.9786 9.87361C99.3093 8.27601 98.3757 6.88347 97.1768 5.70643L95.7757 7.13356ZM98.1404 10.6615C98.7226 11.9897 99.0163 13.4124 99.0163 14.94H101.016C101.016 13.1476 100.67 11.4503 99.9721 9.85852L98.1404 10.6615ZM99.0163 14.94V17.88H101.016V14.94H99.0163ZM100.016 16.88H89.6363V18.88H100.016V16.88ZM90.3398 17.1693L84.3398 11.2293L82.9327 12.6507L88.9327 18.5907L90.3398 17.1693ZM112.473 21.06H113.473V20.06H112.473V21.06ZM112.473 27V28H113.473V27H112.473ZM106.923 26.28L106.496 27.1844L106.506 27.1892L106.517 27.1938L106.923 26.28ZM104.013 24.27L103.314 24.9854L103.322 24.9934L104.013 24.27ZM101.883 21.3L100.979 21.7281L100.982 21.7345L100.985 21.7409L101.883 21.3ZM101.073 6.54L100.366 5.83289L100.073 6.12579V6.54H101.073ZM107.013 0.599998H108.013V-1.81422L106.306 -0.107108L107.013 0.599998ZM107.373 18.96L106.505 19.4561L106.505 19.4561L107.373 18.96ZM108.213 20.07L107.506 20.7771L107.528 20.7992L107.551 20.8198L108.213 20.07ZM109.233 20.79L109.701 19.9062L109.701 19.9062L109.233 20.79ZM111.473 21.06V27H113.473V21.06H111.473ZM112.473 26H110.073V28H112.473V26ZM110.073 26C109.213 26 108.301 25.7983 107.329 25.3662L106.517 27.1938C107.704 27.7217 108.892 28 110.073 28V26ZM107.349 25.3756C106.39 24.9231 105.509 24.3154 104.703 23.5466L103.322 24.9934C104.277 25.9046 105.335 26.6369 106.496 27.1844L107.349 25.3756ZM104.712 23.5546C103.937 22.7985 103.293 21.9028 102.78 20.8591L100.985 21.7409C101.593 22.9772 102.368 24.0615 103.314 24.9854L104.712 23.5546ZM102.787 20.8719C102.312 19.8699 102.073 18.7966 102.073 17.64H100.073C100.073 19.0834 100.374 20.4501 100.979 21.7281L102.787 20.8719ZM102.073 17.64V6.54H100.073V17.64H102.073ZM101.78 7.24711L107.72 1.30711L106.306 -0.107108L100.366 5.83289L101.78 7.24711ZM106.013 0.599998V17.64H108.013V0.599998H106.013ZM106.013 17.64C106.013 18.2831 106.183 18.8931 106.505 19.4561L108.241 18.4639C108.083 18.1869 108.013 17.9169 108.013 17.64H106.013ZM106.505 19.4561C106.786 19.948 107.119 20.3901 107.506 20.7771L108.92 19.3629C108.667 19.1099 108.44 18.812 108.241 18.4639L106.505 19.4561ZM107.551 20.8198C107.94 21.163 108.344 21.4511 108.765 21.6738L109.701 19.9062C109.441 19.7689 109.166 19.577 108.874 19.3202L107.551 20.8198ZM108.765 21.6738C109.156 21.8808 109.61 22.06 110.073 22.06V20.06C110.095 20.06 110.076 20.0637 110.004 20.0405C109.934 20.0179 109.834 19.9766 109.701 19.9062L108.765 21.6738ZM110.073 22.06H112.473V20.06H110.073V22.06ZM119.535 3H120.535V0.603012L118.831 2.28931L119.535 3ZM119.535 27V28H120.535V27H119.535ZM113.595 27H112.595V28H113.595V27ZM113.595 8.88L112.891 8.16931L112.595 8.46281V8.88H113.595ZM118.535 3V27H120.535V3H118.535ZM119.535 26H113.595V28H119.535V26ZM114.595 27V8.88H112.595V27H114.595ZM114.298 9.59069L120.238 3.71069L118.831 2.28931L112.891 8.16931L114.298 9.59069ZM143.151 27V28H144.151V27H143.151ZM137.271 27H136.271V28H137.271V27ZM136.851 12.09L135.924 12.4664L135.932 12.4841L135.939 12.5016L136.851 12.09ZM135.741 10.44L135.034 11.1471L135.041 11.1546L135.049 11.162L135.741 10.44ZM134.091 9.36L133.679 10.2714L133.697 10.2793L133.714 10.2865L134.091 9.36ZM130.071 9.36L130.458 10.2822L130.465 10.2792L130.472 10.2762L130.071 9.36ZM128.421 10.44L129.113 11.162L129.113 11.162L128.421 10.44ZM127.281 12.09L126.365 11.6892L126.362 11.6962L126.359 11.7033L127.281 12.09ZM126.891 27V28H127.891V27H126.891ZM121.011 27H120.011V28H121.011V27ZM121.881 9.81L122.799 10.2072L122.801 10.2023L121.881 9.81ZM124.251 6.27L123.544 5.56289L123.544 5.56289L124.251 6.27ZM136.401 3.87L136.004 4.78773L136.009 4.78984L136.401 3.87ZM139.911 6.27L139.19 6.96282L139.197 6.97004L139.204 6.97711L139.911 6.27ZM142.281 9.81L141.361 10.2023L141.363 10.2072L142.281 9.81ZM143.151 26H137.271V28H143.151V26ZM138.271 27V14.1H136.271V27H138.271ZM138.271 14.1C138.271 13.2465 138.104 12.4352 137.762 11.6784L135.939 12.5016C136.158 12.9848 136.271 13.5135 136.271 14.1H138.271ZM137.777 11.7136C137.466 10.9484 137.018 10.2792 136.433 9.71801L135.049 11.162C135.423 11.5208 135.715 11.9516 135.924 12.4664L137.777 11.7136ZM136.448 9.73289C135.888 9.17265 135.223 8.74066 134.467 8.43353L133.714 10.2865C134.238 10.4993 134.674 10.7873 135.034 11.1471L136.448 9.73289ZM134.502 8.44863C133.749 8.1085 132.949 7.94 132.111 7.94V9.94C132.673 9.94 133.192 10.0515 133.679 10.2714L134.502 8.44863ZM132.111 7.94C131.257 7.94 130.44 8.10683 129.67 8.44384L130.472 10.2762C130.981 10.0532 131.524 9.94 132.111 9.94V7.94ZM129.684 8.43781C128.952 8.74471 128.299 9.17215 127.729 9.71801L129.113 11.162C129.503 10.7879 129.949 10.4953 130.458 10.2822L129.684 8.43781ZM127.729 9.71801C127.149 10.2738 126.695 10.9346 126.365 11.6892L128.197 12.4908C128.427 11.9654 128.733 11.5262 129.113 11.162L127.729 9.71801ZM126.359 11.7033C126.044 12.4542 125.891 13.2567 125.891 14.1H127.891C127.891 13.5033 127.998 12.9658 128.203 12.4767L126.359 11.7033ZM125.891 14.1V27H127.891V14.1H125.891ZM126.891 26H121.011V28H126.891V26ZM122.011 27V14.1H120.011V27H122.011ZM122.011 14.1C122.011 12.7109 122.275 11.4167 122.799 10.2072L120.963 9.41278C120.327 10.8833 120.011 12.4491 120.011 14.1H122.011ZM122.801 10.2023C123.333 8.95442 124.052 7.88264 124.958 6.97711L123.544 5.56289C122.449 6.65736 121.589 7.94557 120.961 9.41771L122.801 10.2023ZM124.958 6.97711C125.888 6.04732 126.962 5.31829 128.188 4.78772L127.394 2.95228C125.939 3.5817 124.654 4.45268 123.544 5.56289L124.958 6.97711ZM128.188 4.78772C129.396 4.26494 130.7 4 132.111 4V2C130.442 2 128.866 2.31506 127.394 2.95228L128.188 4.78772ZM132.111 4C133.5 4 134.794 4.26423 136.004 4.78772L136.798 2.95228C135.328 2.31577 133.762 2 132.111 2V4ZM136.009 4.78984C137.251 5.3195 138.307 6.04423 139.19 6.96282L140.632 5.57717C139.555 4.45577 138.271 3.5805 136.793 2.95016L136.009 4.78984ZM139.204 6.97711C140.109 7.88264 140.829 8.95442 141.361 10.2023L143.201 9.41771C142.573 7.94557 141.712 6.65736 140.618 5.56289L139.204 6.97711ZM141.363 10.2072C141.887 11.4167 142.151 12.7109 142.151 14.1H144.151C144.151 12.4491 143.835 10.8833 143.199 9.41278L141.363 10.2072ZM142.151 14.1V27H144.151V14.1H142.151ZM168.337 12.06H169.337V11.06H168.337V12.06ZM167.377 19.68L166.461 19.2785L166.458 19.2845L167.377 19.68ZM164.797 23.49L165.504 24.1971L165.504 24.1971L164.797 23.49ZM160.987 26.07L161.378 26.9905L161.388 26.9859L160.987 26.07ZM151.657 26.07L151.251 26.9838L151.258 26.9872L151.266 26.9904L151.657 26.07ZM147.847 23.49L147.133 24.1906L147.14 24.1971L147.146 24.2036L147.847 23.49ZM145.267 19.68L144.346 20.0709L144.35 20.0785L144.353 20.0861L145.267 19.68ZM145.267 10.35L144.351 9.9485L144.346 9.95913L145.267 10.35ZM147.847 6.54L147.14 5.83289L147.847 6.54ZM151.657 3.96L152.052 4.8785L152.058 4.87587L151.657 3.96ZM159.637 3L160.344 2.29289L160.051 2H159.637V3ZM165.577 8.94V9.94H167.991L166.284 8.23289L165.577 8.94ZM153.967 9.42L154.364 10.3379L154.364 10.3379L153.967 9.42ZM152.047 10.71L152.754 11.4171L152.754 11.4171L152.047 10.71ZM152.047 19.29L152.754 18.5829L152.754 18.5829L152.047 19.29ZM153.967 20.58L154.364 19.6621L154.364 19.6621L153.967 20.58ZM159.427 20.22L159.947 21.0742L159.952 21.071L159.427 20.22ZM161.617 18L162.483 18.5003L163.349 17H161.617V18ZM152.077 18L151.37 17.2929L149.663 19H152.077V18ZM158.017 12.06V11.06H157.603L157.31 11.3529L158.017 12.06ZM167.337 12.06V15H169.337V12.06H167.337ZM167.337 15C167.337 16.5276 167.043 17.9503 166.461 19.2785L168.293 20.0815C168.99 18.4897 169.337 16.7924 169.337 15H167.337ZM166.458 19.2845C165.888 20.6091 165.099 21.7732 164.09 22.7829L165.504 24.1971C166.694 23.0068 167.626 21.6309 168.295 20.0755L166.458 19.2845ZM164.09 22.7829C163.102 23.7711 161.936 24.5619 160.585 25.1541L161.388 26.9859C162.957 26.2981 164.332 25.3689 165.504 24.1971L164.09 22.7829ZM160.596 25.1496C159.264 25.7153 157.847 26 156.337 26V28C158.106 28 159.79 27.6647 161.378 26.9904L160.596 25.1496ZM156.337 26C154.805 26 153.378 25.7146 152.048 25.1496L151.266 26.9904C152.855 27.6654 154.549 28 156.337 28V26ZM152.063 25.1562C150.73 24.5637 149.56 23.7707 148.547 22.7764L147.146 24.2036C148.333 25.3693 149.704 26.2963 151.251 26.9838L152.063 25.1562ZM148.56 22.7894C147.566 21.7767 146.773 20.607 146.181 19.2739L144.353 20.0861C145.04 21.633 145.968 23.0033 147.133 24.1906L148.56 22.7894ZM146.187 19.2891C145.622 17.9585 145.337 16.5321 145.337 15H143.337C143.337 16.7879 143.671 18.4815 144.346 20.0709L146.187 19.2891ZM145.337 15C145.337 13.4897 145.622 12.073 146.187 10.7409L144.346 9.95913C143.672 11.547 143.337 13.2303 143.337 15H145.337ZM146.183 10.7515C146.775 9.4004 147.566 8.23528 148.554 7.24711L147.14 5.83289C145.968 7.00471 145.039 8.3796 144.351 9.94852L146.183 10.7515ZM148.554 7.24711C149.564 6.23738 150.728 5.4488 152.052 4.87848L151.261 3.04152C149.706 3.7112 148.33 4.64262 147.14 5.83289L148.554 7.24711ZM152.058 4.87587C153.386 4.29365 154.809 4 156.337 4V2C154.544 2 152.847 2.34635 151.255 3.04413L152.058 4.87587ZM156.337 4H159.637V2H156.337V4ZM158.93 3.70711L164.87 9.64711L166.284 8.23289L160.344 2.29289L158.93 3.70711ZM165.577 7.94H156.337V9.94H165.577V7.94ZM156.337 7.94C155.366 7.94 154.44 8.12568 153.57 8.50214L154.364 10.3379C154.973 10.0743 155.627 9.94 156.337 9.94V7.94ZM153.57 8.50214C152.721 8.86938 151.974 9.36881 151.34 10.0029L152.754 11.4171C153.2 10.9712 153.733 10.6106 154.364 10.3379L153.57 8.50214ZM151.34 10.0029C150.706 10.637 150.206 11.3839 149.839 12.2331L151.675 13.0269C151.947 12.3961 152.308 11.863 152.754 11.4171L151.34 10.0029ZM149.839 12.2331C149.462 13.1036 149.277 14.0293 149.277 15H151.277C151.277 14.2907 151.411 13.6363 151.675 13.0269L149.839 12.2331ZM149.277 15C149.277 15.9707 149.462 16.8963 149.839 17.7669L151.675 16.9731C151.411 16.3636 151.277 15.7093 151.277 15H149.277ZM149.839 17.7669C150.206 18.6161 150.706 19.363 151.34 19.9971L152.754 18.5829C152.308 18.137 151.947 17.6039 151.675 16.9731L149.839 17.7669ZM151.34 19.9971C151.974 20.6312 152.721 21.1306 153.57 21.4979L154.364 19.6621C153.733 19.3894 153.2 19.0288 152.754 18.5829L151.34 19.9971ZM153.57 21.4979C154.44 21.8743 155.366 22.06 156.337 22.06V20.06C155.627 20.06 154.973 19.9257 154.364 19.6621L153.57 21.4979ZM156.337 22.06C157.649 22.06 158.861 21.7352 159.947 21.0742L158.907 19.3658C158.153 19.8248 157.305 20.06 156.337 20.06V22.06ZM159.952 21.071C161.024 20.4097 161.875 19.5526 162.483 18.5003L160.751 17.4997C160.319 18.2474 159.71 18.8703 158.902 19.369L159.952 21.071ZM161.617 17H152.077V19H161.617V17ZM152.784 18.7071L158.724 12.7671L157.31 11.3529L151.37 17.2929L152.784 18.7071ZM158.017 13.06H168.337V11.06H158.017V13.06ZM35.7206 30.96L35.3191 31.8759L35.3298 31.8804L35.7206 30.96ZM39.5306 33.54L38.817 34.2406L38.8235 34.2471L39.5306 33.54ZM42.0806 37.35L41.1601 37.7409L41.1648 37.7515L42.0806 37.35ZM43.0406 54V55H44.0406V54H43.0406ZM37.1006 54H36.1006V55H37.1006V54ZM36.6206 39.69L35.7027 40.0869L35.7068 40.0961L36.6206 39.69ZM33.4106 36.48L33.8075 35.5621L33.8075 35.5621L33.4106 36.48ZM28.7006 36.48L28.3037 35.5621L28.2945 35.5662L28.7006 36.48ZM26.8106 37.77L26.1035 37.0629L26.1035 37.0629L26.8106 37.77ZM25.5206 39.69L26.4345 40.0962L26.4385 40.0869L25.5206 39.69ZM25.5206 44.34L24.6027 44.7369L24.6068 44.7461L25.5206 44.34ZM26.8106 46.23L26.1035 46.9371L26.1035 46.9371L26.8106 46.23ZM28.7006 47.52L28.2945 48.4339L28.3037 48.4379L28.7006 47.52ZM37.0406 48L37.7477 48.7071L39.4548 47H37.0406V48ZM31.0406 54L31.0286 54.9999L31.4498 55.005L31.7477 54.7071L31.0406 54ZM26.3606 53.04L25.9545 53.9538L25.9621 53.9572L25.9698 53.9604L26.3606 53.04ZM22.5806 50.46L23.2877 49.7529L23.2877 49.7529L22.5806 50.46ZM20.0306 46.68L19.1102 47.0709L19.1121 47.0755L20.0306 46.68ZM20.0306 37.35L20.9511 37.7409L20.9511 37.7409L20.0306 37.35ZM22.5806 33.54L23.2878 34.2471L23.2942 34.2406L22.5806 33.54ZM26.3606 30.96L26.7561 31.8785L26.7621 31.8759L26.3606 30.96ZM31.0406 31C32.5683 31 33.991 31.2937 35.3191 31.8759L36.1221 30.0441C34.5303 29.3463 32.833 29 31.0406 29V31ZM35.3298 31.8804C36.6724 32.4506 37.8318 33.2371 38.8171 34.2406L40.2442 32.8394C39.0694 31.6429 37.6889 30.7094 36.1115 30.0396L35.3298 31.8804ZM38.8235 34.2471C39.8093 35.2329 40.5884 36.3944 41.1602 37.7409L43.0011 36.9591C42.3329 35.3856 41.412 34.0071 40.2377 32.8329L38.8235 34.2471ZM41.1648 37.7515C41.7477 39.0812 42.0406 40.4941 42.0406 42H44.0406C44.0406 40.2259 43.6936 38.5388 42.9965 36.9485L41.1648 37.7515ZM42.0406 42V54H44.0406V42H42.0406ZM43.0406 53H37.1006V55H43.0406V53ZM38.1006 54V42H36.1006V54H38.1006ZM38.1006 42C38.1006 41.0459 37.9136 40.1369 37.5344 39.2839L35.7068 40.0961C35.9677 40.6831 36.1006 41.3141 36.1006 42H38.1006ZM37.5385 39.2931C37.1712 38.4439 36.6718 37.697 36.0377 37.0629L34.6235 38.4771C35.0694 38.923 35.43 39.4561 35.7028 40.0869L37.5385 39.2931ZM36.0377 37.0629C35.4037 36.4288 34.6568 35.9294 33.8075 35.5621L33.0137 37.3979C33.6445 37.6706 34.1776 38.0312 34.6235 38.4771L36.0377 37.0629ZM33.8075 35.5621C32.937 35.1857 32.0113 35 31.0406 35V37C31.7499 37 32.4043 37.1343 33.0137 37.3979L33.8075 35.5621ZM31.0406 35C30.0865 35 29.1712 35.187 28.3037 35.5621L29.0975 37.3979C29.71 37.133 30.3548 37 31.0406 37V35ZM28.2945 35.5662C27.466 35.9344 26.7331 36.4333 26.1035 37.0629L27.5177 38.4771C27.9682 38.0267 28.4953 37.6656 29.1068 37.3938L28.2945 35.5662ZM26.1035 37.0629C25.4694 37.697 24.97 38.4439 24.6028 39.2931L26.4385 40.0869C26.7112 39.4561 27.0718 38.923 27.5177 38.4771L26.1035 37.0629ZM24.6068 39.2839C24.2277 40.1369 24.0406 41.0459 24.0406 42H26.0406C26.0406 41.3141 26.1736 40.6831 26.4344 40.0961L24.6068 39.2839ZM24.0406 42C24.0406 42.9541 24.2276 43.8694 24.6028 44.7369L26.4385 43.9431C26.1736 43.3306 26.0406 42.6859 26.0406 42H24.0406ZM24.6068 44.7461C24.9751 45.5747 25.474 46.3076 26.1035 46.9371L27.5177 45.5229C27.0673 45.0724 26.7062 44.5453 26.4344 43.9339L24.6068 44.7461ZM26.1035 46.9371C26.7331 47.5667 27.466 48.0656 28.2945 48.4338L29.1068 46.6062C28.4953 46.3344 27.9682 45.9733 27.5177 45.5229L26.1035 46.9371ZM28.3037 48.4379C29.1712 48.813 30.0865 49 31.0406 49V47C30.3548 47 29.71 46.867 29.0975 46.6021L28.3037 48.4379ZM31.0406 49H37.0406V47H31.0406V49ZM36.3335 47.2929L30.3335 53.2929L31.7477 54.7071L37.7477 48.7071L36.3335 47.2929ZM31.0527 53.0001C29.5167 52.9816 28.086 52.6863 26.7515 52.1196L25.9698 53.9604C27.5552 54.6337 29.2445 54.9784 31.0286 54.9999L31.0527 53.0001ZM26.7668 52.1262C25.4353 51.5344 24.2782 50.7433 23.2877 49.7529L21.8735 51.1671C23.0431 52.3367 24.406 53.2656 25.9545 53.9538L26.7668 52.1262ZM23.2877 49.7529C22.2997 48.7648 21.5204 47.6114 20.9491 46.2845L19.1121 47.0755C19.7809 48.6286 20.7016 49.9952 21.8735 51.1671L23.2877 49.7529ZM20.9511 46.2891C20.386 44.9585 20.1006 43.5321 20.1006 42H18.1006C18.1006 43.7879 18.4352 45.4815 19.1102 47.0709L20.9511 46.2891ZM20.1006 42C20.1006 40.4897 20.3854 39.073 20.9511 37.7409L19.1102 36.9591C18.4359 38.547 18.1006 40.2303 18.1006 42H20.1006ZM20.9511 37.7409C21.5229 36.3944 22.302 35.2329 23.2877 34.2471L21.8735 32.8329C20.6993 34.0071 19.7784 35.3856 19.1102 36.9591L20.9511 37.7409ZM23.2942 34.2406C24.2817 33.2348 25.4332 32.4481 26.7561 31.8785L25.9652 30.0415C24.4081 30.7119 23.0395 31.6452 21.8671 32.8394L23.2942 34.2406ZM26.7621 31.8759C28.0903 31.2937 29.513 31 31.0406 31V29C29.2483 29 27.551 29.3463 25.9591 30.0441L26.7621 31.8759ZM68.1321 39.06H69.1321V38.06H68.1321V39.06ZM67.1721 46.68L66.2562 46.2785L66.2536 46.2845L67.1721 46.68ZM64.5921 50.49L65.2992 51.1971L65.2992 51.1971L64.5921 50.49ZM60.7821 53.07L61.173 53.9905L61.1836 53.9859L60.7821 53.07ZM51.4521 53.07L51.046 53.9838L51.0536 53.9872L51.0612 53.9904L51.4521 53.07ZM47.6421 50.49L46.9285 51.1906L46.935 51.1971L46.9415 51.2036L47.6421 50.49ZM45.0621 46.68L44.1417 47.0709L44.1449 47.0785L44.1483 47.0861L45.0621 46.68ZM45.0621 37.35L44.1462 36.9485L44.1417 36.9591L45.0621 37.35ZM47.6421 33.54L46.935 32.8329L47.6421 33.54ZM51.4521 30.96L51.8476 31.8785L51.8536 31.8759L51.4521 30.96ZM59.4321 30L60.1392 29.2929L59.8463 29H59.4321V30ZM65.3721 35.94V36.94H67.7863L66.0792 35.2329L65.3721 35.94ZM53.7621 36.42L54.159 37.3379L54.159 37.3379L53.7621 36.42ZM51.8421 37.71L52.5492 38.4171L52.5492 38.4171L51.8421 37.71ZM51.8421 46.29L52.5492 45.5829L52.5492 45.5829L51.8421 46.29ZM53.7621 47.58L54.159 46.6621L54.159 46.6621L53.7621 47.58ZM59.2221 47.22L59.7421 48.0742L59.7472 48.071L59.2221 47.22ZM61.4121 45L62.278 45.5003L63.1448 44H61.4121V45ZM51.8721 45L51.165 44.2929L49.4579 46H51.8721V45ZM57.8121 39.06V38.06H57.3979L57.105 38.3529L57.8121 39.06ZM67.1321 39.06V42H69.1321V39.06H67.1321ZM67.1321 42C67.1321 43.5276 66.8385 44.9503 66.2562 46.2785L68.088 47.0815C68.7858 45.4897 69.1321 43.7924 69.1321 42H67.1321ZM66.2536 46.2845C65.6833 47.6091 64.8947 48.7732 63.885 49.7829L65.2992 51.1971C66.4895 50.0068 67.4209 48.6309 68.0906 47.0755L66.2536 46.2845ZM63.885 49.7829C62.8968 50.7711 61.7317 51.5619 60.3806 52.1541L61.1836 53.9859C62.7525 53.2981 64.1274 52.3689 65.2992 51.1971L63.885 49.7829ZM60.3912 52.1496C59.0591 52.7153 57.6425 53 56.1321 53V55C57.9018 55 59.5851 54.6647 61.173 53.9904L60.3912 52.1496ZM56.1321 53C54.6001 53 53.1736 52.7146 51.843 52.1496L51.0612 53.9904C52.6506 54.6654 54.3442 55 56.1321 55V53ZM51.8583 52.1562C50.5251 51.5637 49.3554 50.7707 48.3427 49.7764L46.9415 51.2036C48.1288 52.3693 49.4991 53.2963 51.046 53.9838L51.8583 52.1562ZM48.3557 49.7894C47.3614 48.7767 46.5684 47.607 45.9759 46.2739L44.1483 47.0861C44.8358 48.633 45.7628 50.0033 46.9285 51.1906L48.3557 49.7894ZM45.9826 46.2891C45.4175 44.9585 45.1321 43.5321 45.1321 42H43.1321C43.1321 43.7879 43.4667 45.4815 44.1417 47.0709L45.9826 46.2891ZM45.1321 42C45.1321 40.4897 45.4168 39.073 45.9826 37.7409L44.1417 36.9591C43.4674 38.547 43.1321 40.2303 43.1321 42H45.1321ZM45.978 37.7515C46.5702 36.4004 47.361 35.2353 48.3492 34.2471L46.935 32.8329C45.7632 34.0047 44.834 35.3796 44.1462 36.9485L45.978 37.7515ZM48.3492 34.2471C49.3589 33.2374 50.523 32.4488 51.8476 31.8785L51.0567 30.0415C49.5013 30.7112 48.1253 31.6426 46.935 32.8329L48.3492 34.2471ZM51.8536 31.8759C53.1818 31.2937 54.6045 31 56.1321 31V29C54.3398 29 52.6425 29.3463 51.0506 30.0441L51.8536 31.8759ZM56.1321 31H59.4321V29H56.1321V31ZM58.725 30.7071L64.665 36.6471L66.0792 35.2329L60.1392 29.2929L58.725 30.7071ZM65.3721 34.94H56.1321V36.94H65.3721V34.94ZM56.1321 34.94C55.1614 34.94 54.2358 35.1257 53.3652 35.5021L54.159 37.3379C54.7685 37.0743 55.4228 36.94 56.1321 36.94V34.94ZM53.3652 35.5021C52.516 35.8694 51.7691 36.3688 51.135 37.0029L52.5492 38.4171C52.9951 37.9712 53.5283 37.6106 54.159 37.3379L53.3652 35.5021ZM51.135 37.0029C50.5009 37.637 50.0015 38.3839 49.6343 39.2331L51.47 40.0269C51.7427 39.3961 52.1033 38.863 52.5492 38.4171L51.135 37.0029ZM49.6343 39.2331C49.2578 40.1036 49.0721 41.0293 49.0721 42H51.0721C51.0721 41.2907 51.2064 40.6363 51.47 40.0269L49.6343 39.2331ZM49.0721 42C49.0721 42.9707 49.2578 43.8963 49.6343 44.7669L51.47 43.9731C51.2064 43.3636 51.0721 42.7093 51.0721 42H49.0721ZM49.6343 44.7669C50.0015 45.6161 50.5009 46.363 51.135 46.9971L52.5492 45.5829C52.1033 45.137 51.7427 44.6039 51.47 43.9731L49.6343 44.7669ZM51.135 46.9971C51.7691 47.6312 52.516 48.1306 53.3652 48.4979L54.159 46.6621C53.5283 46.3894 52.9951 46.0288 52.5492 45.5829L51.135 46.9971ZM53.3652 48.4979C54.2358 48.8743 55.1614 49.06 56.1321 49.06V47.06C55.4228 47.06 54.7685 46.9257 54.159 46.6621L53.3652 48.4979ZM56.1321 49.06C57.4443 49.06 58.6561 48.7352 59.7421 48.0742L58.7022 46.3658C57.9481 46.8248 57.0999 47.06 56.1321 47.06V49.06ZM59.7472 48.071C60.819 47.4097 61.67 46.5526 62.278 45.5003L60.5462 44.4997C60.1142 45.2474 59.5052 45.8703 58.697 46.369L59.7472 48.071ZM61.4121 44H51.8721V46H61.4121V44ZM52.5792 45.7071L58.5192 39.7671L57.105 38.3529L51.165 44.2929L52.5792 45.7071ZM57.8121 40.06H68.1321V38.06H57.8121V40.06ZM76.748 38.94V37.94H74.3165L76.0444 39.6507L76.748 38.94ZM86.348 38.94V39.94H88.044L87.223 38.4559L86.348 38.94ZM84.158 36.69L83.6247 37.5359L83.6353 37.5426L83.6462 37.5491L84.158 36.69ZM78.698 36.3L78.3011 35.3821L78.3011 35.3821L78.698 36.3ZM76.748 37.62L77.4551 38.3271L76.748 37.62ZM75.428 39.57L76.3458 39.9669L76.3458 39.9669L75.428 39.57ZM75.428 44.31L76.3458 43.9131L76.3458 43.9131L75.428 44.31ZM76.748 46.26L77.4551 45.5529L77.4551 45.5529L76.748 46.26ZM78.698 47.58L79.0949 46.6621L79.0949 46.6621L78.698 47.58ZM90.368 48.06L91.0715 48.7707L92.7994 47.06H90.368V48.06ZM84.368 54V55H84.7792L85.0715 54.7107L84.368 54ZM76.358 53.07L75.9565 53.9859L75.964 53.9892L75.9716 53.9923L76.358 53.07ZM72.518 50.49L71.8044 51.1906L71.8108 51.1971L71.8174 51.2036L72.518 50.49ZM69.938 46.65L69.0156 47.0364L69.0188 47.044L69.0221 47.0515L69.938 46.65ZM69.938 37.26L69.0201 36.8631L69.0175 36.8691L69.938 37.26ZM72.518 33.42L71.8109 32.7129L71.8109 32.7129L72.518 33.42ZM76.358 30.84L76.7488 31.7605L76.7549 31.7579L76.358 30.84ZM85.748 30.84L85.3465 31.7559L85.354 31.7592L85.3616 31.7623L85.748 30.84ZM89.588 33.42L88.8744 34.1206L88.8808 34.1271L88.8874 34.1336L89.588 33.42ZM92.168 37.26L91.2456 37.6464L91.2488 37.654L91.2521 37.6615L92.168 37.26ZM93.128 44.88V45.88H94.128V44.88H93.128ZM82.748 44.88L82.0444 45.5907L82.3367 45.88H82.748V44.88ZM76.748 39.94H86.348V37.94H76.748V39.94ZM87.223 38.4559C86.6156 37.358 85.759 36.4798 84.6698 35.8309L83.6462 37.5491C84.437 38.0202 85.0403 38.642 85.4729 39.4241L87.223 38.4559ZM84.6913 35.8441C83.6037 35.1584 82.3872 34.82 81.068 34.82V36.82C82.0288 36.82 82.8722 37.0616 83.6247 37.5359L84.6913 35.8441ZM81.068 34.82C80.0973 34.82 79.1716 35.0057 78.3011 35.3821L79.0949 37.2179C79.7043 36.9543 80.3587 36.82 81.068 36.82V34.82ZM78.3011 35.3821C77.4474 35.7513 76.6917 36.2621 76.0409 36.9129L77.4551 38.3271C77.9243 37.8579 78.4685 37.4887 79.0949 37.2179L78.3011 35.3821ZM76.0409 36.9129C75.39 37.5637 74.8792 38.3195 74.5101 39.1731L76.3458 39.9669C76.6167 39.3405 76.9859 38.7963 77.4551 38.3271L76.0409 36.9129ZM74.5101 39.1731C74.1337 40.0436 73.948 40.9693 73.948 41.94H75.948C75.948 41.2307 76.0823 40.5763 76.3458 39.9669L74.5101 39.1731ZM73.948 41.94C73.948 42.9107 74.1337 43.8363 74.5101 44.7069L76.3458 43.9131C76.0823 43.3036 75.948 42.6493 75.948 41.94H73.948ZM74.5101 44.7069C74.8792 45.5605 75.39 46.3163 76.0409 46.9671L77.4551 45.5529C76.9859 45.0837 76.6167 44.5395 76.3458 43.9131L74.5101 44.7069ZM76.0409 46.9671C76.6917 47.6179 77.4474 48.1287 78.3011 48.4979L79.0949 46.6621C78.4685 46.3913 77.9243 46.0221 77.4551 45.5529L76.0409 46.9671ZM78.3011 48.4979C79.1716 48.8743 80.0973 49.06 81.068 49.06V47.06C80.3587 47.06 79.7043 46.9257 79.0949 46.6621L78.3011 48.4979ZM81.068 49.06H90.368V47.06H81.068V49.06ZM89.6644 47.3493L83.6644 53.2893L85.0715 54.7107L91.0715 48.7707L89.6644 47.3493ZM84.368 53H81.068V55H84.368V53ZM81.068 53C79.536 53 78.0977 52.7146 76.7444 52.1477L75.9716 53.9923C77.5782 54.6654 79.28 55 81.068 55V53ZM76.7594 52.1541C75.4067 51.5612 74.229 50.7685 73.2186 49.7764L71.8174 51.2036C73.0069 52.3715 74.3892 53.2988 75.9565 53.9859L76.7594 52.1541ZM73.2315 49.7894C72.2395 48.779 71.4468 47.6012 70.8538 46.2485L69.0221 47.0515C69.7091 48.6188 70.6365 50.001 71.8044 51.1906L73.2315 49.7894ZM70.8603 46.2636C70.2933 44.9102 70.008 43.472 70.008 41.94H68.008C68.008 43.728 68.3426 45.4298 69.0156 47.0364L70.8603 46.2636ZM70.008 41.94C70.008 40.4079 70.2933 38.9815 70.8584 37.6509L69.0175 36.8691C68.3426 38.4585 68.008 40.1521 68.008 41.94H70.008ZM70.8558 37.6569C71.4486 36.2861 72.2392 35.113 73.2251 34.1271L71.8109 32.7129C70.6368 33.887 69.7073 35.2739 69.0201 36.8631L70.8558 37.6569ZM73.2251 34.1271C74.2325 33.1197 75.4046 32.3313 76.7488 31.7604L75.9671 29.9196C74.3913 30.5887 73.0034 31.5203 71.8109 32.7129L73.2251 34.1271ZM76.7549 31.7579C78.1058 31.1737 79.5404 30.88 81.068 30.88V28.88C79.2756 28.88 77.5701 29.2263 75.9611 29.9221L76.7549 31.7579ZM81.068 30.88C82.5956 30.88 84.0183 31.1737 85.3465 31.7559L86.1494 29.9241C84.5576 29.2263 82.8603 28.88 81.068 28.88V30.88ZM85.3616 31.7623C86.724 32.3331 87.8914 33.1194 88.8744 34.1206L90.3015 32.7194C89.1245 31.5206 87.732 30.5869 86.1344 29.9177L85.3616 31.7623ZM88.8874 34.1336C89.8885 35.1165 90.6749 36.284 91.2456 37.6464L93.0903 36.8736C92.421 35.276 91.4874 33.8835 90.2886 32.7064L88.8874 34.1336ZM91.2521 37.6615C91.8343 38.9897 92.128 40.4124 92.128 41.94H94.128C94.128 40.1476 93.7816 38.4503 93.0838 36.8585L91.2521 37.6615ZM92.128 41.94V44.88H94.128V41.94H92.128ZM93.128 43.88H82.748V45.88H93.128V43.88ZM83.4515 44.1693L77.4515 38.2293L76.0444 39.6507L82.0444 45.5907L83.4515 44.1693ZM116.415 54V55H117.415V54H116.415ZM110.535 54H109.535V55H110.535V54ZM110.115 39.09L109.188 39.4664L109.195 39.4841L109.203 39.5016L110.115 39.09ZM109.005 37.44L108.297 38.1471L108.305 38.1546L108.313 38.162L109.005 37.44ZM107.355 36.36L106.943 37.2714L106.96 37.2793L106.978 37.2865L107.355 36.36ZM103.335 36.36L103.721 37.2822L103.728 37.2792L103.735 37.2762L103.335 36.36ZM101.685 37.44L102.376 38.162L102.376 38.162L101.685 37.44ZM100.545 39.09L99.6284 38.6892L99.6253 38.6962L99.6223 38.7033L100.545 39.09ZM100.155 54V55H101.155V54H100.155ZM94.2745 54H93.2745V55H94.2745V54ZM95.1445 36.81L96.0623 37.2072L96.0644 37.2023L95.1445 36.81ZM97.5145 33.27L96.8074 32.5629L96.8074 32.5629L97.5145 33.27ZM109.665 30.87L109.267 31.7877L109.272 31.7898L109.665 30.87ZM113.175 33.27L112.453 33.9628L112.46 33.97L112.467 33.9771L113.175 33.27ZM115.545 36.81L114.625 37.2023L114.627 37.2072L115.545 36.81ZM116.415 53H110.535V55H116.415V53ZM111.535 54V41.1H109.535V54H111.535ZM111.535 41.1C111.535 40.2465 111.368 39.4352 111.026 38.6784L109.203 39.5016C109.421 39.9848 109.535 40.5135 109.535 41.1H111.535ZM111.041 38.7136C110.73 37.9484 110.282 37.2792 109.696 36.718L108.313 38.162C108.687 38.5208 108.979 38.9516 109.188 39.4664L111.041 38.7136ZM109.712 36.7329C109.151 36.1727 108.487 35.7407 107.731 35.4335L106.978 37.2865C107.502 37.4993 107.938 37.7873 108.297 38.1471L109.712 36.7329ZM107.766 35.4486C107.013 35.1085 106.212 34.94 105.375 34.94V36.94C105.937 36.94 106.456 37.0515 106.943 37.2714L107.766 35.4486ZM105.375 34.94C104.521 34.94 103.704 35.1068 102.934 35.4438L103.735 37.2762C104.245 37.0532 104.788 36.94 105.375 36.94V34.94ZM102.948 35.4378C102.216 35.7447 101.562 36.1721 100.993 36.718L102.376 38.162C102.767 37.7879 103.213 37.4953 103.721 37.2822L102.948 35.4378ZM100.993 36.718C100.413 37.2738 99.9585 37.9346 99.6284 38.6892L101.461 39.4908C101.691 38.9654 101.996 38.5262 102.376 38.162L100.993 36.718ZM99.6223 38.7033C99.3074 39.4542 99.1545 40.2567 99.1545 41.1H101.155C101.155 40.5033 101.262 39.9658 101.467 39.4767L99.6223 38.7033ZM99.1545 41.1V54H101.155V41.1H99.1545ZM100.155 53H94.2745V55H100.155V53ZM95.2745 54V41.1H93.2745V54H95.2745ZM95.2745 41.1C95.2745 39.7109 95.5388 38.4167 96.0623 37.2072L94.2268 36.4128C93.5903 37.8833 93.2745 39.4491 93.2745 41.1H95.2745ZM96.0644 37.2023C96.5966 35.9544 97.3161 34.8826 98.2216 33.9771L96.8074 32.5629C95.713 33.6574 94.8525 34.9456 94.2247 36.4177L96.0644 37.2023ZM98.2216 33.9771C99.1514 33.0473 100.226 32.3183 101.452 31.7877L100.657 29.9523C99.2031 30.5817 97.9176 31.4527 96.8074 32.5629L98.2216 33.9771ZM101.452 31.7877C102.66 31.2649 103.964 31 105.375 31V29C103.706 29 102.13 29.3151 100.657 29.9523L101.452 31.7877ZM105.375 31C106.764 31 108.058 31.2642 109.267 31.7877L110.062 29.9523C108.591 29.3158 107.025 29 105.375 29V31ZM109.272 31.7898C110.514 32.3195 111.571 33.0442 112.453 33.9628L113.896 32.5772C112.818 31.4558 111.535 30.5805 110.057 29.9502L109.272 31.7898ZM112.467 33.9771C113.373 34.8826 114.093 35.9544 114.625 37.2023L116.464 36.4177C115.837 34.9456 114.976 33.6574 113.882 32.5629L112.467 33.9771ZM114.627 37.2072C115.15 38.4167 115.415 39.7109 115.415 41.1H117.415C117.415 39.4491 117.099 37.8833 116.462 36.4128L114.627 37.2072ZM115.415 41.1V54H117.415V41.1H115.415ZM124.89 53.07L124.484 53.9838L124.492 53.9872L124.5 53.9904L124.89 53.07ZM121.08 50.49L120.367 51.1906L120.373 51.1971L120.38 51.2036L121.08 50.49ZM118.5 46.68L117.58 47.0709L117.583 47.0785L117.587 47.0861L118.5 46.68ZM118.5 37.32L117.583 36.9231L117.58 36.9291L118.5 37.32ZM121.08 33.48L121.788 34.1871L121.788 34.1871L121.08 33.48ZM124.89 30.9L125.286 31.8185L125.292 31.8159L124.89 30.9ZM134.19 30.87L133.8 31.7905L133.81 31.7949L134.19 30.87ZM138.09 33.48L138.798 34.1871L139.505 33.48L138.798 32.7729L138.09 33.48ZM133.89 37.68L133.183 38.3871L133.89 39.0942L134.598 38.3871L133.89 37.68ZM131.91 36.39L131.535 37.3167L131.546 37.3211L131.557 37.3253L131.91 36.39ZM127.23 36.42L127.627 37.3379L127.627 37.3379L127.23 36.42ZM125.28 37.71L124.586 36.9902L124.58 36.9965L124.573 37.0029L125.28 37.71ZM125.28 46.29L124.573 46.9971L124.58 47.0035L124.586 47.0098L125.28 46.29ZM127.23 47.58L127.627 46.6621L127.627 46.6621L127.23 47.58ZM131.91 47.61L132.286 48.5367L132.297 48.5324L132.307 48.5279L131.91 47.61ZM133.89 46.26L134.598 45.5529L133.89 44.8458L133.183 45.5529L133.89 46.26ZM138.09 50.46L138.798 51.1671L139.505 50.46L138.798 49.7529L138.09 50.46ZM134.19 53.1L134.571 54.025L134.581 54.0204L134.19 53.1ZM129.57 53C128.038 53 126.612 52.7146 125.281 52.1496L124.5 53.9904C126.089 54.6654 127.783 55 129.57 55V53ZM125.297 52.1562C123.963 51.5637 122.794 50.7707 121.781 49.7764L120.38 51.2036C121.567 52.3693 122.937 53.2963 124.484 53.9838L125.297 52.1562ZM121.794 49.7894C120.8 48.7767 120.007 47.607 119.414 46.2739L117.587 47.0861C118.274 48.633 119.201 50.0033 120.367 51.1906L121.794 49.7894ZM119.421 46.2891C118.856 44.9585 118.57 43.5321 118.57 42H116.57C116.57 43.7879 116.905 45.4815 117.58 47.0709L119.421 46.2891ZM118.57 42C118.57 40.4679 118.856 39.0415 119.421 37.7109L117.58 36.9291C116.905 38.5185 116.57 40.2121 116.57 42H118.57ZM119.418 37.7169C120.011 36.3461 120.802 35.173 121.788 34.1871L120.373 32.7729C119.199 33.947 118.27 35.3339 117.583 36.9231L119.418 37.7169ZM121.788 34.1871C122.797 33.1774 123.961 32.3888 125.286 31.8185L124.495 29.9815C122.94 30.6512 121.564 31.5826 120.373 32.7729L121.788 34.1871ZM125.292 31.8159C126.62 31.2336 128.043 30.94 129.57 30.94V28.94C127.778 28.94 126.081 29.2863 124.489 29.9841L125.292 31.8159ZM129.57 30.94C131.059 30.94 132.466 31.2241 133.8 31.7904L134.581 29.9496C132.995 29.2759 131.322 28.94 129.57 28.94V30.94ZM133.81 31.7949C135.145 32.3436 136.335 33.1386 137.383 34.1871L138.798 32.7729C137.566 31.5414 136.156 30.5964 134.571 29.9451L133.81 31.7949ZM137.383 32.7729L133.183 36.9729L134.598 38.3871L138.798 34.1871L137.383 32.7729ZM134.598 36.9729C133.921 36.2964 133.142 35.7867 132.264 35.4547L131.557 37.3253C132.159 37.5533 132.7 37.9036 133.183 38.3871L134.598 36.9729ZM132.286 35.4633C131.424 35.1136 130.516 34.94 129.57 34.94V36.94C130.265 36.94 130.917 37.0664 131.535 37.3167L132.286 35.4633ZM129.57 34.94C128.616 34.94 127.701 35.127 126.834 35.5021L127.627 37.3379C128.24 37.073 128.885 36.94 129.57 36.94V34.94ZM126.834 35.5021C125.987 35.868 125.236 36.3638 124.586 36.9902L125.975 38.4298C126.445 37.9762 126.993 37.612 127.627 37.3379L126.834 35.5021ZM124.573 37.0029C123.939 37.637 123.44 38.3839 123.073 39.2331L124.908 40.0269C125.181 39.3961 125.542 38.863 125.988 38.4171L124.573 37.0029ZM123.073 39.2331C122.696 40.1036 122.51 41.0293 122.51 42H124.51C124.51 41.2907 124.645 40.6363 124.908 40.0269L123.073 39.2331ZM122.51 42C122.51 42.9707 122.696 43.8963 123.073 44.7669L124.908 43.9731C124.645 43.3636 124.51 42.7093 124.51 42H122.51ZM123.073 44.7669C123.44 45.6161 123.939 46.363 124.573 46.9971L125.988 45.5829C125.542 45.137 125.181 44.6039 124.908 43.9731L123.073 44.7669ZM124.586 47.0098C125.236 47.6362 125.987 48.132 126.834 48.4979L127.627 46.6621C126.993 46.388 126.445 46.0238 125.975 45.5702L124.586 47.0098ZM126.834 48.4979C127.701 48.873 128.616 49.06 129.57 49.06V47.06C128.885 47.06 128.24 46.927 127.627 46.6621L126.834 48.4979ZM129.57 49.06C130.516 49.06 131.424 48.8864 132.286 48.5367L131.535 46.6833C130.917 46.9336 130.265 47.06 129.57 47.06V49.06ZM132.307 48.5279C133.165 48.1569 133.93 47.6347 134.598 46.9671L133.183 45.5529C132.691 46.0453 132.136 46.4231 131.514 46.6921L132.307 48.5279ZM133.183 46.9671L137.383 51.1671L138.798 49.7529L134.598 45.5529L133.183 46.9671ZM137.383 49.7529C136.333 50.8037 135.14 51.6106 133.8 52.1796L134.581 54.0204C136.161 53.3494 137.568 52.3963 138.798 51.1671L137.383 49.7529ZM133.81 52.1751C132.474 52.7242 131.064 53 129.57 53V55C131.317 55 132.987 54.6758 134.571 54.0249L133.81 52.1751ZM153.992 30.03L154.845 30.5523L155.772 29.0378L153.996 29.03L153.992 30.03ZM146.882 41.64L146.029 41.1177L145.882 41.3581V41.64H146.882ZM146.882 54V55H147.882V54H146.882ZM141.002 54H140.002V55H141.002V54ZM141.002 41.64H142.002V41.3517L141.848 41.1076L141.002 41.64ZM133.682 30V29H131.872L132.835 30.5323L133.682 30ZM140.702 30L141.552 29.4726L141.258 29H140.702V30ZM143.942 35.22L143.092 35.7474L143.942 37.1162L144.792 35.7474L143.942 35.22ZM147.182 30L147.186 29L146.627 28.9975L146.332 29.4726L147.182 30ZM153.139 29.5077L146.029 41.1177L147.735 42.1623L154.845 30.5523L153.139 29.5077ZM145.882 41.64V54H147.882V41.64H145.882ZM146.882 53H141.002V55H146.882V53ZM142.002 54V41.64H140.002V54H142.002ZM141.848 41.1076L134.528 29.4676L132.835 30.5323L140.155 42.1723L141.848 41.1076ZM133.682 31H140.702V29H133.682V31ZM139.852 30.5274L143.092 35.7474L144.792 34.6926L141.552 29.4726L139.852 30.5274ZM144.792 35.7474L148.032 30.5274L146.332 29.4726L143.092 34.6926L144.792 35.7474ZM147.177 31L153.987 31.03L153.996 29.03L147.186 29L147.177 31Z" fill="white"/>
</svg>
